<svg xmlns="http://www.w3.org/2000/svg" width="11.6" height="6.906" viewBox="0 0 11.6 6.906">
  <path id="chevron_right_FILL1_wght500_GRAD0_opsz48" d="M341.639,352.184a.961.961,0,0,1-.229-.588.732.732,0,0,1,.229-.565l4.094-4.094-4.118-4.118a.742.742,0,0,1-.206-.576.819.819,0,0,1,.229-.576.759.759,0,0,1,.576-.253.806.806,0,0,1,.553.253l4.706,4.706a.813.813,0,0,1,.185.268.817.817,0,0,1,0,.594.813.813,0,0,1-.185.268l-4.682,4.682a.733.733,0,0,1-.564.229A.963.963,0,0,1,341.639,352.184Z" transform="translate(352.714 -341.109) rotate(90)" fill="#fff" stroke="#fff" stroke-width="0.6"/>
</svg>
