<?xml version="1.0" encoding="utf-8"?>
<!-- Generator: Adobe Illustrator 27.8.1, SVG Export Plug-In . SVG Version: 6.00 Build 0)  -->
<svg version="1.1" id="Capa_1" xmlns="http://www.w3.org/2000/svg" xmlns:xlink="http://www.w3.org/1999/xlink" x="0px" y="0px"
	 viewBox="0 0 911.89 578.55" style="enable-background:new 0 0 911.89 578.55;" xml:space="preserve">
<style type="text/css">
	.st0{fill:#FFFFFF;}
</style>
<path class="st0" d="M900.33,530.35L482.32,246.41v-8.5c53.75-12.06,94.03-60.16,94.03-117.5C576.35,54.01,522.34,0,455.94,0
	c-48.5,0-92.04,28.86-110.93,73.53c-5.67,13.42,0.6,28.89,14.02,34.57c13.42,5.67,28.89-0.6,34.57-14.02
	c10.62-25.11,35.09-41.33,62.35-41.33c37.3,0,67.65,30.35,67.65,67.65s-30.35,67.65-67.65,67.65c-14.57,0-26.38,11.81-26.38,26.38
	v31.97L11.56,530.35c-9.58,6.51-13.79,18.5-10.39,29.57s13.63,18.62,25.21,18.62h859.13c11.58,0,21.81-7.55,25.21-18.62
	C914.13,548.86,909.91,536.86,900.33,530.35z M112.15,525.8l343.8-233.54l343.8,233.54H112.15z"/>
</svg>
