<svg xmlns="http://www.w3.org/2000/svg" xmlns:xlink="http://www.w3.org/1999/xlink" viewBox="9 6 26 30.37">
  <defs>
    <filter id="headset_mic_FILL1_wght400_GRAD0_opsz48" x="0" y="0" width="44" height="48.369" filterUnits="userSpaceOnUse">
      <feOffset dy="3" input="SourceAlpha"/>
      <feGaussianBlur stdDeviation="3" result="blur"/>
      <feFlood flood-opacity="0.161"/>
      <feComposite operator="in" in2="blur"/>
      <feComposite in="SourceGraphic"/>
    </filter>
  </defs>
  <g transform="matrix(1, 0, 0, 1, 0, 0)" filter="url(#headset_mic_FILL1_wght400_GRAD0_opsz48)">
    <path id="headset_mic_FILL1_wght400_GRAD0_opsz48-2" data-name="headset_mic_FILL1_wght400_GRAD0_opsz48" d="M134.156,205.369a1.045,1.045,0,0,1-.772-.313,1.057,1.057,0,0,1-.311-.776,1.036,1.036,0,0,1,.311-.77,1.056,1.056,0,0,1,.772-.307h9.678v-1.95h-3.178a2.173,2.173,0,0,1-2.167-2.167v-6.356a2.173,2.173,0,0,1,2.167-2.167h3.178v-2.456a10.677,10.677,0,0,0-3.142-7.71,10.231,10.231,0,0,0-7.619-3.232,11,11,0,0,0-10.906,10.942v2.456h3.178a2.173,2.173,0,0,1,2.167,2.167v6.356a2.173,2.173,0,0,1-2.167,2.167h-3.178A2.221,2.221,0,0,1,120,199.086V188.108a12.72,12.72,0,0,1,1.029-5.087,13.418,13.418,0,0,1,2.8-4.176,13.052,13.052,0,0,1,4.16-2.816A12.739,12.739,0,0,1,133.08,175a12.559,12.559,0,0,1,5.066,1.029,12.729,12.729,0,0,1,4.1,2.816,13.439,13.439,0,0,1,2.744,4.176A12.937,12.937,0,0,1,146,188.108V203.2a2.221,2.221,0,0,1-2.167,2.167Z" transform="translate(-111 -169)" fill="#fff"/>
  </g>
</svg>