<svg xmlns="http://www.w3.org/2000/svg" width="17.186" height="17" viewBox="0 0 17.186 17">
  <path id="person_FILL0_wght500_GRAD0_opsz48" d="M162.61,268.154a3.945,3.945,0,1,1,2.964-1.15A4.005,4.005,0,0,1,162.61,268.154Zm6.8,8.78H155.817a1.8,1.8,0,0,1-1.8-1.8v-.852a3.047,3.047,0,0,1,.525-1.792,3.374,3.374,0,0,1,1.355-1.14,19.861,19.861,0,0,1,3.417-1.2,13.888,13.888,0,0,1,3.291-.4,13.34,13.34,0,0,1,3.288.412,21.873,21.873,0,0,1,3.395,1.187,3.291,3.291,0,0,1,1.391,1.133,3.047,3.047,0,0,1,.524,1.794v.852a1.8,1.8,0,0,1-1.8,1.8Zm-13.589-1.8h13.589v-.827a1.422,1.422,0,0,0-.25-.8,1.58,1.58,0,0,0-.619-.561,13.862,13.862,0,0,0-3.042-1.095,13.7,13.7,0,0,0-2.886-.3,14.107,14.107,0,0,0-2.906.3,13.091,13.091,0,0,0-3.039,1.094,1.566,1.566,0,0,0-.846,1.359Zm6.793-8.78a2.242,2.242,0,1,0-1.659-.656A2.251,2.251,0,0,0,162.61,266.359ZM162.612,264.044ZM162.612,275.139Z" transform="translate(-154.022 -259.934)" fill="#fff"/>
</svg>
