<svg xmlns="http://www.w3.org/2000/svg" width="13.367" height="13.5" viewBox="0 0 13.367 13.5">
  <path id="search_FILL1_wght400_GRAD0_opsz48" d="M131.726,227.81l-2.993-3.146a4.662,4.662,0,0,1-1.479.856,5.463,5.463,0,1,1,3.277-3.351,5.366,5.366,0,0,1-.888,1.586l3.035,3.146a.577.577,0,0,1,.19.438.649.649,0,0,1-.21.469.641.641,0,0,1-.472.192A.608.608,0,0,1,131.726,227.81Zm-6.291-3.252a3.955,3.955,0,0,0,2.921-1.216,4.167,4.167,0,0,0,0-5.857,3.955,3.955,0,0,0-2.921-1.216,4.144,4.144,0,1,0,0,8.289Z" transform="translate(-119.75 -214.75)" fill="#6429cd" stroke="#6429cd" stroke-width="0.5"/>
</svg>
