<svg xmlns="http://www.w3.org/2000/svg" width="17.947" height="15.5" viewBox="0 0 17.947 15.5">
  <path id="shopping_basket_FILL0_wght400_GRAD0_opsz48" d="M39.944,188a.9.9,0,0,1-.56-.187.872.872,0,0,1-.324-.482l-2.222-8a.574.574,0,0,1,.108-.531.606.606,0,0,1,.5-.236h3.932l3.637-5.308a.821.821,0,0,1,.216-.187.585.585,0,0,1,.55,0,.821.821,0,0,1,.216.187l3.617,5.308h4.03a.587.587,0,0,1,.482.236.574.574,0,0,1,.108.531l-2.241,8a.872.872,0,0,1-.324.482.9.9,0,0,1-.56.187Zm.2-1.18H50.914l1.986-7.077H38.175Zm5.387-2.359a1.175,1.175,0,1,0-.836-.344A1.137,1.137,0,0,0,45.527,184.461Zm-2.713-5.9h5.367l-2.674-3.932Zm-2.674,8.257h0Z" transform="translate(-36.564 -172.75)" fill="#fff" stroke="#fff" stroke-width="0.5"/>
</svg>
