<svg xmlns="http://www.w3.org/2000/svg" width="17.887" height="18.2" viewBox="0 0 17.887 18.2">
  <path id="shopping_cart_FILL0_wght500_GRAD0_opsz48" d="M53.705,191.37a1.541,1.541,0,0,1-1.137-.475,1.564,1.564,0,0,1-.47-1.141,1.6,1.6,0,0,1,1.6-1.607,1.57,1.57,0,0,1,1.141.475,1.6,1.6,0,0,1,.006,2.278A1.564,1.564,0,0,1,53.705,191.37Zm8.952,0a1.541,1.541,0,0,1-1.137-.475,1.564,1.564,0,0,1-.47-1.141,1.6,1.6,0,0,1,1.6-1.607,1.57,1.57,0,0,1,1.141.475A1.6,1.6,0,0,1,63.8,190.9,1.564,1.564,0,0,1,62.657,191.37ZM52.648,176.6l2.371,4.921h6.43l2.691-4.921Zm.838,10.116a1.56,1.56,0,0,1-1.413-.659,1.339,1.339,0,0,1,.017-1.469l1.416-2.609-3.37-7.148H49.077a.667.667,0,0,1-.5-.217.73.73,0,0,1-.206-.522.694.694,0,0,1,.21-.514.71.71,0,0,1,.52-.208h1.5a.77.77,0,0,1,.412.112.689.689,0,0,1,.272.317l.628,1.339H64.939q.834,0,1.04.485a1.224,1.224,0,0,1-.144,1.107l-2.93,5.283a2.2,2.2,0,0,1-.647.684,1.551,1.551,0,0,1-.906.288H54.607l-1.216,2.269H63.624a.667.667,0,0,1,.5.216.73.73,0,0,1,.206.522.7.7,0,0,1-.21.514.71.71,0,0,1-.52.208Zm1.533-5.2h0Z" transform="translate(-48.269 -173.27)" fill="#fff" stroke="#fff" stroke-width="0.2"/>
</svg>
