<svg xmlns="http://www.w3.org/2000/svg" width="19.131" height="14" viewBox="0 0 19.131 14">
  <path id="local_shipping_FILL0_wght500_GRAD0_opsz24" d="M37.061,262.587a2.626,2.626,0,0,1-2.636-2.566,1.8,1.8,0,0,1-1.31-.579,1.915,1.915,0,0,1-.528-1.366v-7.543a1.942,1.942,0,0,1,1.946-1.946H44.56a1.6,1.6,0,0,1,1.295.612,3.053,3.053,0,0,1,.651,1.333v1.4h2.025a.933.933,0,0,1,.776.388l2.215,2.946a.917.917,0,0,1,.146.268.963.963,0,0,1,.05.316v3.2a.962.962,0,0,1-.973.973h-.825a2.638,2.638,0,0,1-5.274,0H39.694a2.623,2.623,0,0,1-2.633,2.566Zm0-1.792a.84.84,0,1,0-.609-.246A.827.827,0,0,0,37.062,260.795Zm-2.53-10.262v7.543h.71a3.059,3.059,0,0,1,.818-.564,2.452,2.452,0,0,1,2.006,0,2.872,2.872,0,0,1,.811.564H44.56v-7.543Zm12.751,10.262a.84.84,0,1,0-.609-.246A.827.827,0,0,0,47.284,260.795Zm-.778-4.353h3.466l-1.924-2.566H46.505ZM39.546,254.3Z" transform="translate(-32.587 -248.587)" fill="#fff"/>
</svg>
