<?xml version="1.0" encoding="utf-8"?>
<!-- Generator: Adobe Illustrator 28.1.0, SVG Export Plug-In . SVG Version: 6.00 Build 0)  -->
<svg version="1.1" id="Capa_1" xmlns="http://www.w3.org/2000/svg" xmlns:xlink="http://www.w3.org/1999/xlink" x="0px" y="0px"
	 viewBox="0 0 463.2 298.99" style="enable-background:new 0 0 463.2 298.99;" xml:space="preserve">
<style type="text/css">
	.st0{clip-path:url(#SVGID_00000088122507203213672620000009595541139688989363_);fill:#FF0000;}
	.st1{opacity:0.45;}
	.st2{filter:url(#Adobe_OpacityMaskFilter);}
	
		.st3{clip-path:url(#SVGID_00000170958337773928593440000013812893823140857527_);fill:url(#SVGID_00000103260124515055242740000011940657416415953815_);}
	
		.st4{clip-path:url(#SVGID_00000170958337773928593440000013812893823140857527_);mask:url(#SVGID_00000012458473222321708470000010380405737588728230_);fill:url(#SVGID_00000013885747032649947920000008760550356612797343_);}
	.st5{filter:url(#Adobe_OpacityMaskFilter_00000049907548564498722070000006814485038111913887_);}
	
		.st6{clip-path:url(#SVGID_00000165938876770276135070000011693841991156194444_);fill:url(#SVGID_00000122707900253943320270000014863027857762232755_);}
	
		.st7{clip-path:url(#SVGID_00000165938876770276135070000011693841991156194444_);mask:url(#SVGID_00000023967729854000424980000002566098561226424471_);fill:url(#SVGID_00000145058397862339752500000000857751060296316566_);}
	.st8{fill:none;}
	.st9{fill:#FFFFFF;}
	.st10{fill-rule:evenodd;clip-rule:evenodd;fill:#FFFFFF;}
	.st11{fill:#235FA9;}
	.st12{fill:#DE1617;}
	.st13{fill:#A7120B;}
	.st14{fill:#EABCAC;}
	.st15{fill:#FFFFFF;stroke:#FFFFFF;stroke-width:2.0007;stroke-miterlimit:10;}
	.st16{fill:#EA5B0C;}
	.st17{fill:#FF0000;}
	.st18{fill:#E89906;}
	.st19{fill:url(#SVGID_00000005258184769950116740000006472727455569387943_);}
	.st20{fill:#D6D5D4;}
	.st21{fill:#666462;}
	.st22{fill:none;stroke:#FFFFFF;stroke-width:5.1806;stroke-linecap:round;stroke-linejoin:round;stroke-miterlimit:10;}
	.st23{fill:none;stroke:#FFFFFF;stroke-width:4.8353;stroke-linecap:round;stroke-linejoin:round;stroke-miterlimit:10;}
</style>
<g>
	<g>
		<g>
			<defs>
				<path id="SVGID_1_" d="M455.65,275.78c0,8.42-6.82,15.24-15.24,15.24H23.72c-8.42,0-15.24-6.83-15.24-15.24V21.7
					c0-8.42,6.83-15.24,15.24-15.24h416.69c8.42,0,15.24,6.82,15.24,15.24V275.78z"/>
			</defs>
			<clipPath id="SVGID_00000052093008269961607880000009453004923145882256_">
				<use xlink:href="#SVGID_1_"  style="overflow:visible;"/>
			</clipPath>
			<path style="clip-path:url(#SVGID_00000052093008269961607880000009453004923145882256_);fill:#FF0000;" d="M22.62,291.02h417.96
				c8.33,0,15.07-6.75,15.07-15.07V21.52c0-8.33-6.75-15.07-15.07-15.07H22.62c-8.33,0-15.07,6.75-15.07,15.07v254.43
				C7.54,284.28,14.29,291.02,22.62,291.02z"/>
		</g>
		<g class="st1">
			<g>
				<defs>
					<path id="SVGID_00000098184352098265603980000005431094456454423987_" d="M322.55,103.01c1.46,3.18,1.59,8.11,0.06,11.79
						c-20.71-20.5-57.27-38.77-114.44-45.8c26.34,33.75-25.31,57.09-51.42,64.25c-53.82,14.64-51.65,69.9-8.78,84.74
						c16.37,5.94,35.56,7.82,68.11,10.65h0.24c-19.23-3.33-25.44-6.58-36.98-13.06c-25.09-12.79-24.83-54.11,26.52-62.63
						c34.2-7.92,47.05-21.73,36.98-50.1c56.62,21.36,81.31,45.13,87.45,61.78c12.86,30.49-7.27,58.92-73.02,63.99
						C425.21,228.38,395.1,123.49,322.55,103.01"/>
				</defs>
				<clipPath id="SVGID_00000035511149254944909120000006696044109198177199_">
					<use xlink:href="#SVGID_00000098184352098265603980000005431094456454423987_"  style="overflow:visible;"/>
				</clipPath>
				<defs>
					<filter id="Adobe_OpacityMaskFilter" filterUnits="userSpaceOnUse" x="33.79" y="-70.55" width="460.55" height="438.76">
						<feColorMatrix  type="matrix" values="1 0 0 0 0  0 1 0 0 0  0 0 1 0 0  0 0 0 1 0"/>
					</filter>
				</defs>
				
					<mask maskUnits="userSpaceOnUse" x="33.79" y="-70.55" width="460.55" height="438.76" id="SVGID_00000136374787120350998410000003633047877539095175_">
					<g class="st2">
						
							<radialGradient id="SVGID_00000103946260878215142570000014397259176624817055_" cx="-76.3944" cy="268.1286" r="1.7924" gradientTransform="matrix(-48.6571 -84.2765 -84.2765 48.6571 19137.8047 -19294.5059)" gradientUnits="userSpaceOnUse">
							<stop  offset="0" style="stop-color:#FFFFFF"/>
							<stop  offset="1" style="stop-color:#000000"/>
						</radialGradient>
						
							<polygon style="clip-path:url(#SVGID_00000035511149254944909120000006696044109198177199_);fill:url(#SVGID_00000103946260878215142570000014397259176624817055_);" points="
							183.49,368.21 33.79,108.92 344.64,-70.55 494.34,188.74 						"/>
					</g>
				</mask>
				
					<radialGradient id="SVGID_00000122708757984017747970000008718632484170132890_" cx="-76.3944" cy="268.1286" r="1.7924" gradientTransform="matrix(-48.6571 -84.2765 -84.2765 48.6571 19137.8047 -19294.5059)" gradientUnits="userSpaceOnUse">
					<stop  offset="0" style="stop-color:#FFFFFF"/>
					<stop  offset="1" style="stop-color:#FFFFFF"/>
				</radialGradient>
				
					<polygon style="clip-path:url(#SVGID_00000035511149254944909120000006696044109198177199_);mask:url(#SVGID_00000136374787120350998410000003633047877539095175_);fill:url(#SVGID_00000122708757984017747970000008718632484170132890_);" points="
					183.49,368.21 33.79,108.92 344.64,-70.55 494.34,188.74 				"/>
			</g>
			<g>
				<defs>
					<path id="SVGID_00000063608553165083355710000007586650344171422085_" d="M257.04,228.65c50.56-9.69,65.93-55.26-2.89-79.99
						c3.96,16.22-4.31,25.08-30.51,30.29c-32.44,8.5-35.58,41.7-7.18,49.7H257.04z"/>
				</defs>
				<clipPath id="SVGID_00000171694768330514405820000015977610565501347475_">
					<use xlink:href="#SVGID_00000063608553165083355710000007586650344171422085_"  style="overflow:visible;"/>
				</clipPath>
				<defs>
					
						<filter id="Adobe_OpacityMaskFilter_00000103969635241304479190000014267348623916901018_" filterUnits="userSpaceOnUse" x="153.43" y="90.24" width="204.19" height="196.82">
						<feColorMatrix  type="matrix" values="1 0 0 0 0  0 1 0 0 0  0 0 1 0 0  0 0 0 1 0"/>
					</filter>
				</defs>
				
					<mask maskUnits="userSpaceOnUse" x="153.43" y="90.24" width="204.19" height="196.82" id="SVGID_00000148627670486585947600000002122225711519751066_">
					<g style="filter:url(#Adobe_OpacityMaskFilter_00000103969635241304479190000014267348623916901018_);">
						
							<radialGradient id="SVGID_00000093875270126209044560000013151808875052143542_" cx="-76.3941" cy="268.1292" r="1.7907" gradientTransform="matrix(-48.6571 -84.2765 -84.2765 48.6571 19137.8047 -19294.5059)" gradientUnits="userSpaceOnUse">
							<stop  offset="0" style="stop-color:#FFFFFF"/>
							<stop  offset="1" style="stop-color:#000000"/>
						</radialGradient>
						
							<polygon style="clip-path:url(#SVGID_00000171694768330514405820000015977610565501347475_);fill:url(#SVGID_00000093875270126209044560000013151808875052143542_);" points="
							221.79,287.07 153.43,168.66 289.25,90.24 357.61,208.65 						"/>
					</g>
				</mask>
				
					<radialGradient id="SVGID_00000016790305831912720620000009525264210800330132_" cx="-76.3941" cy="268.1292" r="1.7907" gradientTransform="matrix(-48.6571 -84.2765 -84.2765 48.6571 19137.8047 -19294.5059)" gradientUnits="userSpaceOnUse">
					<stop  offset="0" style="stop-color:#FFFFFF"/>
					<stop  offset="1" style="stop-color:#FFFFFF"/>
				</radialGradient>
				
					<polygon style="clip-path:url(#SVGID_00000171694768330514405820000015977610565501347475_);mask:url(#SVGID_00000148627670486585947600000002122225711519751066_);fill:url(#SVGID_00000016790305831912720620000009525264210800330132_);" points="
					221.79,287.07 153.43,168.66 289.25,90.24 357.61,208.65 				"/>
			</g>
			<rect x="116.05" y="69.01" class="st8" width="264.54" height="159.64"/>
		</g>
		<path class="st8" d="M277.98,167.88"/>
		<g>
			<path class="st9" d="M389.56,88.77c0.19-0.87,0.08-1.13-0.31-1.13c-0.61,0-0.79,0.56-1.24,2.63c-0.44,2.07-0.49,2.63,0.12,2.63
				c0.49,0,0.69-0.43,1-1.88h1.93l-0.12,0.57c-0.46,2.15-1.83,2.67-3.11,2.67c-2.24,0-2.5-1.13-1.89-3.99
				c0.62-2.93,1.52-3.99,3.59-3.99c1.81,0,2.28,0.95,1.97,2.43l-0.11,0.48h-1.93L389.56,88.77z"/>
			<path class="st9" d="M392.23,88.3h1.87l-0.19,0.92h0.02c0.36-0.7,0.96-1.08,1.53-1.08h0.31l-0.39,1.81
				c-0.16-0.04-0.31-0.05-0.47-0.05c-0.69,0-1.14,0.27-1.3,1.03l-0.68,3.17h-1.93L392.23,88.3z"/>
			<path class="st9" d="M397.14,91.53l-0.16,0.76c-0.13,0.62,0.09,0.78,0.36,0.78c0.34,0,0.6-0.21,0.76-1.01h1.74
				c-0.15,0.7-0.44,1.25-0.89,1.62c-0.44,0.38-1.04,0.57-1.85,0.57c-1.87,0-2.29-0.84-1.83-3.05c0.47-2.23,1.39-3.06,3.13-3.06
				c1.55,0,2.18,0.69,1.74,2.79l-0.13,0.59H397.14z M398.48,90.22c0.13-0.61,0.07-0.89-0.34-0.89c-0.4,0-0.59,0.28-0.72,0.89
				l-0.05,0.26h1.06L398.48,90.22z M398.41,86.19h1.81l-1.37,1.57h-1.25L398.41,86.19z"/>
			<path class="st9" d="M404.49,86.44h1.94l-1.64,7.68h-1.87l0.17-0.79h-0.02c-0.38,0.64-0.84,0.95-1.53,0.95
				c-1.3,0-1.53-1.03-1.06-3.18c0.46-2.19,1.33-2.93,2.41-2.93c0.55,0,0.98,0.21,1.04,0.81h0.02L404.49,86.44z M402.6,92.82
				c0.44,0,0.61-0.36,0.87-1.61c0.27-1.26,0.25-1.62-0.2-1.62c-0.45,0-0.62,0.37-0.89,1.62C402.12,92.45,402.14,92.82,402.6,92.82z"
				/>
			<path class="st9" d="M406.86,88.3h1.94l-1.24,5.82h-1.94L406.86,88.3z M407.26,86.44h1.94l-0.31,1.44h-1.94L407.26,86.44z"/>
			<path class="st9" d="M409.24,88.3h0.65l0.36-1.71h1.94l-0.37,1.71h0.76l-0.28,1.3h-0.76l-0.59,2.77
				c-0.07,0.34,0.06,0.45,0.37,0.45h0.3l-0.28,1.29c-0.36,0.04-0.74,0.06-1.06,0.06c-1.18,0-1.6-0.19-1.33-1.48l0.66-3.1h-0.64
				L409.24,88.3z"/>
			<path class="st9" d="M414.03,94.26c-2.27,0-2.18-1.39-1.82-3.06c0.32-1.53,0.93-3.05,3.12-3.05c2.27,0,2.18,1.39,1.82,3.06
				C416.82,92.73,416.21,94.26,414.03,94.26z M414.3,93.01c0.44,0,0.6-0.35,0.91-1.81c0.32-1.47,0.29-1.82-0.15-1.82
				c-0.43,0-0.6,0.34-0.92,1.82C413.82,92.67,413.87,93.01,414.3,93.01z"/>
		</g>
		<g>
			<path class="st10" d="M169.75,51.72l0.93-3.2h2.21c1.64,0,4.09,0.18,3.71,1.52c-0.36,1.24-1.81,1.68-3.62,1.68H169.75z
				 M167.47,59.65l1.3-4.58h3.92c6.82,0,10.41-1.96,11.31-5.06c0.86-2.96-1.88-4.85-8.7-4.85h-11.43l-4.18,14.49H167.47z"/>
			<polygon class="st10" points="135.83,59.66 138.06,50.36 139.79,59.66 144.98,59.66 152.49,50.36 149.25,59.66 156.36,59.66 
				160.62,45.16 151.06,45.16 143.98,54.18 142.54,45.16 132.98,45.16 128.72,59.66 			"/>
			<path class="st10" d="M85.07,48.29c3.56-0.06,4.3,2.06,3.71,4.07c-0.71,2.43-2.6,4.23-6.07,4.23c-3.84,0-4.11-2.35-3.55-4.23
				C79.7,50.5,81.43,48.29,85.07,48.29 M86.19,44.69c-7.62,0-13.7,3-15.06,7.62c-1.47,5,2.83,7.86,10.52,7.86
				c7.25,0,13.69-2.82,15.15-7.82C97.94,48.48,94.94,44.69,86.19,44.69"/>
			<polygon class="st10" points="115.49,59.65 116.33,56.77 105.65,56.77 108.99,45.17 101.22,45.17 97.03,59.65 			"/>
			<polygon class="st10" points="125.3,59.65 129.49,45.17 121.72,45.17 117.53,59.65 			"/>
			<polygon class="st10" points="191.47,59.66 195.82,45.17 187.87,45.17 183.69,59.66 			"/>
			<path class="st10" d="M236.33,54.74h-5.06l4.02-5.16L236.33,54.74z M227.35,59.64l1.48-1.9h7.99l0.38,1.9h7.99l-4.46-14.47h-8.16
				L219.5,59.64H227.35z"/>
			<path class="st10" d="M221.95,50.64c0.48-3.75-3.18-5.96-10.93-5.96c-7.09,0-13.55,2.94-15,7.66c-1.45,4.75,2.72,7.71,11.1,7.71
				c6.7,0,12.08-2.27,13.98-6.04h-8c-0.74,1.4-2.34,2.47-5.02,2.47c-4.23,0-4.42-1.92-3.79-3.97c0.86-2.82,3.06-4.26,5.99-4.26
				c2.6,0,3.99,0.87,3.78,2.39H221.95z"/>
			<path class="st9" d="M47.13,61.76h-5.07c-4.07-0.35-6.46-0.59-8.51-1.33c-5.35-1.85-5.62-8.75,1.1-10.58
				c3.26-0.89,9.71-3.81,6.42-8.02c7.14,0.88,11.71,3.16,14.29,5.72c0.19-0.46,0.17-1.07-0.01-1.47
				C64.43,48.63,68.19,61.76,47.13,61.76"/>
			<path class="st11" d="M47.19,61.76c8.22-0.63,10.74-4.19,9.13-7.99c-0.77-2.08-3.85-5.05-10.92-7.71
				c1.26,3.54-0.35,5.27-4.62,6.26c-6.41,1.07-6.45,6.22-3.31,7.82c1.44,0.81,2.22,1.21,4.62,1.63H47.19z"/>
			<path class="st12" d="M47.18,61.76c6.31-1.21,8.23-6.9-0.36-9.99c0.5,2.03-0.54,3.13-3.81,3.78c-4.05,1.06-4.45,5.21-0.9,6.21
				H47.18z"/>
		</g>
		<path class="st8" d="M257.22,268.93"/>
		<path class="st13" d="M256.19,268.26"/>
		<path class="st9" d="M287.79,61.62c-2.24,0-4.24-0.53-5.94-1.59l-0.09-0.06l0.03-0.1c0.52-1.96,1.21-4.32,2.05-6.99l0.03-0.1h0.58
			l-0.01,0.15c-0.1,2.28,0.44,4.1,1.57,5.27c0.88,0.92,2.08,1.4,3.47,1.4c2.68,0,4.63-1.9,4.63-4.52c0-0.84-0.2-1.62-0.62-2.38
			c-0.41-0.81-0.76-1.35-1.1-1.7c-0.2-0.22-0.76-0.84-1.85-1.93c-0.74-0.7-1.29-1.29-1.77-1.81c-0.9-1.13-1.8-3.04-1.8-4.8
			c0-2.19,1.02-4.13,3.03-5.77c1.97-1.65,4.3-2.48,6.92-2.48c1.65,0,3.57,0.46,5.72,1.38l0.13,0.05l-0.05,0.13
			c-0.84,2.35-1.48,4.65-1.92,6.85l-0.02,0.12h-0.58V42.6c0-1.03-0.13-1.92-0.4-2.81c-0.49-1.77-2.07-3.55-4.48-3.55
			c-2.49,0-4.15,1.52-4.15,3.79c0,0.68,0.16,1.38,0.47,2.03c0.62,1.27,1.19,1.94,2.55,3.38c0.95,0.99,1.61,1.7,2.02,2.18
			c0.82,0.94,2.12,3.2,2.12,5.27c0,2.43-1.13,4.52-3.35,6.22C292.67,60.79,290.33,61.62,287.79,61.62"/>
		<path class="st9" d="M304.53,61.62c-2.95,0-4.72-1.9-4.72-5.08c0-2.94,1.17-5.77,3.49-8.41c2.36-2.64,4.92-3.99,7.62-3.99
			c2.18,0,3.44,1.06,3.44,2.92c0,3.13-3.32,6-9.88,8.53c0.06,1.92,0.76,2.85,2.14,2.85c1.37,0,2.85-1.08,4.43-3.19l0.09-0.13
			l0.43,0.36l-0.03,0.1C310.17,59.3,307.49,61.62,304.53,61.62 M309.63,45.51c-1.03,0-2.12,1.03-3.21,3.06
			c-1.06,1.93-1.7,3.87-1.89,5.76c1.38-0.68,2.74-1.75,4.02-3.19c1.33-1.49,2.01-2.99,2.01-4.44
			C310.57,46.11,310.25,45.51,309.63,45.51"/>
		<path class="st9" d="M318.34,61.42c-0.9,0-1.66-0.15-2.31-0.46l-0.11-0.05l0.03-0.12l3.49-12.33c0.15-0.5,0.17-0.85,0.04-1.02
			c-0.08-0.11-0.23-0.16-0.46-0.16c-0.91,0-2.13,0.78-3.63,2.33l-0.09,0.1l-0.43-0.36l0.05-0.1c0.69-1.29,1.77-2.47,3.21-3.5
			c1.43-1.06,2.85-1.59,4.22-1.59c0.85,0,1.49,0.27,1.85,0.77c0.44,0.6,0.47,1.53,0.09,2.68l-1.95,5.66l0.92-1.95l1.01-2.01
			c0.47-0.94,0.87-1.6,1.22-2.03c1.71-2.25,3.2-3.27,4.55-3.1h0.01c0.7,0,1.57,0.35,1.57,2.03c0,1.51-0.54,2.65-1.59,3.41L330,49.61
			l-0.42-0.01l-1.42-0.48c-1.01,0.01-2.03,0.59-3,1.72c-1.82,2.11-3.15,4.9-4.43,9.34C320.52,61,319.71,61.42,318.34,61.42"/>
		<g>
			<g>
				<path class="st14" d="M363.03,60.86h5.06v-10.8c0-4.04-1.85-6.09-5.48-6.09c-1.87,0-3.74,0.7-5.55,2.09l-0.16,0.13l-0.56-1.8
					h-4.32v16.47h5.06V49.6l0.06-0.04c0.99-0.78,2.33-1.27,3.49-1.27c2.11,0,2.41,1.62,2.41,3.37V60.86z"/>
				<path class="st14" d="M377.1,47.65c2.55,0,3.08,1.27,3.08,2.34v0.31l-2.8,0.11c-1.77,0.08-3.24,0.42-4.36,1.01
					c-1.86,0.98-2.72,2.4-2.72,4.44c0,3.1,2.34,5.34,5.56,5.34c1.77,0,3.23-0.55,4.58-1.73l0.14-0.12l0.79,1.5h4.12
					c-0.24-0.93-0.24-2.2-0.24-3.15V50.2c0-4.19-2.34-6.23-7.15-6.23c-2.38,0-4.58,0.51-6.71,1.55l1.54,3.11
					C374.11,48.02,375.7,47.65,377.1,47.65 M377.59,57.39c-1.42,0-2.23-0.68-2.23-1.88c0-0.73,0.25-1.21,0.81-1.57
					c0.46-0.29,1.14-0.45,2.05-0.48h0l1.96-0.07v3.35l-0.07,0.04C379.66,57.05,378.73,57.39,377.59,57.39"/>
				<path class="st14" d="M399.4,60.86h5.06v-10.8c0-4.04-1.85-6.09-5.49-6.09c-1.88,0-3.74,0.7-5.54,2.09l-0.16,0.13l-0.56-1.8
					h-4.32v16.47h5.06V49.6l0.05-0.04c1-0.78,2.33-1.27,3.49-1.27c2.11,0,2.41,1.62,2.41,3.37V60.86z"/>
				<polygon class="st14" points="406.2,60.86 420.61,60.86 420.61,57.04 413.46,57.04 420.65,44.39 406.59,44.39 407.58,48.21 
					413.46,48.21 				"/>
				<path class="st14" d="M428.59,47.68c2.55,0,3.08,1.27,3.08,2.34v0.31l-2.79,0.11c-1.77,0.07-3.24,0.41-4.37,1.01
					c-1.85,0.99-2.72,2.4-2.72,4.44c0,3.1,2.34,5.35,5.56,5.35c1.77,0,3.23-0.55,4.58-1.74l0.14-0.12l0.79,1.5h4.12
					c-0.24-0.93-0.24-2.21-0.24-3.15v-7.51c0-4.19-2.34-6.23-7.15-6.23c-2.39,0-4.58,0.51-6.71,1.55l1.54,3.11
					C425.61,48.05,427.2,47.68,428.59,47.68 M429.09,57.43c-1.42,0-2.23-0.69-2.23-1.88c0-0.73,0.25-1.21,0.81-1.57
					c0.47-0.29,1.14-0.45,2.05-0.48l1.96-0.08v3.34l-0.07,0.04C431.15,57.09,430.22,57.43,429.09,57.43"/>
				<rect x="343.86" y="44.39" class="st14" width="5.06" height="16.47"/>
				<path class="st14" d="M346.31,36.28c-1.38,0-2.46,1.03-2.46,2.35c0,1.36,1.06,2.38,2.46,2.38c1.36,0,2.47-1.07,2.47-2.38
					C348.78,37.29,347.72,36.28,346.31,36.28"/>
				<path class="st14" d="M338.51,41.66c0.82-0.68,2-0.7,2.52-0.66v-4.75c-1.31-0.04-3.67,0.15-5.64,1.75
					c-1.97,1.59-2.97,4.05-2.97,7.3v15.51h4.9V48.53h3.71v-4.14h-3.67C337.47,43.37,337.76,42.28,338.51,41.66"/>
			</g>
		</g>
		<path class="st9" d="M354.09,35.65c0.12,0,0.24,0,0.38,0c0.14,0,0.27,0.01,0.4,0.02c0.13,0.01,0.26,0.03,0.37,0.06
			c0.12,0.03,0.21,0.06,0.3,0.12c0.18,0.11,0.33,0.25,0.46,0.44c0.13,0.19,0.19,0.42,0.19,0.7c0,0.29-0.07,0.54-0.21,0.76
			c-0.14,0.21-0.34,0.37-0.6,0.47v0.01c0.34,0.07,0.6,0.22,0.77,0.46c0.18,0.24,0.27,0.52,0.27,0.86c0,0.2-0.04,0.39-0.11,0.58
			c-0.07,0.19-0.18,0.36-0.32,0.5c-0.14,0.15-0.32,0.26-0.52,0.35c-0.21,0.09-0.45,0.13-0.72,0.13h-2.65v-5.48H354.09z M354.29,38
			c0.41,0,0.71-0.07,0.89-0.22c0.18-0.15,0.27-0.36,0.27-0.66c0-0.19-0.03-0.35-0.09-0.46c-0.06-0.11-0.15-0.2-0.26-0.26
			c-0.11-0.06-0.23-0.1-0.37-0.12c-0.14-0.02-0.29-0.03-0.45-0.03h-1.46V38H354.29z M354.65,40.51c0.32,0,0.58-0.09,0.76-0.26
			c0.18-0.18,0.27-0.42,0.27-0.72c0-0.18-0.03-0.33-0.1-0.45c-0.06-0.12-0.15-0.21-0.27-0.28c-0.11-0.07-0.23-0.12-0.38-0.15
			c-0.14-0.03-0.29-0.04-0.44-0.04h-1.67v1.9H354.65z"/>
		<path class="st9" d="M360.77,41.11c-0.11,0.07-0.27,0.1-0.47,0.1c-0.17,0-0.3-0.05-0.4-0.14c-0.1-0.09-0.15-0.25-0.15-0.46
			c-0.18,0.22-0.39,0.37-0.62,0.46c-0.24,0.09-0.5,0.14-0.77,0.14c-0.18,0-0.35-0.02-0.51-0.06c-0.16-0.04-0.3-0.11-0.42-0.19
			c-0.12-0.09-0.21-0.2-0.28-0.34c-0.07-0.14-0.1-0.31-0.1-0.51c0-0.22,0.04-0.41,0.12-0.55c0.07-0.14,0.18-0.26,0.3-0.35
			c0.13-0.09,0.27-0.16,0.43-0.2c0.16-0.05,0.33-0.08,0.49-0.11c0.18-0.04,0.35-0.06,0.51-0.08c0.16-0.02,0.3-0.04,0.43-0.08
			c0.12-0.03,0.22-0.08,0.29-0.15c0.07-0.06,0.11-0.16,0.11-0.28c0-0.14-0.03-0.26-0.08-0.34c-0.05-0.09-0.12-0.15-0.21-0.2
			c-0.08-0.05-0.18-0.08-0.28-0.09c-0.11-0.01-0.21-0.02-0.31-0.02c-0.28,0-0.51,0.05-0.69,0.16c-0.19,0.11-0.29,0.3-0.3,0.6h-0.65
			c0.01-0.25,0.06-0.45,0.15-0.62c0.09-0.17,0.21-0.3,0.36-0.41c0.16-0.11,0.33-0.18,0.53-0.22c0.2-0.05,0.41-0.07,0.64-0.07
			c0.18,0,0.36,0.01,0.53,0.04c0.18,0.03,0.34,0.08,0.48,0.16c0.14,0.08,0.26,0.19,0.35,0.33c0.09,0.14,0.13,0.33,0.13,0.56v2.04
			c0,0.15,0.01,0.27,0.03,0.34c0.02,0.07,0.08,0.11,0.18,0.11c0.06,0,0.12-0.01,0.2-0.03V41.11z M359.71,39.08
			c-0.08,0.06-0.19,0.11-0.32,0.13c-0.13,0.03-0.27,0.05-0.42,0.07c-0.14,0.02-0.29,0.04-0.44,0.06c-0.15,0.02-0.28,0.06-0.4,0.11
			c-0.12,0.05-0.21,0.12-0.29,0.22c-0.08,0.09-0.11,0.22-0.11,0.39c0,0.11,0.02,0.2,0.07,0.27c0.04,0.07,0.1,0.13,0.17,0.18
			c0.07,0.05,0.15,0.08,0.24,0.1c0.09,0.02,0.19,0.03,0.29,0.03c0.21,0,0.4-0.03,0.55-0.09c0.15-0.06,0.28-0.13,0.38-0.22
			c0.1-0.09,0.17-0.19,0.21-0.29c0.05-0.11,0.07-0.2,0.07-0.3V39.08z"/>
		<path class="st9" d="M361.99,37.16v0.63h0.02c0.27-0.48,0.7-0.72,1.29-0.72c0.26,0,0.48,0.03,0.65,0.11
			c0.17,0.07,0.32,0.17,0.42,0.3c0.11,0.13,0.19,0.28,0.23,0.46c0.04,0.18,0.06,0.37,0.06,0.59v2.61h-0.65v-2.69
			c0-0.25-0.07-0.44-0.21-0.58c-0.14-0.14-0.34-0.22-0.59-0.22c-0.2,0-0.37,0.03-0.52,0.09c-0.15,0.06-0.27,0.15-0.36,0.26
			c-0.1,0.11-0.17,0.24-0.22,0.39c-0.05,0.15-0.07,0.32-0.07,0.5v2.24h-0.65v-3.97H361.99z"/>
		<path class="st9" d="M368.02,37.85c-0.16-0.14-0.38-0.21-0.66-0.21c-0.24,0-0.43,0.04-0.59,0.13c-0.16,0.09-0.29,0.2-0.38,0.35
			c-0.09,0.14-0.16,0.31-0.2,0.5c-0.04,0.19-0.06,0.38-0.06,0.58c0,0.19,0.02,0.36,0.06,0.54c0.04,0.17,0.11,0.33,0.2,0.46
			c0.09,0.14,0.21,0.25,0.36,0.33c0.15,0.08,0.32,0.12,0.53,0.12c0.32,0,0.57-0.08,0.75-0.25c0.18-0.17,0.3-0.41,0.33-0.71h0.67
			c-0.08,0.49-0.26,0.87-0.55,1.14c-0.29,0.27-0.69,0.4-1.2,0.4c-0.3,0-0.57-0.05-0.8-0.15c-0.23-0.09-0.43-0.23-0.58-0.41
			c-0.16-0.18-0.27-0.39-0.36-0.64c-0.08-0.25-0.12-0.52-0.12-0.82c0-0.3,0.04-0.57,0.12-0.83c0.08-0.26,0.19-0.49,0.35-0.68
			c0.15-0.19,0.35-0.34,0.58-0.45c0.24-0.11,0.51-0.17,0.82-0.17c0.23,0,0.44,0.03,0.64,0.08c0.2,0.05,0.37,0.14,0.52,0.25
			c0.15,0.11,0.27,0.26,0.37,0.43c0.1,0.17,0.16,0.37,0.18,0.61h-0.67C368.29,38.18,368.19,37.99,368.02,37.85"/>
		<path class="st9" d="M369.68,38.33c0.08-0.25,0.21-0.47,0.37-0.66c0.16-0.19,0.37-0.33,0.61-0.44c0.24-0.11,0.52-0.16,0.83-0.16
			c0.32,0,0.6,0.05,0.84,0.16c0.24,0.11,0.44,0.26,0.6,0.44c0.17,0.19,0.29,0.41,0.37,0.66c0.08,0.25,0.12,0.53,0.12,0.82
			c0,0.29-0.04,0.56-0.12,0.81c-0.08,0.25-0.2,0.47-0.37,0.66c-0.16,0.19-0.36,0.34-0.6,0.44s-0.52,0.16-0.84,0.16
			c-0.31,0-0.59-0.05-0.83-0.16c-0.24-0.1-0.44-0.25-0.61-0.44c-0.16-0.19-0.29-0.4-0.37-0.66c-0.08-0.25-0.12-0.52-0.12-0.81
			C369.55,38.86,369.6,38.58,369.68,38.33 M370.34,39.79c0.06,0.19,0.15,0.34,0.26,0.47c0.11,0.13,0.25,0.22,0.4,0.29
			c0.15,0.07,0.31,0.1,0.48,0.1c0.17,0,0.33-0.03,0.48-0.1c0.15-0.07,0.28-0.16,0.4-0.29c0.11-0.12,0.2-0.28,0.26-0.47
			c0.07-0.19,0.1-0.4,0.1-0.64c0-0.24-0.03-0.45-0.1-0.64c-0.06-0.19-0.15-0.35-0.26-0.47c-0.11-0.13-0.25-0.23-0.4-0.29
			c-0.15-0.07-0.31-0.1-0.48-0.1c-0.17,0-0.33,0.03-0.48,0.1c-0.15,0.07-0.28,0.16-0.4,0.29c-0.11,0.13-0.2,0.29-0.26,0.47
			c-0.07,0.19-0.1,0.4-0.1,0.64C370.24,39.39,370.28,39.6,370.34,39.79"/>
		<line class="st15" x1="265.82" y1="29.25" x2="265.82" y2="70.51"/>
		<g id="XMLID_00000039127398655967010100000004734927010006958227_">
			<path class="st9" d="M429.17,226.02c-5.84-5.84-13.61-9.06-21.88-9.06c-3.53,0-6.99,0.59-10.29,1.75
				c-2.59,0.91-5.03,2.16-7.28,3.72c-2.25-1.56-4.7-2.81-7.28-3.72c-3.3-1.16-6.76-1.75-10.29-1.75c-8.26,0-16.03,3.22-21.88,9.06
				c-5.84,5.84-9.06,13.61-9.06,21.88c0,8.26,3.22,16.04,9.06,21.88c5.84,5.84,13.61,9.06,21.88,9.06c3.53,0,6.99-0.59,10.29-1.75
				c2.59-0.91,5.03-2.16,7.28-3.72c2.25,1.56,4.7,2.81,7.28,3.72c3.3,1.16,6.76,1.75,10.29,1.75c8.26,0,16.03-3.22,21.88-9.06
				c5.84-5.84,9.06-13.61,9.06-21.88S435.01,231.87,429.17,226.02z"/>
			<rect x="377.27" y="225.54" class="st16" width="24.89" height="44.73"/>
			<path id="XMLID_00000143615648923936500160000007442932643121252267_" class="st17" d="M378.85,247.9
				c0-9.07,4.25-17.15,10.86-22.36c-4.84-3.81-10.94-6.08-17.58-6.08c-15.71,0-28.44,12.74-28.44,28.44
				c0,15.71,12.73,28.44,28.44,28.44c6.64,0,12.74-2.27,17.58-6.08C383.09,265.06,378.85,256.98,378.85,247.9z"/>
			<path class="st9" d="M435.05,266.54v-2.06h0.83v-0.42h-2.12v0.42h0.83v2.06H435.05z M439.16,266.54v-2.49h-0.65l-0.75,1.71
				l-0.75-1.71h-0.65v2.49h0.46v-1.88l0.7,1.62H438l0.7-1.62v1.88H439.16z"/>
			<path class="st18" d="M435.73,247.9c0,15.71-12.73,28.44-28.44,28.44c-6.64,0-12.74-2.27-17.58-6.08
				c6.62-5.21,10.86-13.29,10.86-22.36s-4.25-17.15-10.86-22.36c4.84-3.81,10.94-6.08,17.58-6.08
				C423,219.46,435.73,232.19,435.73,247.9z"/>
		</g>
		<g>
			
				<linearGradient id="SVGID_00000052095341609630577260000013376667128166967725_" gradientUnits="userSpaceOnUse" x1="57.8543" y1="117.8693" x2="118.223" y2="117.8693">
				<stop  offset="0" style="stop-color:#ADABA7"/>
				<stop  offset="0.0205" style="stop-color:#AFADA9"/>
				<stop  offset="0.0313" style="stop-color:#B6B4B1"/>
				<stop  offset="0.0398" style="stop-color:#C3C1BF"/>
				<stop  offset="0.0466" style="stop-color:#D3D1D0"/>
				<stop  offset="0.7042" style="stop-color:#848280"/>
			</linearGradient>
			<path style="fill:url(#SVGID_00000052095341609630577260000013376667128166967725_);" d="M109.21,141.05H66.87
				c-4.98,0-9.01-4.04-9.01-9.01V103.7c0-4.98,4.04-9.01,9.01-9.01h42.34c4.98,0,9.01,4.04,9.01,9.01v28.34
				C118.22,137.02,114.19,141.05,109.21,141.05z"/>
			<path class="st20" d="M110.15,95.49H65.93c-4.6,0-8.35,3.75-8.35,8.35v30.21c0,4.6,3.75,8.35,8.35,8.35h44.22
				c4.6,0,8.35-3.75,8.35-8.35v-30.21C118.49,99.23,114.75,95.49,110.15,95.49z M117.95,103.83v8.91H95.57v13.46
				c-0.38,0.12-1.61,0.54-2.87,1.37c-1.97,1.3-3.01,2.97-3.01,4.84c0,2.56,2.01,4.16,3.96,5.7c1.4,1.11,2.83,2.25,3.53,3.73H77.9
				c0.8-1.1,1.88-1.89,2.92-2.67c2.02-1.49,4.11-3.03,4.11-6.69c0-1.86-0.52-3.29-1.54-4.25c-1.23-1.16-2.8-1.27-3.32-1.28v-13.93
				c0.79-0.26,5.22-1.88,5.22-5.99c0-2.42-2.14-4.47-4.21-6.46c-1.65-1.58-3.21-3.08-3.38-4.54h19.82c-0.28,0.9-1.42,3.67-5.29,6.01
				c-1.16,0.75-1.87,2.52-2.13,5.27c-0.19,2.02-0.05,3.85-0.05,3.87l0.32-0.03c-0.01-0.07-0.54-7.18,2.03-8.84
				c4.13-2.5,5.22-5.43,5.45-6.28h12.29C114.45,96.03,117.95,99.53,117.95,103.83z M117.95,126.16H95.89v-13.1h22.06V126.16z
				 M65.93,96.03h11.45c0.17,1.59,1.78,3.14,3.48,4.77c2.02,1.94,4.11,3.95,4.11,6.23c0,4.08-4.66,5.58-5.07,5.71H58.13v-8.91
				C58.13,99.53,61.63,96.03,65.93,96.03z M58.13,113.07h21.63v13.89H58.13V113.07z M58.13,134.04v-6.76h21.95v0
				c0.48,0.01,1.97,0.12,3.1,1.19c0.95,0.9,1.43,2.25,1.43,4.02c0,3.5-1.93,4.92-3.98,6.43c-1.13,0.83-2.29,1.69-3.13,2.93H65.93
				C61.63,141.85,58.13,138.35,58.13,134.04z M110.15,141.85H97.53c-0.7-1.62-2.21-2.82-3.68-3.99c-1.97-1.56-3.84-3.04-3.84-5.45
				c0-4.12,5.36-5.82,5.74-5.93h22.2v7.56C117.95,138.35,114.45,141.85,110.15,141.85z"/>
			<path class="st21" d="M110.15,94.69H65.93c-4.6,0-8.35,3.75-8.35,8.35v30.21c0,4.6,3.75,8.35,8.35,8.35h44.22
				c4.6,0,8.35-3.75,8.35-8.35v-30.21C118.49,98.43,114.75,94.69,110.15,94.69z M117.95,103.04v8.91H95.57v13.46
				c-0.38,0.12-1.61,0.54-2.87,1.37c-1.97,1.3-3.01,2.97-3.01,4.84c0,2.56,2.01,4.16,3.96,5.7c1.4,1.11,2.83,2.25,3.53,3.73H77.9
				c0.8-1.1,1.88-1.89,2.92-2.67c2.02-1.49,4.11-3.03,4.11-6.69c0-1.86-0.52-3.29-1.54-4.25c-1.23-1.16-2.8-1.27-3.32-1.28v-13.93
				c0.79-0.26,5.22-1.88,5.22-5.99c0-2.42-2.14-4.47-4.21-6.46c-1.65-1.58-3.21-3.08-3.38-4.54h19.82c-0.28,0.9-1.42,3.67-5.29,6.01
				c-1.16,0.75-1.87,2.52-2.13,5.27c-0.19,2.02-0.05,3.85-0.05,3.87l0.32-0.03c-0.01-0.07-0.54-7.18,2.03-8.84
				c4.13-2.5,5.22-5.43,5.45-6.28h12.29C114.45,95.23,117.95,98.73,117.95,103.04z M117.95,125.37H95.89v-13.1h22.06V125.37z
				 M65.93,95.23h11.45c0.17,1.59,1.78,3.14,3.48,4.77c2.02,1.94,4.11,3.95,4.11,6.23c0,4.08-4.66,5.58-5.07,5.71H58.13v-8.91
				C58.13,98.73,61.63,95.23,65.93,95.23z M58.13,112.27h21.63v13.89H58.13V112.27z M58.13,133.25v-6.76h21.95v0
				c0.48,0.01,1.97,0.12,3.1,1.19c0.95,0.9,1.43,2.25,1.43,4.02c0,3.5-1.93,4.92-3.98,6.43c-1.13,0.83-2.29,1.69-3.13,2.93H65.93
				C61.63,141.05,58.13,137.55,58.13,133.25z M110.15,141.05H97.53c-0.7-1.62-2.21-2.82-3.68-3.99c-1.97-1.56-3.84-3.04-3.84-5.45
				c0-4.12,5.36-5.82,5.74-5.93h22.2v7.56C117.95,137.55,114.45,141.05,110.15,141.05z"/>
		</g>
		<g>
			<path class="st9" d="M206.27,275.55v-7.16h4.36v1.21h-3.18v1.59h2.95v1.21h-2.95v1.94h3.28v1.21H206.27z"/>
			<path class="st9" d="M211.13,275.55v-7.16h1.13v7.16H211.13z"/>
			<path class="st9" d="M215.28,273.91l1.12,0.23c-0.15,0.52-0.38,0.91-0.7,1.16c-0.32,0.25-0.7,0.38-1.15,0.38
				c-0.63,0-1.12-0.21-1.46-0.63c-0.4-0.49-0.61-1.17-0.61-2.06c0-0.87,0.2-1.56,0.61-2.08c0.35-0.44,0.79-0.66,1.34-0.66
				c0.61,0,1.09,0.23,1.43,0.68c0.4,0.52,0.6,1.28,0.6,2.28l0,0.16h-2.82c0.01,0.41,0.1,0.73,0.28,0.96
				c0.18,0.23,0.39,0.34,0.64,0.34C214.92,274.65,215.16,274.4,215.28,273.91z M215.34,272.52c-0.01-0.41-0.1-0.71-0.26-0.91
				c-0.16-0.2-0.36-0.31-0.58-0.31c-0.24,0-0.44,0.11-0.6,0.32c-0.17,0.22-0.25,0.52-0.24,0.9H215.34z"/>
			<path class="st9" d="M220.48,271.9l-1.11,0.24c-0.08-0.54-0.34-0.82-0.77-0.82c-0.28,0-0.5,0.12-0.67,0.35
				c-0.17,0.24-0.26,0.63-0.26,1.19c0,0.62,0.08,1.05,0.25,1.31c0.17,0.25,0.4,0.38,0.68,0.38c0.21,0,0.39-0.07,0.52-0.22
				c0.14-0.14,0.24-0.4,0.29-0.77l1.11,0.23c-0.23,1.25-0.88,1.88-1.97,1.88c-0.69,0-1.21-0.26-1.54-0.79
				c-0.34-0.53-0.5-1.16-0.5-1.91c0-0.89,0.19-1.57,0.57-2.03c0.38-0.46,0.88-0.7,1.49-0.7c0.5,0,0.91,0.13,1.22,0.4
				C220.12,270.9,220.35,271.32,220.48,271.9z"/>
			<path class="st9" d="M222.68,270.37v1.09h-0.77v2.09c0,0.45,0.01,0.72,0.03,0.79c0.05,0.13,0.14,0.2,0.28,0.2
				c0.1,0,0.25-0.04,0.45-0.13l0.1,1.06c-0.26,0.14-0.56,0.21-0.88,0.21c-0.29,0-0.52-0.07-0.69-0.21
				c-0.17-0.14-0.29-0.33-0.35-0.59c-0.05-0.19-0.07-0.57-0.07-1.15v-2.26h-0.52v-1.09h0.52v-1.03l1.13-0.8v1.83H222.68z"/>
			<path class="st9" d="M223.94,275.55h-1.13v-5.19h1.05v0.74c0.18-0.35,0.34-0.57,0.48-0.69c0.14-0.11,0.31-0.17,0.49-0.17
				c0.26,0,0.5,0.09,0.74,0.26l-0.35,1.2c-0.19-0.15-0.36-0.22-0.53-0.22c-0.16,0-0.29,0.06-0.41,0.17
				c-0.12,0.12-0.2,0.33-0.26,0.63c-0.05,0.3-0.08,0.86-0.08,1.67V275.55z"/>
			<path class="st9" d="M225.19,272.89c0-0.51,0.1-0.97,0.3-1.39c0.2-0.42,0.47-0.73,0.79-0.94c0.33-0.21,0.69-0.31,1.1-0.31
				c0.68,0,1.22,0.27,1.61,0.81c0.39,0.54,0.59,1.16,0.59,1.88c0,0.54-0.1,1.02-0.31,1.45c-0.2,0.43-0.47,0.75-0.8,0.97
				c-0.33,0.22-0.69,0.33-1.09,0.33c-0.63,0-1.16-0.24-1.57-0.72C225.4,274.47,225.19,273.78,225.19,272.89z M226.34,272.96
				c0,0.53,0.1,0.92,0.31,1.19c0.21,0.27,0.45,0.4,0.74,0.4c0.28,0,0.53-0.14,0.73-0.41c0.2-0.27,0.3-0.67,0.3-1.2
				c0-0.52-0.1-0.91-0.31-1.18s-0.45-0.41-0.74-0.41c-0.28,0-0.53,0.14-0.73,0.41C226.44,272.04,226.34,272.44,226.34,272.96z"/>
			<path class="st9" d="M233.73,275.55h-1.13v-2.65c0-0.53-0.02-0.89-0.06-1.06c-0.04-0.18-0.12-0.31-0.24-0.41
				c-0.12-0.09-0.25-0.14-0.39-0.14c-0.19,0-0.36,0.06-0.51,0.18c-0.15,0.12-0.26,0.29-0.32,0.51c-0.06,0.22-0.09,0.62-0.09,1.22
				v2.35h-1.13v-5.19h1.05v0.76c0.19-0.29,0.39-0.51,0.63-0.66c0.23-0.15,0.49-0.22,0.77-0.22c0.33,0,0.61,0.09,0.83,0.26
				c0.23,0.17,0.38,0.39,0.47,0.66c0.09,0.27,0.13,0.66,0.13,1.17V275.55z"/>
			<path class="st9" d="M234.28,269.66v-1.27h1.13v1.27H234.28z M234.28,275.55v-5.19h1.13v5.19H234.28z"/>
			<path class="st9" d="M239.67,271.9l-1.11,0.24c-0.08-0.54-0.34-0.82-0.77-0.82c-0.28,0-0.5,0.12-0.67,0.35
				c-0.17,0.24-0.26,0.63-0.26,1.19c0,0.62,0.08,1.05,0.25,1.31c0.17,0.25,0.4,0.38,0.68,0.38c0.21,0,0.39-0.07,0.52-0.22
				c0.14-0.14,0.24-0.4,0.29-0.77l1.11,0.23c-0.23,1.25-0.88,1.88-1.97,1.88c-0.69,0-1.21-0.26-1.54-0.79
				c-0.34-0.53-0.5-1.16-0.5-1.91c0-0.89,0.19-1.57,0.57-2.03c0.38-0.46,0.88-0.7,1.49-0.7c0.5,0,0.91,0.13,1.22,0.4
				C239.31,270.9,239.53,271.32,239.67,271.9z"/>
			<path class="st9" d="M241.6,268.39h1.18v3.88c0,0.6,0.01,1,0.04,1.18c0.05,0.32,0.18,0.56,0.37,0.73
				c0.2,0.17,0.46,0.26,0.78,0.26c0.27,0,0.5-0.06,0.67-0.18c0.17-0.12,0.29-0.29,0.36-0.51c0.06-0.22,0.1-0.68,0.1-1.39v-3.96h1.18
				v3.76c0,0.96-0.05,1.66-0.15,2.08c-0.1,0.43-0.33,0.78-0.69,1.04c-0.36,0.27-0.83,0.4-1.42,0.4c-0.61,0-1.09-0.11-1.43-0.33
				c-0.34-0.22-0.59-0.53-0.75-0.93c-0.15-0.4-0.23-1.13-0.23-2.21V268.39z"/>
			<path class="st9" d="M246.53,274.08l1.13-0.21c0.1,0.54,0.4,0.82,0.91,0.82c0.27,0,0.47-0.05,0.61-0.16
				c0.13-0.1,0.2-0.24,0.2-0.41c0-0.11-0.03-0.2-0.09-0.27c-0.06-0.07-0.18-0.12-0.37-0.17c-0.92-0.25-1.51-0.48-1.76-0.7
				c-0.31-0.28-0.47-0.66-0.47-1.14s0.15-0.87,0.46-1.16c0.31-0.29,0.75-0.44,1.33-0.44c0.56,0,0.98,0.11,1.27,0.32
				s0.49,0.57,0.61,1.05l-1.06,0.24c-0.09-0.42-0.36-0.63-0.8-0.63c-0.28,0-0.47,0.04-0.59,0.12c-0.12,0.08-0.18,0.18-0.18,0.31
				c0,0.11,0.05,0.21,0.16,0.28c0.11,0.08,0.44,0.2,1,0.35c0.63,0.18,1.05,0.39,1.28,0.64c0.22,0.25,0.33,0.58,0.33,1
				c0,0.5-0.17,0.92-0.52,1.24c-0.34,0.33-0.82,0.49-1.42,0.49c-0.55,0-1-0.14-1.35-0.41C246.87,275,246.64,274.6,246.53,274.08z"/>
			<path class="st9" d="M253.36,273.91l1.12,0.23c-0.15,0.52-0.38,0.91-0.7,1.16c-0.32,0.25-0.7,0.38-1.15,0.38
				c-0.63,0-1.12-0.21-1.46-0.63c-0.4-0.49-0.61-1.17-0.61-2.06c0-0.87,0.2-1.56,0.61-2.08c0.35-0.44,0.79-0.66,1.34-0.66
				c0.61,0,1.09,0.23,1.43,0.68c0.4,0.52,0.6,1.28,0.6,2.28l0,0.16h-2.82c0.01,0.41,0.1,0.73,0.28,0.96
				c0.18,0.23,0.39,0.34,0.64,0.34C252.99,274.65,253.24,274.4,253.36,273.91z M253.42,272.52c-0.01-0.41-0.1-0.71-0.26-0.91
				c-0.16-0.2-0.36-0.31-0.58-0.31c-0.24,0-0.44,0.11-0.6,0.32c-0.17,0.22-0.25,0.52-0.24,0.9H253.42z"/>
			<path class="st9" d="M256.29,272.02c0-0.85,0.13-1.56,0.38-2.11c0.25-0.55,0.58-0.96,0.99-1.23c0.41-0.27,0.9-0.41,1.48-0.41
				c0.84,0,1.52,0.32,2.05,0.96c0.53,0.64,0.79,1.56,0.79,2.74c0,1.2-0.28,2.13-0.84,2.81c-0.49,0.6-1.16,0.89-2,0.89
				c-0.85,0-1.52-0.29-2.01-0.88C256.57,274.12,256.29,273.19,256.29,272.02z M257.51,271.97c0,0.82,0.16,1.44,0.47,1.85
				c0.31,0.41,0.7,0.62,1.16,0.62c0.47,0,0.85-0.2,1.16-0.61c0.31-0.41,0.46-1.04,0.46-1.88c0-0.83-0.15-1.44-0.45-1.84
				c-0.3-0.4-0.69-0.6-1.17-0.6c-0.48,0-0.88,0.2-1.18,0.6C257.67,270.51,257.51,271.13,257.51,271.97z"/>
			<path class="st9" d="M266.18,275.55h-1.13v-2.65c0-0.53-0.02-0.89-0.06-1.06c-0.04-0.18-0.12-0.31-0.24-0.41
				s-0.25-0.14-0.39-0.14c-0.19,0-0.36,0.06-0.51,0.18c-0.15,0.12-0.26,0.29-0.32,0.51s-0.09,0.62-0.09,1.22v2.35h-1.13v-5.19h1.05
				v0.76c0.19-0.29,0.39-0.51,0.63-0.66c0.23-0.15,0.49-0.22,0.77-0.22c0.33,0,0.61,0.09,0.83,0.26c0.23,0.17,0.38,0.39,0.47,0.66
				c0.09,0.27,0.13,0.66,0.13,1.17V275.55z"/>
			<path class="st9" d="M266.72,275.55v-7.16h1.13v7.16H266.72z"/>
			<path class="st9" d="M267.87,270.37h1.2l1.01,3.68l0.99-3.68h1.17l-1.5,4.99l-0.29,0.97c-0.13,0.36-0.25,0.63-0.38,0.8
				c-0.13,0.17-0.29,0.3-0.48,0.39c-0.19,0.09-0.43,0.14-0.72,0.14c-0.22,0-0.43-0.03-0.64-0.08l-0.1-1.07
				c0.18,0.04,0.33,0.06,0.47,0.06c0.21,0,0.39-0.07,0.53-0.21c0.14-0.14,0.25-0.4,0.34-0.78L267.87,270.37z"/>
		</g>
		<g>
			<g>
				<path class="st9" d="M179.8,219.97h-1.71V219h4.53v0.97h-1.68v6.21h-1.15V219.97z"/>
				<path class="st9" d="M183.08,219h1.15v2.88h2.11V219h1.15v7.18h-1.15v-3.34h-2.11v3.34h-1.15V219z"/>
				<path class="st9" d="M188.47,219H191c1.01,0,1.82,0.5,1.82,1.85c0,0.92-0.41,1.64-1.2,1.76v0.02c0.71,0.07,1.09,0.46,1.13,1.47
					c0.01,0.46,0.02,1.03,0.04,1.46c0.02,0.35,0.19,0.52,0.34,0.62h-1.3c-0.11-0.13-0.16-0.35-0.19-0.63
					c-0.04-0.43-0.03-0.83-0.05-1.36c-0.02-0.78-0.26-1.13-1.05-1.13h-0.93v3.12h-1.15V219z M190.53,222.2
					c0.73,0,1.15-0.44,1.15-1.17c0-0.76-0.33-1.17-1.09-1.17h-0.98v2.33H190.53z"/>
				<path class="st9" d="M194.72,219v5.15c0,0.9,0.36,1.31,1.06,1.31c0.68,0,1.05-0.4,1.05-1.31V219h1.15v5.06
					c0,1.66-0.82,2.26-2.19,2.26c-1.38,0-2.2-0.6-2.2-2.26V219H194.72z"/>
			</g>
			<g>
				<path class="st9" d="M177.53,207.4h1.22l1.22,5.73h0.02l1.29-5.73h1.22l-1.81,7.18h-1.46L177.53,207.4z"/>
				<path class="st9" d="M183.81,207.4h1.47l1.89,7.18h-1.2l-0.44-1.76h-2.1l-0.46,1.76h-1.2L183.81,207.4z M185.34,211.9
					l-0.82-3.54h-0.02l-0.85,3.54H185.34z"/>
				<path class="st9" d="M187.34,207.4h1.15v6.21h2.77v0.97h-3.92V207.4z"/>
				<path class="st9" d="M191.68,207.4h1.15v7.18h-1.15V207.4z"/>
				<path class="st9" d="M193.76,207.4h2.04c2.25,0,2.53,1.47,2.53,3.59s-0.28,3.59-2.53,3.59h-2.04V207.4z M194.91,213.71h0.95
					c0.95,0,1.34-0.62,1.34-2.72c0-2.02-0.34-2.72-1.34-2.72h-0.95V213.71z"/>
			</g>
		</g>
		<g>
			<path class="st9" d="M50.5,202.53l1.56-0.16c0.04,0.35,0.18,0.63,0.4,0.84c0.22,0.21,0.47,0.31,0.76,0.31
				c0.33,0,0.6-0.13,0.83-0.4c0.23-0.27,0.34-0.66,0.34-1.2c0-0.5-0.11-0.88-0.34-1.13c-0.22-0.25-0.52-0.38-0.88-0.38
				c-0.45,0-0.85,0.2-1.21,0.6l-1.27-0.18l0.8-4.25h4.13v1.46h-2.95l-0.24,1.39c0.35-0.17,0.7-0.26,1.07-0.26
				c0.69,0,1.28,0.25,1.76,0.76c0.48,0.5,0.72,1.16,0.72,1.96c0,0.67-0.19,1.27-0.58,1.8c-0.53,0.72-1.27,1.08-2.21,1.08
				c-0.75,0-1.37-0.2-1.84-0.61C50.88,203.76,50.6,203.22,50.5,202.53z"/>
			<path class="st9" d="M60.11,204.63v-1.64h-3.34v-1.37l3.54-5.18h1.31v5.17h1.01v1.37h-1.01v1.64H60.11z M60.11,201.62v-2.79
				l-1.88,2.79H60.11z"/>
			<path class="st9" d="M63.56,202.47l1.51-0.18c0.05,0.39,0.18,0.68,0.39,0.88c0.21,0.2,0.47,0.31,0.77,0.31
				c0.32,0,0.59-0.12,0.82-0.37c0.22-0.24,0.33-0.57,0.33-0.99c0-0.39-0.11-0.7-0.32-0.93c-0.21-0.23-0.47-0.35-0.77-0.35
				c-0.2,0-0.44,0.04-0.72,0.12l0.17-1.27c0.42,0.01,0.75-0.08,0.97-0.28c0.22-0.19,0.33-0.45,0.33-0.78c0-0.27-0.08-0.49-0.24-0.66
				c-0.16-0.16-0.38-0.24-0.65-0.24c-0.27,0-0.5,0.09-0.68,0.28c-0.19,0.19-0.3,0.46-0.34,0.81l-1.44-0.24
				c0.1-0.49,0.25-0.89,0.45-1.18c0.2-0.29,0.48-0.53,0.85-0.7c0.36-0.17,0.77-0.25,1.22-0.25c0.77,0,1.38,0.24,1.85,0.73
				c0.38,0.4,0.57,0.85,0.57,1.36c0,0.72-0.39,1.29-1.17,1.71c0.47,0.1,0.84,0.32,1.12,0.67c0.28,0.35,0.42,0.77,0.42,1.26
				c0,0.72-0.26,1.33-0.78,1.83c-0.52,0.5-1.17,0.76-1.95,0.76c-0.74,0-1.35-0.21-1.84-0.64C63.92,203.71,63.64,203.15,63.56,202.47
				z"/>
			<path class="st9" d="M75.46,203.18v1.45h-5.48c0.06-0.55,0.24-1.07,0.53-1.56c0.3-0.49,0.88-1.14,1.76-1.96
				c0.7-0.66,1.14-1.1,1.3-1.34c0.22-0.32,0.32-0.64,0.32-0.96c0-0.35-0.09-0.62-0.28-0.8c-0.19-0.19-0.45-0.28-0.78-0.28
				c-0.33,0-0.59,0.1-0.78,0.29c-0.19,0.2-0.3,0.52-0.33,0.98l-1.56-0.16c0.09-0.86,0.38-1.48,0.87-1.85s1.1-0.56,1.84-0.56
				c0.8,0,1.44,0.22,1.9,0.65c0.46,0.43,0.69,0.97,0.69,1.62c0,0.37-0.07,0.72-0.2,1.05c-0.13,0.33-0.34,0.68-0.63,1.04
				c-0.19,0.24-0.53,0.59-1.02,1.04c-0.49,0.45-0.81,0.75-0.94,0.9c-0.13,0.15-0.24,0.29-0.32,0.43H75.46z"/>
		</g>
		<g>
			<path class="st22" d="M157.6,100.98c0,0,9.26,14.71,0,34.33"/>
			<path class="st23" d="M149.79,104.43c0,0,8.54,12.99,0,27.16"/>
			<path class="st23" d="M142.44,108.42c0,0,6.09,8.45,0,19.16"/>
			<path class="st23" d="M135.53,112.33c0,0,3.63,5.18,0,11.63"/>
		</g>
	</g>
</g>
</svg>
