<svg width="246" height="276" viewBox="0 0 246 276" fill="none" xmlns="http://www.w3.org/2000/svg">
<path d="M196.075 100.51L193.089 103.496C192.405 104.18 192.405 105.289 193.089 105.972L196.075 108.959C196.759 109.643 197.867 109.643 198.551 108.959L201.537 105.972C202.221 105.289 202.221 104.18 201.537 103.497L198.551 100.51C197.867 99.8265 196.759 99.8265 196.075 100.51Z" fill="#F04572"/>
<path d="M7.9022 160.863L4.91586 163.849C4.23213 164.533 4.23213 165.642 4.91586 166.325L7.9022 169.312C8.58593 169.995 9.69447 169.995 10.3782 169.312L13.3645 166.325C14.0483 165.642 14.0483 164.533 13.3645 163.849L10.3782 160.863C9.69447 160.179 8.58593 160.179 7.9022 160.863Z" fill="#F2D34E"/>
<path d="M185.734 124.466C186.921 124.466 187.883 123.504 187.883 122.317C187.883 121.131 186.921 120.169 185.734 120.169C184.548 120.169 183.586 121.131 183.586 122.317C183.586 123.504 184.548 124.466 185.734 124.466Z" fill="#2C2C7C"/>
<path d="M194.812 265.996C195.999 265.996 196.961 265.034 196.961 263.848C196.961 262.661 195.999 261.699 194.812 261.699C193.626 261.699 192.664 262.661 192.664 263.848C192.664 265.034 193.626 265.996 194.812 265.996Z" fill="#2C2C7C"/>
<path d="M29.0224 158.045C30.2089 158.045 31.1708 157.083 31.1708 155.897C31.1708 154.71 30.2089 153.749 29.0224 153.749C27.8359 153.749 26.874 154.71 26.874 155.897C26.874 157.083 27.8359 158.045 29.0224 158.045Z" fill="#2C2C7C"/>
<path d="M146.512 165.513L19.4046 132.127L44.564 57.3946L172.831 91.0873L146.512 165.513Z" fill="#8C8CE5"/>
<path d="M102.942 109.781L172.827 91.0873L44.5641 57.3979L91.0005 106.647C93.9341 109.758 98.5283 110.964 102.942 109.785V109.781Z" fill="#B8B8F4"/>
<path d="M102.695 41.6107L44.5641 57.3946L172.827 91.0839L134.35 49.9236C126.598 41.6308 114.406 38.4299 102.695 41.6074V41.6107Z" fill="#B8B8F4"/>
<path d="M51.6675 59.2623L172.831 91.0873" stroke="#2C2C7C" stroke-width="2" stroke-miterlimit="10"/>
<mask id="mask0_5_10333" style="mask-type:luminance" maskUnits="userSpaceOnUse" x="44" y="0" width="149" height="111">
<path d="M63.6759 0.634186L44.5674 57.3946L91.0038 106.644C93.9374 109.755 98.5316 110.961 102.945 109.781L172.831 91.0873L192.821 34.5574L63.6792 0.634186H63.6759Z" fill="white"/>
</mask>
<g mask="url(#mask0_5_10333)">
<path d="M39.8797 157.16L90.7131 7.73761L165.567 28.0655L113.844 175.827L39.8797 157.16Z" fill="#50C7B3"/>
<path d="M51.7477 145.031L93.0119 24.0795C95.5779 22.7229 97.018 21.9611 99.5841 20.6046L150.294 34.3136C151.547 36.6892 152.249 38.0223 153.498 40.3946L111.653 160.257C109.14 161.583 107.733 162.328 105.221 163.658L55.0355 150.935C53.7524 148.633 53.0307 147.34 51.7444 145.034L51.7477 145.031Z" stroke="#68E0C9" stroke-width="3" stroke-miterlimit="10"/>
<path d="M95.1703 113.951C107.185 117.065 120.163 110.206 124.196 98.6083C128.242 86.9809 121.787 74.9493 109.731 71.7584C97.6428 68.5609 84.5619 75.4738 80.5558 87.1781C76.5596 98.8489 83.1218 110.827 95.1703 113.948V113.951Z" fill="#68E0C9"/>
<path d="M93.904 117.623C108.014 121.272 123.253 113.219 127.998 99.6041C132.759 85.9452 125.181 71.8019 111.014 68.0464C96.8009 64.2775 81.4178 72.41 76.7134 86.1757C72.0256 99.8947 79.7472 113.965 93.904 117.627V117.623Z" stroke="white" stroke-width="3" stroke-miterlimit="10"/>
<path d="M109.317 100.012C111.382 99.4971 113.193 98.0304 113.991 95.9755C114.352 95.05 114.392 94.0844 114.189 93.1555C113.34 89.2931 108.121 89.3432 105.304 91.5217C104.101 92.4505 103.132 93.6166 102.067 94.6858C100.566 96.1893 98.2276 98.0638 95.999 97.1984C94.5088 96.6204 93.316 95.4075 92.8716 93.9207C91.5251 89.4201 96.7808 85.2536 101.228 86.5967" stroke="#2C2C7C" stroke-width="3" stroke-miterlimit="10"/>
<path d="M116.898 96.6972L88.7385 89.3232" stroke="#2C2C7C" stroke-width="3" stroke-miterlimit="10"/>
<path d="M139.482 47.8956C140.878 47.1572 141.453 45.5066 140.765 44.2069L139.428 41.6876C138.74 40.3879 137.046 39.9301 135.646 40.6685L132.936 42.1019C131.536 42.8403 130.965 44.4942 131.657 45.7939L132.996 48.3099C133.688 49.6063 135.379 50.0607 136.775 49.3223L139.482 47.8922V47.8956Z" stroke="#2C2C7C" stroke-width="2" stroke-miterlimit="10"/>
<path d="M131.363 64.9023L134.066 63.4756C135.459 62.7405 136.03 61.0933 135.342 59.8003L134.005 57.2944C133.317 56.0013 131.626 55.5469 130.23 56.2853L127.523 57.7154C126.127 58.4538 125.555 60.101 126.247 61.394L127.587 63.8999C128.279 65.193 129.966 65.6407 131.359 64.9056L131.363 64.9023Z" fill="#68E0C9"/>
</g>
<path d="M133.882 148.837L89.5805 137.199C87.0177 136.524 85.6311 133.972 86.4865 131.492C87.3418 129.013 90.115 127.547 92.6811 128.221L137.033 139.872C139.599 140.547 140.972 143.1 140.1 145.576C139.228 148.051 136.445 149.508 133.882 148.837Z" fill="#B8B8F4"/>
<path d="M115.415 275.565L5.24441 252.294C1.42538 251.489 -0.586038 247.86 0.750454 244.185L21.8837 186.115C23.2436 182.379 27.4736 180.007 31.3294 180.822L142.599 204.324C146.455 205.139 148.426 208.821 147.003 212.543L124.867 270.4C123.467 274.058 119.237 276.37 115.418 275.562L115.415 275.565Z" fill="#50C7B3"/>
<mask id="mask1_5_10333" style="mask-type:luminance" maskUnits="userSpaceOnUse" x="13" y="189" width="133" height="46">
<path d="M138.62 234.445L13.8815 208.096L20.5272 189.833L145.583 216.249L138.62 234.445Z" fill="white"/>
</mask>
<g mask="url(#mask1_5_10333)">
<path d="M138.62 234.445L13.8815 208.096L20.5272 189.833L145.583 216.249L138.62 234.445Z" fill="#2C2C7C"/>
<path d="M73.7731 197.929L52.0718 219.423" stroke="white" stroke-width="2" stroke-miterlimit="10"/>
<path d="M99.0027 203.258L77.2179 224.732" stroke="white" stroke-width="2" stroke-miterlimit="10"/>
<path d="M103.152 204.134L81.3543 225.608" stroke="white" stroke-width="2" stroke-miterlimit="10"/>
<path d="M129.227 209.643L107.342 231.097" stroke="white" stroke-width="2" stroke-miterlimit="10"/>
</g>
<path d="M110.316 250.322L77.9228 243.48C74.6217 242.781 72.9077 239.641 74.0938 236.463C75.2833 233.282 78.9285 231.268 82.2364 231.966L114.683 238.819C117.991 239.517 119.692 242.661 118.482 245.839C117.276 249.013 113.621 251.021 110.319 250.322H110.316Z" fill="white"/>
<path d="M19.8657 236.627C20.1229 236.68 113.507 256.407 113.507 256.407" stroke="#2C2C7C" stroke-width="2" stroke-miterlimit="10"/>
<path d="M18.028 241.639C18.1148 241.659 50.0436 248.401 50.0436 248.401" stroke="#2C2C7C" stroke-width="2" stroke-miterlimit="10"/>
<path d="M238.491 207.371L127.017 224.582C123.155 225.18 119.981 222.49 119.934 218.577L119.169 156.682C119.119 152.699 122.243 148.98 126.145 148.375L238.728 130.994C242.631 130.393 245.781 133.143 245.765 137.136L245.514 199.188C245.497 203.114 242.353 206.776 238.488 207.371H238.491Z" fill="#FD7CA7"/>
<path d="M152.524 208.941L142.083 210.552L143.239 196.566L153.316 195.009C156.911 194.454 159.705 197.03 159.551 200.829C159.394 204.701 156.247 208.363 152.524 208.938V208.941Z" fill="white"/>
<path d="M142.26 210.525L134.625 211.705C133.209 211.922 131.969 210.739 132.123 209.316L133.149 199.766C133.256 198.784 134.007 197.996 134.986 197.842L143.406 196.542C147.001 195.987 149.714 198.574 149.467 202.389C149.213 206.278 145.982 209.95 142.26 210.528V210.525Z" fill="#F2D34E"/>
<path d="M228.557 170.327L212.439 172.816C210.635 173.094 209.132 171.864 209.081 170.053L208.817 160.661C208.764 158.79 210.221 157.032 212.072 156.748L228.591 154.199C230.439 153.915 231.929 155.215 231.915 157.096L231.849 166.541C231.835 168.359 230.362 170.05 228.557 170.33V170.327Z" fill="#F2D34E"/>
<mask id="mask2_5_10333" style="mask-type:luminance" maskUnits="userSpaceOnUse" x="208" y="154" width="24" height="19">
<path d="M228.557 170.327L212.439 172.816C210.635 173.094 209.132 171.864 209.081 170.053L208.817 160.661C208.764 158.79 210.221 157.032 212.072 156.748L228.591 154.199C230.439 153.915 231.929 155.215 231.915 157.096L231.849 166.541C231.835 168.359 230.362 170.05 228.557 170.33V170.327Z" fill="white"/>
</mask>
<g mask="url(#mask2_5_10333)">
<path d="M225.721 153.491L213.522 174.006" stroke="white" stroke-width="2" stroke-miterlimit="10"/>
<path d="M233.299 152.625L221.1 173.14" stroke="white" stroke-width="2" stroke-miterlimit="10"/>
<path d="M214.384 168.563L208.3 169.502C206.111 169.839 204.27 168.336 204.193 166.127C204.116 163.902 205.847 161.814 208.066 161.47L214.224 160.517C216.442 160.176 218.263 161.717 218.293 163.949C218.323 166.164 216.572 168.225 214.384 168.563Z" stroke="#2C2C7C" stroke-width="2" stroke-miterlimit="10"/>
<path d="M232.614 165.75L226.529 166.688C224.341 167.026 222.55 165.512 222.537 163.294C222.52 161.062 224.304 158.96 226.523 158.619L232.681 157.667C234.899 157.326 236.67 158.877 236.637 161.115C236.606 163.341 234.806 165.409 232.614 165.746V165.75Z" stroke="#2C2C7C" stroke-width="2" stroke-miterlimit="10"/>
</g>
<path d="M133.239 191.066L229.5 176.204" stroke="#2C2C7C" stroke-width="2" stroke-miterlimit="10"/>
<path d="M155.425 161.987L135.591 165.048C133.717 165.339 132.246 164.036 132.307 162.118C132.367 160.18 133.964 158.355 135.875 158.058L156.12 154.934C158.031 154.64 159.407 156.007 159.194 157.968C158.983 159.906 157.296 161.697 155.425 161.987Z" stroke="#2C2C7C" stroke-width="2" stroke-miterlimit="10"/>
<path d="M182.499 197.411L194.203 195.603" stroke="#2C2C7C" stroke-width="2" stroke-miterlimit="10"/>
<path d="M198.994 194.865L210.699 193.057" stroke="#2C2C7C" stroke-width="2" stroke-miterlimit="10"/>
<path d="M215.49 192.316L227.194 190.508" stroke="#2C2C7C" stroke-width="2" stroke-miterlimit="10"/>
<path d="M204.958 24.9984C192.332 24.8146 180.815 34.9786 179.294 47.742C178.84 51.5576 179.311 55.1828 180.524 58.4104L174.74 74.4716L191.416 70.0545C194.146 71.2841 197.22 71.9657 200.511 71.9557C213.535 71.9256 225.016 61.0299 225.895 47.9625C226.743 35.3261 217.461 25.1822 204.962 25.0017L204.958 24.9984Z" fill="#50C7B3"/>
<path d="M210.07 38.6573L194.811 59.914" stroke="white" stroke-width="3" stroke-miterlimit="10"/>
<path d="M198.072 46.1783C196.806 46.1783 195.78 45.1525 195.78 43.8862V42.1655C195.78 40.8992 196.806 39.8734 198.072 39.8734C199.338 39.8734 200.364 40.8992 200.364 42.1655V43.8862C200.364 45.1525 199.338 46.1783 198.072 46.1783Z" stroke="white" stroke-width="3" stroke-miterlimit="10"/>
<path d="M207.778 57.3446C206.512 57.3446 205.486 56.3188 205.486 55.0525V53.3318C205.486 52.0655 206.512 51.0397 207.778 51.0397C209.045 51.0397 210.07 52.0655 210.07 53.3318V55.0525C210.07 56.3188 209.045 57.3446 207.778 57.3446Z" stroke="white" stroke-width="3" stroke-miterlimit="10"/>
</svg>
