<svg width="289" height="305" viewBox="0 0 289 305" fill="none" xmlns="http://www.w3.org/2000/svg">
<path d="M93.391 2.65362C86.9207 0.255409 79.6535 0.663838 73.0323 2.61173C66.411 4.55962 60.3199 7.95273 54.4043 11.4959C49.8193 14.2432 45.2168 17.1651 41.7798 21.2459C38.3428 25.3302 36.1942 30.8038 37.286 36.0156C38.5218 41.9082 43.4649 46.2089 48.1201 50.0558C53.9234 54.8523 59.8144 59.701 66.6743 62.8288C73.5343 65.9566 81.5914 67.2064 88.6515 64.5603C96.7753 61.5128 102.361 53.7457 104.934 45.5003C109.558 30.6642 111.162 9.24085 93.3945 2.65362H93.391Z" stroke="#2C2C7C" stroke-width="2" stroke-miterlimit="10"/>
<path d="M188.644 192.952L189.114 193.123L188.644 192.952C183.903 205.949 175.576 217.328 164.929 226.079C137.672 248.476 98.0329 254.046 64.9538 243.002C36.9335 233.647 9.86424 211.7 2.70659 181.931C-3.18853 157.405 2.88053 130.092 19.0882 110.765C34.0334 92.9431 57.0904 82.5214 80.2072 82.3391C85.7904 82.2953 91.4804 83.0046 97.2216 83.8973C98.9857 84.1716 100.757 84.4636 102.531 84.7561C106.516 85.4133 110.516 86.0729 114.487 86.5396C125.978 87.8902 137.38 87.6493 148.022 81.0723C156.444 75.8675 161.627 68.2261 166.071 60.0993C167.357 57.7471 168.579 55.36 169.799 52.9782C172.81 47.0966 175.805 41.2473 179.708 36.0359C190.6 21.4946 207.423 12.5816 224.821 10.8197L224.824 10.8229L225.061 10.7998C240.332 9.30885 256.012 13.3341 268.493 23.8755C283.032 36.1554 289.765 55.0312 288.304 72.9211C286.844 90.8037 277.203 107.658 259.036 115.946C253.172 118.622 246.822 120.275 240.454 121.933C238.534 122.433 236.612 122.933 234.701 123.462C226.485 125.736 218.507 128.534 212.013 134.131L212.34 134.51L212.013 134.131C203.832 141.183 199.823 150.94 196.941 161.375C195.867 165.265 194.945 169.265 194.025 173.261C193.711 174.623 193.397 175.985 193.077 177.342C191.818 182.687 190.465 187.965 188.644 192.952Z" stroke="white"/>
<path d="M34.71 198.042L38.2413 208.104" stroke="#2C2C7C" stroke-width="2" stroke-miterlimit="10"/>
<path d="M31.8245 202.328L32.7899 205.077L30.8101 199.438L30.2168 197.74" stroke="#2C2C7C" stroke-width="2" stroke-miterlimit="10"/>
<path d="M41.5515 198.907L45.0864 208.969" stroke="#2C2C7C" stroke-width="2" stroke-miterlimit="10"/>
<path d="M48.1157 198.977L51.6471 209.039" stroke="#2C2C7C" stroke-width="2" stroke-miterlimit="10"/>
<path d="M54.2061 197.691L57.7374 207.756" stroke="#2C2C7C" stroke-width="2" stroke-miterlimit="10"/>
<path d="M60.0261 195.641L63.5574 205.706" stroke="#2C2C7C" stroke-width="2" stroke-miterlimit="10"/>
<path d="M70.8518 190.972L74.3831 201.038" stroke="#2C2C7C" stroke-width="2" stroke-miterlimit="10"/>
<path d="M76.0856 187.942L79.617 198.007" stroke="#2C2C7C" stroke-width="2" stroke-miterlimit="10"/>
<path d="M81.3194 184.908L84.6402 194.368" stroke="#2C2C7C" stroke-width="2" stroke-miterlimit="10"/>
<path d="M86.5568 181.874L89.0596 189.014" stroke="#2C2C7C" stroke-width="2" stroke-miterlimit="10"/>
<path d="M65.8461 193.591L69.3775 203.657" stroke="#2C2C7C" stroke-width="2" stroke-miterlimit="10"/>
<path d="M30.8101 199.438L32.7899 205.077C38.1044 210.375 52.9178 210.259 67.661 204.472C82.1935 198.766 91.745 189.439 90.6076 182.647L88.7718 177.412" stroke="#2C2C7C" stroke-width="2" stroke-miterlimit="10"/>
<path d="M65.6496 197.663C49.5163 203.871 33.692 204.434 30.3081 198.914C26.9242 193.395 37.2549 183.888 53.3882 177.676C69.5214 171.467 85.3457 170.905 88.7296 176.424C92.1135 181.944 81.7828 191.45 65.6461 197.663H65.6496Z" fill="#F4B04D"/>
<mask id="mask0_5_10577" style="mask-type:luminance" maskUnits="userSpaceOnUse" x="36" y="175" width="46" height="24">
<path d="M63.8277 194.266C51.5663 198.984 39.5436 199.41 36.9706 195.216C34.3976 191.021 42.2501 183.797 54.5115 179.079C66.7729 174.361 78.7956 173.935 81.3686 178.129C83.9416 182.324 76.0891 189.548 63.8277 194.266Z" fill="white"/>
</mask>
<g mask="url(#mask0_5_10577)">
<path d="M63.8277 194.266C51.5663 198.984 39.5436 199.41 36.9706 195.216C34.3976 191.021 42.2501 183.797 54.5115 179.079C66.7729 174.361 78.7956 173.935 81.3686 178.129C83.9416 182.324 76.0891 189.548 63.8277 194.266Z" fill="#F2D34E"/>
<path d="M37.7113 196.805C35.384 193.18 43.4751 186.324 55.7822 181.494C68.0892 176.663 79.9504 175.686 82.2778 179.311" stroke="#2C2C7C" stroke-width="2" stroke-miterlimit="10"/>
</g>
<path d="M170.932 237H69.1659C66.3143 237 64 234.686 64 231.835L79.9017 52.1652C79.9017 49.314 82.216 47 85.0676 47H186.834C189.686 47 192 49.3105 192 52.1652L176.098 231.835C176.098 234.686 173.788 237 170.932 237Z" fill="#2C2C7C"/>
<path d="M178.932 237H77.1659C74.3143 237 72 234.686 72 231.835L87.9017 52.1652C87.9017 49.314 90.216 47 93.0676 47H194.834C197.686 47 200 49.3105 200 52.1652L184.098 231.835C184.098 234.686 181.788 237 178.932 237Z" stroke="#2C2C7C" stroke-width="2" stroke-miterlimit="10"/>
<path d="M167.956 233H73.0849C70.8292 233 69 231.178 69 228.932L84.9588 56.0682C84.9588 53.8218 86.788 52 89.0436 52H183.915C186.171 52 188 53.8218 188 56.0682L172.041 228.932C172.041 231.178 170.212 233 167.956 233Z" fill="#8C8CE5"/>
<path d="M116 49H157V53.9592C157 56.189 155.256 58 153.108 58H119.896C117.748 58 116.004 56.189 116.004 53.9592V49H116Z" fill="#2C2C7C"/>
<path d="M137.107 133.009H33.0557C27.707 133.009 23.3709 137.352 23.3709 142.709V142.712C23.3709 148.069 27.707 152.412 33.0557 152.412H137.107C142.456 152.412 146.792 148.069 146.792 142.712V142.709C146.792 137.352 142.456 133.009 137.107 133.009Z" fill="white"/>
<path d="M49.2522 157.805L52.0815 147.223C52.5202 145.585 51.0214 144.083 49.3856 144.523L38.8196 147.357C37.1838 147.796 36.6362 149.842 37.8332 151.044L39.0899 152.303L34.0702 157.331C33.2383 158.164 33.2383 159.51 34.0702 160.343L36.2817 162.558C37.1136 163.392 38.4581 163.392 39.29 162.558L44.3097 157.531L45.5664 158.79C46.7634 159.988 48.8099 159.44 49.2487 157.802L49.2522 157.805Z" fill="#2C2C7C"/>
<path d="M112.925 90.7119H106.168V113.089H112.925V90.7119Z" fill="#B8B8F4"/>
<path d="M112.925 91.865H106.168L105.192 87.9978H114.066L112.925 91.865Z" fill="#B8B8F4"/>
<path d="M106.944 91.865H112.925" stroke="#2C2C7C" stroke-width="2" stroke-miterlimit="10"/>
<path d="M106.175 113.089H112.932L113.905 116.96H105.031L106.175 113.089Z" fill="#B8B8F4"/>
<path d="M112.156 113.089H106.175" stroke="#2C2C7C" stroke-width="2" stroke-miterlimit="10"/>
<path d="M127.314 90.7119H120.557V113.089H127.314V90.7119Z" fill="#B8B8F4"/>
<path d="M127.314 91.865H120.557L119.581 87.9978H128.455L127.314 91.865Z" fill="#B8B8F4"/>
<path d="M121.332 91.865H127.314" stroke="#2C2C7C" stroke-width="2" stroke-miterlimit="10"/>
<path d="M120.56 113.089H127.317L128.293 116.96H119.419L120.56 113.089Z" fill="#B8B8F4"/>
<path d="M126.545 113.089H120.56" stroke="#2C2C7C" stroke-width="2" stroke-miterlimit="10"/>
<path d="M141.702 90.7119H134.945V113.089H141.702V90.7119Z" fill="#B8B8F4"/>
<path d="M141.702 91.865H134.945L133.969 87.9978H142.843L141.702 91.865Z" fill="#B8B8F4"/>
<path d="M135.721 91.865H141.702" stroke="#2C2C7C" stroke-width="2" stroke-miterlimit="10"/>
<path d="M134.949 113.089H141.706L142.682 116.96H133.808L134.949 113.089Z" fill="#B8B8F4"/>
<path d="M140.93 113.089H134.949" stroke="#2C2C7C" stroke-width="2" stroke-miterlimit="10"/>
<path d="M156.091 90.7119H149.334V113.089H156.091V90.7119Z" fill="#B8B8F4"/>
<path d="M156.091 91.865H149.334L148.358 87.9978H157.232L156.091 91.865Z" fill="#B8B8F4"/>
<path d="M150.106 91.865H156.091" stroke="#2C2C7C" stroke-width="2" stroke-miterlimit="10"/>
<path d="M149.337 113.089H156.095L157.07 116.96H148.196L149.337 113.089Z" fill="#B8B8F4"/>
<path d="M155.319 113.089H149.337" stroke="#2C2C7C" stroke-width="2" stroke-miterlimit="10"/>
<path d="M159.689 84.7388H102.949V87.9978H159.689V84.7388Z" fill="#2C2C7C"/>
<path d="M159.689 116.96H102.949V120.219H159.689V116.96Z" fill="#B8B8F4"/>
<path d="M167.478 120.219H95.1596V123.569H167.478V120.219Z" fill="#5E5EDB"/>
<path d="M101.222 82.1758L129.188 69.8358C130.905 69.0799 132.86 69.0799 134.577 69.8358L162.543 82.1758C163.866 82.7594 163.449 84.7388 162.006 84.7388H101.762C100.316 84.7388 99.902 82.7594 101.225 82.1758H101.222Z" fill="#B8B8F4"/>
<path d="M112.774 80.4355L130.203 72.7468C131.273 72.2757 132.491 72.2757 133.562 72.7468L150.991 80.4355C151.816 80.7977 151.556 82.0317 150.654 82.0317H113.108C112.206 82.0317 111.949 80.7977 112.771 80.4355H112.774Z" fill="#5E5EDB"/>
<path d="M131.881 80.0735C133.015 80.0735 133.934 79.1527 133.934 78.0168C133.934 76.8809 133.015 75.9601 131.881 75.9601C130.747 75.9601 129.827 76.8809 129.827 78.0168C129.827 79.1527 130.747 80.0735 131.881 80.0735Z" stroke="#2C2C7C" stroke-width="2" stroke-miterlimit="10"/>
<path d="M102.949 116.96H159.689" stroke="#2C2C7C" stroke-width="2" stroke-miterlimit="10"/>
<path d="M102.949 120.219H159.689" stroke="#2C2C7C" stroke-width="2" stroke-miterlimit="10"/>
<path d="M231.014 120.725L226.216 115.554" stroke="#2C2C7C" stroke-width="2" stroke-miterlimit="10"/>
<path d="M224.822 123.707L219.459 118.338" stroke="#2C2C7C" stroke-width="2" stroke-miterlimit="10"/>
<path d="M216.391 124.818L212.305 120.725" stroke="#2C2C7C" stroke-width="2" stroke-miterlimit="10"/>
<path d="M238.408 115.604C250.662 103.331 250.662 83.4327 238.408 71.1599C226.154 58.887 206.286 58.887 194.032 71.1599C181.778 83.4327 181.778 103.331 194.032 115.604C206.286 127.877 226.154 127.877 238.408 115.604Z" stroke="#2C2C7C" stroke-width="2" stroke-miterlimit="10"/>
<path d="M241.605 111.862L235.81 106.058" stroke="#2C2C7C" stroke-width="2" stroke-miterlimit="10"/>
<path d="M244.968 106.058L239.172 100.254" stroke="#2C2C7C" stroke-width="2" stroke-miterlimit="10"/>
<path d="M247.099 99.0161L242.535 94.4492" stroke="#2C2C7C" stroke-width="2" stroke-miterlimit="10"/>
<path d="M247.608 90.3499L242.307 85.0447" stroke="#2C2C7C" stroke-width="2" stroke-miterlimit="10"/>
<path d="M237.07 116.872L231.014 110.804" stroke="#2C2C7C" stroke-width="2" stroke-miterlimit="10"/>
<path d="M233.977 112.575C246.231 100.302 246.231 80.4042 233.977 68.1313C221.723 55.8584 201.855 55.8584 189.601 68.1313C177.347 80.4041 177.347 100.302 189.601 112.575C201.855 124.848 221.723 124.848 233.977 112.575Z" fill="#F4B04D"/>
<mask id="mask1_5_10577" style="mask-type:luminance" maskUnits="userSpaceOnUse" x="187" y="66" width="49" height="49">
<path d="M228.65 107.24C237.962 97.9139 237.962 82.7926 228.65 73.4661C219.338 64.1396 204.24 64.1396 194.928 73.4661C185.616 82.7926 185.616 97.9139 194.928 107.24C204.24 116.567 219.338 116.567 228.65 107.24Z" fill="white"/>
</mask>
<g mask="url(#mask1_5_10577)">
<path d="M228.65 107.24C237.962 97.9139 237.962 82.7926 228.65 73.4661C219.338 64.1396 204.24 64.1396 194.928 73.4661C185.616 82.7926 185.616 97.9139 194.928 107.24C204.24 116.567 219.338 116.567 228.65 107.24Z" fill="#F2D34E"/>
<path d="M206.358 114.095C194.076 109.096 188.165 95.0715 193.156 82.7701C198.148 70.4688 212.15 64.5484 224.433 69.5476" stroke="#2C2C7C" stroke-width="2" stroke-miterlimit="10"/>
</g>
<path d="M217.858 81.3287C216.752 79.4091 214.716 78.0872 212.343 77.9993C211.273 77.9606 210.251 78.2595 209.335 78.7903C205.526 81.0087 207.011 86.2823 210.062 88.3741C211.364 89.2671 212.849 89.8436 214.26 90.5503C216.247 91.5452 218.851 93.2609 218.553 95.8203C218.353 97.5324 217.412 99.1637 215.98 100.131C211.645 103.059 205.853 99.1918 206.032 94.2277" stroke="#2C2C7C" stroke-width="3" stroke-miterlimit="10"/>
<path d="M212.305 74.793V105.91" stroke="#2C2C7C" stroke-width="3" stroke-miterlimit="10"/>
<path d="M201.524 279.029H110.422L124.617 160.192H217.615L201.524 279.029Z" fill="white"/>
<path d="M145.774 187.766H134.86L136.187 176.867H147.122L145.774 187.766Z" stroke="#2C2C7C" stroke-width="2" stroke-miterlimit="10"/>
<path d="M156.687 187.766H145.774L147.122 176.867H158.056L156.687 187.766Z" stroke="#2C2C7C" stroke-width="2" stroke-miterlimit="10"/>
<path d="M167.601 187.766H156.687L158.056 176.867H168.991L167.601 187.766Z" stroke="#2C2C7C" stroke-width="2" stroke-miterlimit="10"/>
<path d="M178.518 187.766H167.601L168.991 176.867H179.925L178.518 187.766Z" stroke="#2C2C7C" stroke-width="2" stroke-miterlimit="10"/>
<path d="M189.431 187.766H178.518L179.925 176.867H190.86L189.431 187.766Z" stroke="#2C2C7C" stroke-width="2" stroke-miterlimit="10"/>
<path d="M200.345 187.766H189.431L190.86 176.867H201.794L200.345 187.766Z" stroke="#2C2C7C" stroke-width="2" stroke-miterlimit="10"/>
<path d="M144.433 198.626H133.537L134.86 187.766H145.774L144.433 198.626Z" stroke="#2C2C7C" stroke-width="2" stroke-miterlimit="10"/>
<path d="M155.325 198.626H144.433L145.774 187.766H156.687L155.325 198.626Z" stroke="#2C2C7C" stroke-width="2" stroke-miterlimit="10"/>
<path d="M166.218 198.626H155.325L156.687 187.766H167.601L166.218 198.626Z" stroke="#2C2C7C" stroke-width="2" stroke-miterlimit="10"/>
<path d="M177.114 198.626H166.218L167.601 187.766H178.518L177.114 198.626Z" stroke="#2C2C7C" stroke-width="2" stroke-miterlimit="10"/>
<path d="M188.006 198.626H177.114L178.518 187.766H189.431L188.006 198.626Z" stroke="#2C2C7C" stroke-width="2" stroke-miterlimit="10"/>
<path d="M198.898 198.626H188.006L189.431 187.766H200.345L198.898 198.626Z" stroke="#2C2C7C" stroke-width="2" stroke-miterlimit="10"/>
<path d="M143.096 209.444H132.221L133.537 198.626H144.433L143.096 209.444Z" stroke="#2C2C7C" stroke-width="2" stroke-miterlimit="10"/>
<path d="M153.967 209.444H143.096L144.433 198.626H155.325L153.967 209.444Z" stroke="#2C2C7C" stroke-width="2" stroke-miterlimit="10"/>
<path d="M164.842 209.444H153.967L155.325 198.626H166.218L164.842 209.444Z" stroke="#2C2C7C" stroke-width="2" stroke-miterlimit="10"/>
<path d="M175.713 209.444H164.842L166.218 198.626H177.114L175.713 209.444Z" stroke="#2C2C7C" stroke-width="2" stroke-miterlimit="10"/>
<path d="M186.588 209.444H175.713L177.114 198.626H188.006L186.588 209.444Z" stroke="#2C2C7C" stroke-width="2" stroke-miterlimit="10"/>
<path d="M197.459 209.444H186.588L188.006 198.626H198.898L197.459 209.444Z" stroke="#2C2C7C" stroke-width="2" stroke-miterlimit="10"/>
<path d="M141.762 220.223H130.908L132.221 209.443H143.096L141.762 220.223Z" stroke="#2C2C7C" stroke-width="2" stroke-miterlimit="10"/>
<path d="M152.615 220.223H141.762L143.096 209.443H153.967L152.615 220.223Z" stroke="#2C2C7C" stroke-width="2" stroke-miterlimit="10"/>
<path d="M163.466 220.223H152.615L153.967 209.443H164.842L163.466 220.223Z" stroke="#2C2C7C" stroke-width="2" stroke-miterlimit="10"/>
<path d="M174.319 220.223H163.466L164.842 209.443H175.713L174.319 220.223Z" stroke="#2C2C7C" stroke-width="2" stroke-miterlimit="10"/>
<path d="M185.173 220.223H174.319L175.713 209.443H186.588L185.173 220.223Z" stroke="#2C2C7C" stroke-width="2" stroke-miterlimit="10"/>
<path d="M196.027 220.223H185.173L186.588 209.443H197.459L196.027 220.223Z" stroke="#2C2C7C" stroke-width="2" stroke-miterlimit="10"/>
<path d="M140.431 230.959H129.602L130.908 220.223H141.762L140.431 230.959Z" stroke="#2C2C7C" stroke-width="2" stroke-miterlimit="10"/>
<path d="M151.264 230.959H140.431L141.762 220.223H152.615L151.264 230.959Z" stroke="#2C2C7C" stroke-width="2" stroke-miterlimit="10"/>
<path d="M162.097 230.959H151.264L152.615 220.223H163.466L162.097 230.959Z" stroke="#2C2C7C" stroke-width="2" stroke-miterlimit="10"/>
<path d="M172.929 230.959H162.097L163.466 220.223H174.319L172.929 230.959Z" stroke="#2C2C7C" stroke-width="2" stroke-miterlimit="10"/>
<path d="M183.762 230.959H172.929L174.319 220.223H185.173L183.762 230.959Z" stroke="#2C2C7C" stroke-width="2" stroke-miterlimit="10"/>
<path d="M194.595 230.959H183.762L185.173 220.223H196.027L194.595 230.959Z" stroke="#2C2C7C" stroke-width="2" stroke-miterlimit="10"/>
<path d="M139.111 241.658H128.296L129.602 230.959H140.431L139.111 241.658Z" stroke="#2C2C7C" stroke-width="2" stroke-miterlimit="10"/>
<path d="M149.923 241.658H139.111L140.431 230.959H151.264L149.923 241.658Z" stroke="#2C2C7C" stroke-width="2" stroke-miterlimit="10"/>
<path d="M160.735 241.658H149.923L151.264 230.959H162.097L160.735 241.658Z" stroke="#2C2C7C" stroke-width="2" stroke-miterlimit="10"/>
<path d="M171.546 241.658H160.735L162.097 230.959H172.929L171.546 241.658Z" stroke="#2C2C7C" stroke-width="2" stroke-miterlimit="10"/>
<path d="M182.362 241.658H171.546L172.929 230.959H183.762L182.362 241.658Z" stroke="#2C2C7C" stroke-width="2" stroke-miterlimit="10"/>
<path d="M193.173 241.658H182.361L183.762 230.959H194.595L193.173 241.658Z" stroke="#2C2C7C" stroke-width="2" stroke-miterlimit="10"/>
<path d="M137.792 252.317H127.001L128.296 241.658H139.111L137.792 252.317Z" stroke="#2C2C7C" stroke-width="2" stroke-miterlimit="10"/>
<path d="M148.586 252.317H137.792L139.111 241.658H149.923L148.586 252.317Z" stroke="#2C2C7C" stroke-width="2" stroke-miterlimit="10"/>
<path d="M159.376 252.317H148.586L149.923 241.658H160.735L159.376 252.317Z" stroke="#2C2C7C" stroke-width="2" stroke-miterlimit="10"/>
<path d="M170.17 252.317H159.376L160.735 241.658H171.546L170.17 252.317Z" stroke="#2C2C7C" stroke-width="2" stroke-miterlimit="10"/>
<path d="M180.961 252.317H170.17L171.546 241.658H182.361L180.961 252.317Z" stroke="#2C2C7C" stroke-width="2" stroke-miterlimit="10"/>
<path d="M191.755 252.317H180.961L182.361 241.658H193.173L191.755 252.317Z" stroke="#2C2C7C" stroke-width="2" stroke-miterlimit="10"/>
<path d="M136.479 262.935H125.706L127.001 252.317H137.792L136.479 262.935Z" stroke="#2C2C7C" stroke-width="2" stroke-miterlimit="10"/>
<path d="M147.252 262.935H136.479L137.792 252.317H148.586L147.252 262.935Z" stroke="#2C2C7C" stroke-width="2" stroke-miterlimit="10"/>
<path d="M158.025 262.935H147.252L148.586 252.317H159.376L158.025 262.935Z" stroke="#2C2C7C" stroke-width="2" stroke-miterlimit="10"/>
<path d="M168.798 262.935H158.025L159.376 252.317H170.17L168.798 262.935Z" stroke="#2C2C7C" stroke-width="2" stroke-miterlimit="10"/>
<path d="M179.567 262.935H168.798L170.17 252.317H180.961L179.567 262.935Z" stroke="#2C2C7C" stroke-width="2" stroke-miterlimit="10"/>
<path d="M190.34 262.935H179.567L180.961 252.317H191.755L190.34 262.935Z" stroke="#2C2C7C" stroke-width="2" stroke-miterlimit="10"/>
<path d="M132.14 257.007L129.083 255.267L160.58 208.343L166.671 230.081L189.617 194.737L192.727 196.45L165.126 238.915L158.987 217.055L132.14 257.007Z" fill="#50C7B3"/>
<path d="M192.148 205.098L190.533 196.576L181.603 199.304L184.703 194.523L193.64 191.791L195.255 200.327L192.148 205.098Z" fill="#50C7B3"/>
<path d="M150.306 228.326C150.681 225.341 148.54 222.923 145.521 222.923C142.502 222.923 139.761 225.345 139.392 228.326C139.024 231.308 141.165 233.723 144.177 233.723C147.189 233.723 149.93 231.308 150.302 228.326H150.306Z" fill="#5E5EDB"/>
<path d="M180.922 211.465C181.312 208.463 179.178 206.03 176.155 206.03C173.133 206.03 170.367 208.466 169.981 211.465C169.595 214.464 171.732 216.893 174.751 216.893C177.77 216.893 180.533 214.464 180.926 211.465H180.922Z" fill="#83DDCC"/>
<path d="M87.8565 257.974L80.3445 265.536" stroke="#2C2C7C" stroke-width="2" stroke-miterlimit="10"/>
<path d="M82.7491 257.239L80.6956 259.303L84.9079 255.066L86.1751 253.79" stroke="#2C2C7C" stroke-width="2" stroke-miterlimit="10"/>
<path d="M90.0575 264.524L82.542 272.086" stroke="#2C2C7C" stroke-width="2" stroke-miterlimit="10"/>
<path d="M92.8481 270.472L85.3326 278.034" stroke="#2C2C7C" stroke-width="2" stroke-miterlimit="10"/>
<path d="M96.6498 275.405L89.1378 282.967" stroke="#2C2C7C" stroke-width="2" stroke-miterlimit="10"/>
<path d="M101.024 279.764L93.5081 287.326" stroke="#2C2C7C" stroke-width="2" stroke-miterlimit="10"/>
<path d="M109.929 287.499L102.414 295.061" stroke="#2C2C7C" stroke-width="2" stroke-miterlimit="10"/>
<path d="M114.931 290.902L107.416 298.464" stroke="#2C2C7C" stroke-width="2" stroke-miterlimit="10"/>
<path d="M119.933 294.301L112.871 301.41" stroke="#2C2C7C" stroke-width="2" stroke-miterlimit="10"/>
<path d="M124.939 297.705L119.607 303.07" stroke="#2C2C7C" stroke-width="2" stroke-miterlimit="10"/>
<path d="M105.397 284.124L97.8819 291.686" stroke="#2C2C7C" stroke-width="2" stroke-miterlimit="10"/>
<path d="M84.9079 255.066L80.6956 259.303C78.2454 266.401 84.7885 279.708 96.404 290.49C107.851 301.115 120.393 305.675 126.003 301.695L129.91 297.761" stroke="#2C2C7C" stroke-width="2" stroke-miterlimit="10"/>
<path d="M101.652 285.716C89.0535 273.865 81.6679 259.837 85.1606 254.384C88.6498 248.932 101.694 254.117 114.292 265.969C126.891 277.82 134.276 291.848 130.784 297.3C127.294 302.753 114.25 297.568 101.652 285.716Z" fill="#F4B04D"/>
<mask id="mask2_5_10577" style="mask-type:luminance" maskUnits="userSpaceOnUse" x="90" y="257" width="37" height="37">
<path d="M103.913 282.598C94.34 273.594 88.7271 262.935 91.3809 258.79C94.0346 254.645 103.944 258.586 113.517 267.593C123.089 276.596 128.702 287.256 126.048 291.401C123.395 295.546 113.485 291.605 103.913 282.598Z" fill="white"/>
</mask>
<g mask="url(#mask2_5_10577)">
<path d="M103.913 282.598C94.34 273.594 88.7271 262.935 91.3809 258.79C94.0346 254.645 103.944 258.586 113.517 267.593C123.089 276.596 128.702 287.256 126.048 291.401C123.395 295.546 113.485 291.605 103.913 282.598Z" fill="#F2D34E"/>
<path d="M90.2751 260.147C92.5252 256.473 102.207 260.786 111.902 269.787C121.597 278.787 127.635 289.06 125.385 292.733" stroke="#2C2C7C" stroke-width="2" stroke-miterlimit="10"/>
</g>
<path d="M24.9812 53.6839L21.8438 56.8262C21.1255 57.5456 21.1255 58.7121 21.8438 59.4315L24.9812 62.5737C25.6996 63.2932 26.8642 63.2932 27.5825 62.5737L30.7199 59.4315C31.4383 58.7121 31.4383 57.5456 30.7199 56.8262L27.5825 53.6839C26.8642 52.9645 25.6996 52.9645 24.9812 53.6839Z" fill="#F04572"/>
<path d="M241.874 163.725L238.736 166.867C238.018 167.586 238.018 168.753 238.736 169.472L241.874 172.614C242.592 173.334 243.757 173.334 244.475 172.614L247.612 169.472C248.331 168.753 248.331 167.586 247.612 166.867L244.475 163.725C243.757 163.005 242.592 163.005 241.874 163.725Z" fill="#50C7B3"/>
<path d="M36.5 77C37.8807 77 39 76.1046 39 75C39 73.8954 37.8807 73 36.5 73C35.1193 73 34 73.8954 34 75C34 76.1046 35.1193 77 36.5 77Z" fill="#2C2C7C"/>
<path d="M231 189C232.105 189 233 187.881 233 186.5C233 185.119 232.105 184 231 184C229.895 184 229 185.119 229 186.5C229 187.881 229.895 189 231 189Z" fill="#2C2C7C"/>
</svg>
