<svg width="37" height="37" viewBox="0 0 37 37" fill="none" xmlns="http://www.w3.org/2000/svg">
<circle cx="18.5" cy="18.5" r="18.5" fill="#CA0603"/>
<path d="M27 23H13C12.7348 23 12.4804 22.8946 12.2929 22.7071C12.1054 22.5196 12 22.2652 12 22C12 21.7348 12.1054 21.4804 12.2929 21.2929C12.4804 21.1054 12.7348 21 13 21H23.44C24.1087 21 24.7582 20.7767 25.2854 20.3654C25.8126 19.9542 26.1873 19.3786 26.35 18.73L28 12.24C28.0375 12.0924 28.0407 11.9382 28.0095 11.7892C27.9783 11.6401 27.9135 11.5002 27.82 11.38C27.7227 11.2567 27.5978 11.1581 27.4554 11.0921C27.3129 11.0261 27.1569 10.9945 27 11H12.76C12.5537 10.4165 12.1719 9.911 11.6671 9.55294C11.1622 9.19488 10.5589 9.00174 9.94 9H9C8.73478 9 8.48043 9.10536 8.29289 9.29289C8.10536 9.48043 8 9.73478 8 10C8 10.2652 8.10536 10.5196 8.29289 10.7071C8.48043 10.8946 8.73478 11 9 11H9.94C10.1684 10.9933 10.3923 11.0651 10.5742 11.2034C10.7562 11.3417 10.8852 11.5381 10.94 11.76L11 12.24L12.73 19C11.9344 19.0358 11.1855 19.3862 10.6482 19.9741C10.1109 20.5621 9.8292 21.3394 9.865 22.135C9.9008 22.9306 10.2512 23.6795 10.8391 24.2168C11.4271 24.7541 12.2044 25.0358 13 25H13.18C13.0155 25.4531 12.9627 25.9392 13.0259 26.4171C13.0892 26.895 13.2666 27.3506 13.5433 27.7454C13.82 28.1401 14.1877 28.4624 14.6154 28.6849C15.043 28.9074 15.5179 29.0235 16 29.0235C16.4821 29.0235 16.957 28.9074 17.3846 28.6849C17.8123 28.4624 18.18 28.1401 18.4567 27.7454C18.7334 27.3506 18.9108 26.895 18.9741 26.4171C19.0373 25.9392 18.9845 25.4531 18.82 25H21.18C21.0155 25.4531 20.9627 25.9392 21.0259 26.4171C21.0892 26.895 21.2666 27.3506 21.5433 27.7454C21.82 28.1401 22.1877 28.4624 22.6154 28.6849C23.043 28.9074 23.5179 29.0235 24 29.0235C24.4821 29.0235 24.957 28.9074 25.3846 28.6849C25.8123 28.4624 26.18 28.1401 26.4567 27.7454C26.7334 27.3506 26.9108 26.895 26.9741 26.4171C27.0373 25.9392 26.9845 25.4531 26.82 25H27C27.2652 25 27.5196 24.8946 27.7071 24.7071C27.8946 24.5196 28 24.2652 28 24C28 23.7348 27.8946 23.4804 27.7071 23.2929C27.5196 23.1054 27.2652 23 27 23ZM25.72 13L24.41 18.24C24.3552 18.4619 24.2262 18.6583 24.0442 18.7966C23.8623 18.9349 23.6384 19.0067 23.41 19H14.78L13.28 13H25.72ZM16 27C15.8022 27 15.6089 26.9414 15.4444 26.8315C15.28 26.7216 15.1518 26.5654 15.0761 26.3827C15.0004 26.2 14.9806 25.9989 15.0192 25.8049C15.0578 25.6109 15.153 25.4327 15.2929 25.2929C15.4327 25.153 15.6109 25.0578 15.8049 25.0192C15.9989 24.9806 16.2 25.0004 16.3827 25.0761C16.5654 25.1518 16.7216 25.28 16.8315 25.4444C16.9414 25.6089 17 25.8022 17 26C17 26.2652 16.8946 26.5196 16.7071 26.7071C16.5196 26.8946 16.2652 27 16 27ZM24 27C23.8022 27 23.6089 26.9414 23.4444 26.8315C23.28 26.7216 23.1518 26.5654 23.0761 26.3827C23.0004 26.2 22.9806 25.9989 23.0192 25.8049C23.0578 25.6109 23.153 25.4327 23.2929 25.2929C23.4327 25.153 23.6109 25.0578 23.8049 25.0192C23.9989 24.9806 24.2 25.0004 24.3827 25.0761C24.5654 25.1518 24.7216 25.28 24.8315 25.4444C24.9414 25.6089 25 25.8022 25 26C25 26.2652 24.8946 26.5196 24.7071 26.7071C24.5196 26.8946 24.2652 27 24 27Z" fill="white"/>
</svg>
