<svg width="51" height="26" viewBox="0 0 51 26" fill="none" xmlns="http://www.w3.org/2000/svg">
<rect width="47" height="26" rx="4" fill="#464E5D"/>
<path opacity="0.2" fill-rule="evenodd" clip-rule="evenodd" d="M10.5906 0.000801324C8.22654 0.000801324 6.20904 0.886201 4.55833 2.37881C2.91437 3.86101 2.06994 5.68065 2.06994 7.85812C2.06994 10.0356 2.8345 12.1778 4.49713 13.7117C6.14268 15.2291 7.98771 15.695 10.3466 15.695H12.1729C12.8465 15.695 13.4338 15.9324 13.9234 16.3819C14.401 16.823 14.6565 17.3662 14.6565 18.0142C14.6565 18.6622 14.4245 19.1906 13.9432 19.6253C13.4902 20.0348 12.8584 20.2869 12.1729 20.2869H5.50211L2 26H11.9476C14.3978 26 16.4583 25.1947 18.1471 23.6492C19.8626 22.0765 20.7138 20.1765 20.7253 17.9357C20.75 13.6396 17.683 9.91151 12.7241 9.85307C12.074 9.84466 12.7392 9.87108 10.8214 9.87108C10.2162 9.87108 9.70678 9.66895 9.29668 9.28148C8.88023 8.88882 8.65809 8.4125 8.65293 7.85772C8.64935 7.30134 8.87506 6.83823 9.27681 6.45237C9.70479 6.03969 10.2174 5.86917 10.8214 5.86917H28.2191C28.8243 5.86917 29.3353 6.04129 29.7621 6.45237C30.1635 6.83663 30.386 7.30655 30.386 7.85772C30.386 8.40889 30.1524 8.89722 29.7438 9.28148C29.3405 9.66254 28.8148 9.87108 28.2191 9.87108L20.2842 9.87589L29.3091 26H37L30.603 15.6146C34.3705 15.0914 36.967 12.0369 36.967 7.85732C36.967 5.67985 36.1206 3.86021 34.4786 2.37801C32.8263 0.8858 30.8072 0 28.4464 0H18.2437" fill="white"/>
</svg>
