<svg width="28" height="28" viewBox="0 0 28 28" fill="none" xmlns="http://www.w3.org/2000/svg">
<path d="M26.2004 1.81326C25.691 1.29401 25.045 0.929555 24.3372 0.762031C23.6293 0.594506 22.8885 0.63076 22.2004 0.866599L3.33372 7.17326C2.57281 7.42233 1.90798 7.90146 1.431 8.54451C0.954015 9.18756 0.688412 9.96282 0.670852 10.7633C0.653292 11.5637 0.884641 12.3499 1.33296 13.0132C1.78128 13.6766 2.42447 14.1844 3.17372 14.4666L10.1604 17.1333C10.3195 17.1941 10.4643 17.2871 10.5859 17.4063C10.7075 17.5256 10.8032 17.6687 10.8671 17.8266L13.5337 24.8266C13.8052 25.5653 14.2977 26.2023 14.9443 26.6508C15.5909 27.0994 16.3601 27.3377 17.1471 27.3333H17.2404C18.0417 27.3187 18.8185 27.0537 19.4617 26.5755C20.1048 26.0973 20.5823 25.4298 20.8271 24.6666L27.1337 5.77326C27.3631 5.09185 27.3972 4.35985 27.2323 3.66005C27.0674 2.96024 26.7099 2.32053 26.2004 1.81326ZM24.6671 4.93326L18.2937 23.8399C18.2197 24.0792 18.0711 24.2886 17.8696 24.4373C17.668 24.586 17.4242 24.6664 17.1737 24.6666C16.9247 24.6707 16.6804 24.5989 16.4732 24.4607C16.266 24.3226 16.1057 24.1247 16.0137 23.8933L13.3471 16.8933C13.1537 16.3846 12.8556 15.9223 12.472 15.5364C12.0884 15.1505 11.6279 14.8496 11.1204 14.6533L4.12039 11.9866C3.88425 11.9001 3.68126 11.7415 3.5401 11.5334C3.39894 11.3252 3.32675 11.078 3.33372 10.8266C3.33393 10.5761 3.41428 10.3323 3.56302 10.1308C3.71177 9.92924 3.9211 9.7806 4.16039 9.7066L23.0671 3.39993C23.2841 3.31146 23.5222 3.28776 23.7524 3.3317C23.9827 3.37564 24.1953 3.48533 24.3645 3.64751C24.5338 3.8097 24.6524 4.01744 24.7061 4.24561C24.7598 4.47379 24.7462 4.71263 24.6671 4.93326Z" fill="#FB1909"/>
</svg>
