<svg width="31" height="31" viewBox="0 0 31 31" fill="none" xmlns="http://www.w3.org/2000/svg">
<path d="M16.4168 21.0413L16.223 20.8863C16.151 20.8374 16.0728 20.7983 15.9905 20.77L15.758 20.6667C15.5485 20.6229 15.3315 20.6319 15.1263 20.6927C14.9211 20.7536 14.7343 20.8645 14.5826 21.0155C14.4685 21.141 14.3768 21.2852 14.3113 21.4417C14.2136 21.6771 14.1876 21.9361 14.2368 22.1861C14.2859 22.4362 14.4079 22.6661 14.5874 22.847C14.7669 23.0279 14.9959 23.1516 15.2456 23.2027C15.4952 23.2537 15.7544 23.2297 15.9905 23.1338C16.1449 23.0589 16.2883 22.9633 16.4168 22.8496C16.596 22.668 16.7174 22.4373 16.7657 22.1868C16.8139 21.9362 16.7869 21.6769 16.688 21.4417C16.6236 21.2923 16.5316 21.1565 16.4168 21.0413ZM20.6663 2.58337H10.333C9.30529 2.58337 8.31967 2.99163 7.59297 3.71834C6.86627 4.44504 6.45801 5.43066 6.45801 6.45837V24.5417C6.45801 25.5694 6.86627 26.555 7.59297 27.2817C8.31967 28.0084 9.30529 28.4167 10.333 28.4167H20.6663C21.6941 28.4167 22.6797 28.0084 23.4064 27.2817C24.1331 26.555 24.5413 25.5694 24.5413 24.5417V6.45837C24.5413 5.43066 24.1331 4.44504 23.4064 3.71834C22.6797 2.99163 21.6941 2.58337 20.6663 2.58337ZM21.958 24.5417C21.958 24.8843 21.8219 25.2128 21.5797 25.4551C21.3375 25.6973 21.0089 25.8334 20.6663 25.8334H10.333C9.99044 25.8334 9.6619 25.6973 9.41966 25.4551C9.17743 25.2128 9.04134 24.8843 9.04134 24.5417V6.45837C9.04134 6.1158 9.17743 5.78726 9.41966 5.54503C9.6619 5.30279 9.99044 5.16671 10.333 5.16671H20.6663C21.0089 5.16671 21.3375 5.30279 21.5797 5.54503C21.8219 5.78726 21.958 6.1158 21.958 6.45837V24.5417Z" fill="#464E5D"/>
</svg>
