<svg width="16" height="16" viewBox="0 0 16 16" fill="none" xmlns="http://www.w3.org/2000/svg">
<path d="M11.3339 7.33338H6.27392L8.47392 5.14004C8.59945 5.01451 8.66998 4.84424 8.66998 4.66671C8.66998 4.48917 8.59945 4.31891 8.47392 4.19338C8.34838 4.06784 8.17812 3.99731 8.00058 3.99731C7.82305 3.99731 7.65278 4.06784 7.52725 4.19338L4.19392 7.52671C4.13322 7.59011 4.08564 7.66487 4.05392 7.74671C3.98724 7.90902 3.98724 8.09107 4.05392 8.25338C4.08564 8.33521 4.13322 8.40997 4.19392 8.47338L7.52725 11.8067C7.58922 11.8692 7.66296 11.9188 7.7442 11.9526C7.82544 11.9865 7.91257 12.0039 8.00058 12.0039C8.08859 12.0039 8.17573 11.9865 8.25697 11.9526C8.33821 11.9188 8.41194 11.8692 8.47392 11.8067C8.5364 11.7447 8.586 11.671 8.61984 11.5898C8.65369 11.5085 8.67111 11.4214 8.67111 11.3334C8.67111 11.2454 8.65369 11.1582 8.61984 11.077C8.586 10.9958 8.5364 10.922 8.47392 10.86L6.27392 8.66671H11.3339C11.5107 8.66671 11.6803 8.59647 11.8053 8.47145C11.9303 8.34642 12.0006 8.17685 12.0006 8.00004C12.0006 7.82323 11.9303 7.65366 11.8053 7.52864C11.6803 7.40361 11.5107 7.33338 11.3339 7.33338Z" fill="#C77C07"/>
</svg>
