<svg width="24" height="26" viewBox="0 0 24 26" fill="none" xmlns="http://www.w3.org/2000/svg">
<path d="M19.2014 8.20128C19.2014 6.29138 18.4427 4.45971 17.0922 3.1092C15.7417 1.7587 13.9101 1 12.0002 1C10.0903 1 8.25859 1.7587 6.90809 3.1092C5.55758 4.45971 4.79888 6.29138 4.79888 8.20128C4.79888 16.6028 1.19824 19.0032 1.19824 19.0032H22.8021C22.8021 19.0032 19.2014 16.6028 19.2014 8.20128Z" stroke="black" stroke-width="2" stroke-linecap="round" stroke-linejoin="round"/>
<path d="M14.0764 23.804C13.8654 24.1678 13.5626 24.4697 13.1982 24.6796C12.8338 24.8895 12.4206 25 12.0001 25C11.5795 25 11.1664 24.8895 10.802 24.6796C10.4376 24.4697 10.1347 24.1678 9.92371 23.804" stroke="black" stroke-width="2" stroke-linecap="round" stroke-linejoin="round"/>
</svg>
