<svg width="26" height="30" viewBox="0 0 26 30" fill="none" xmlns="http://www.w3.org/2000/svg">
<path d="M15.7998 1H4.5998C3.8572 1 3.14501 1.295 2.61991 1.8201C2.0948 2.3452 1.7998 3.05739 1.7998 3.8V26.2C1.7998 26.9426 2.0948 27.6548 2.61991 28.1799C3.14501 28.705 3.8572 29 4.5998 29H21.3998C22.1424 29 22.8546 28.705 23.3797 28.1799C23.9048 27.6548 24.1998 26.9426 24.1998 26.2V9.4L15.7998 1Z" stroke="black" stroke-width="2" stroke-linecap="round" stroke-linejoin="round"/>
<path d="M15.7998 1V9.4H24.1998" stroke="black" stroke-width="2" stroke-linecap="round" stroke-linejoin="round"/>
<path d="M18.5998 16.4H7.39978" stroke="black" stroke-width="2" stroke-linecap="round" stroke-linejoin="round"/>
<path d="M18.5998 22H7.39978" stroke="black" stroke-width="2" stroke-linecap="round" stroke-linejoin="round"/>
<path d="M10.1998 10.8H8.79978H7.39978" stroke="black" stroke-width="2" stroke-linecap="round" stroke-linejoin="round"/>
</svg>
