<svg width="29" height="29" viewBox="0 0 29 29" fill="none" xmlns="http://www.w3.org/2000/svg">
<circle cx="14.5" cy="14.5" r="14.5" transform="matrix(-1 0 0 1 29 0)" fill="white" fill-opacity="0.41"/>
<path d="M11.1703 14.2899L15.4103 10.0499C15.5033 9.95622 15.6139 9.88183 15.7357 9.83106C15.8576 9.78029 15.9883 9.75415 16.1203 9.75415C16.2523 9.75415 16.383 9.78029 16.5049 9.83106C16.6267 9.88183 16.7373 9.95622 16.8303 10.0499C17.0166 10.2373 17.1211 10.4908 17.1211 10.7549C17.1211 11.0191 17.0166 11.2726 16.8303 11.4599L13.2903 14.9999L16.8303 18.5399C17.0166 18.7273 17.1211 18.9808 17.1211 19.2449C17.1211 19.5091 17.0166 19.7626 16.8303 19.9499C16.7369 20.0426 16.626 20.116 16.5042 20.1657C16.3824 20.2155 16.2519 20.2407 16.1203 20.2399C15.9887 20.2407 15.8582 20.2155 15.7364 20.1657C15.6146 20.116 15.5037 20.0426 15.4103 19.9499L11.1703 15.7099C11.0766 15.617 11.0022 15.5064 10.9514 15.3845C10.9006 15.2627 10.8745 15.132 10.8745 14.9999C10.8745 14.8679 10.9006 14.7372 10.9514 14.6154C11.0022 14.4935 11.0766 14.3829 11.1703 14.2899Z" fill="white"/>
</svg>
