<svg width="136" height="38" viewBox="0 0 136 38" fill="none" xmlns="http://www.w3.org/2000/svg">
<path fill-rule="evenodd" clip-rule="evenodd" d="M8.50049 0H29.498C34.174 0 37.9997 3.82596 37.9997 8.50173V29.4982C37.9997 34.1755 34.1737 38 29.498 38H8.50049C3.82475 38 0 34.1755 0 29.4982V8.50173C0 3.82596 3.82475 0 8.50049 0Z" fill="white"/>
<path fill-rule="evenodd" clip-rule="evenodd" d="M12.3793 9.42696C10.6264 9.42696 9.13036 10.0788 7.90632 11.1776C6.68729 12.2687 6.06113 13.6083 6.06113 15.2113C6.06113 16.8143 6.62807 18.3913 7.86094 19.5205C9.08115 20.6376 10.4493 20.9806 12.1984 20.9806H13.5527C14.0521 20.9806 14.4877 21.1553 14.8507 21.4862C15.2049 21.8109 15.3943 22.2108 15.3943 22.6879C15.3943 23.1649 15.2223 23.5539 14.8654 23.8739C14.5295 24.1753 14.061 24.361 13.5527 24.361H8.60615L6.00927 28.5668H13.3856C15.2025 28.5668 16.7303 27.9739 17.9827 26.8362C19.2547 25.6784 19.8859 24.2796 19.8945 22.6301C19.9127 19.4674 17.6385 16.7229 13.9614 16.6799C13.4793 16.6737 13.9726 16.6931 12.5505 16.6931C12.1018 16.6931 11.724 16.5443 11.4199 16.2591C11.1111 15.97 10.9464 15.6194 10.9425 15.211C10.9399 14.8014 11.1073 14.4605 11.4052 14.1764C11.7225 13.8726 12.1026 13.7471 12.5505 13.7471H25.4512C25.9 13.7471 26.279 13.8738 26.5954 14.1764C26.893 14.4593 27.0581 14.8052 27.0581 15.211C27.0581 15.6167 26.8848 15.9762 26.5819 16.2591C26.2828 16.5396 25.8929 16.6931 25.4512 16.6931L19.5674 16.6967L26.2595 28.5668H31.9625L27.2189 20.9213C30.0127 20.5362 31.938 18.2876 31.938 15.2107C31.938 13.6077 31.3104 12.2681 30.0928 11.177C28.8676 10.0785 27.3704 9.42637 25.6198 9.42637H18.0543" fill="#FB1909"/>
<path d="M135.576 12.9V24H133.011V12.9H135.576Z" fill="white"/>
<path d="M129.877 14.76C129.427 14.76 129.057 14.63 128.767 14.37C128.487 14.1 128.347 13.77 128.347 13.38C128.347 12.98 128.487 12.65 128.767 12.39C129.057 12.12 129.427 11.985 129.877 11.985C130.317 11.985 130.677 12.12 130.957 12.39C131.247 12.65 131.392 12.98 131.392 13.38C131.392 13.77 131.247 14.1 130.957 14.37C130.677 14.63 130.317 14.76 129.877 14.76ZM131.152 15.63V24H128.587V15.63H131.152Z" fill="white"/>
<path d="M117.897 19.8C117.897 18.94 118.057 18.185 118.377 17.535C118.707 16.885 119.152 16.385 119.712 16.035C120.272 15.685 120.897 15.51 121.587 15.51C122.177 15.51 122.692 15.63 123.132 15.87C123.582 16.11 123.927 16.425 124.167 16.815V15.63H126.732V24H124.167V22.815C123.917 23.205 123.567 23.52 123.117 23.76C122.677 24 122.162 24.12 121.572 24.12C120.892 24.12 120.272 23.945 119.712 23.595C119.152 23.235 118.707 22.73 118.377 22.08C118.057 21.42 117.897 20.66 117.897 19.8ZM124.167 19.815C124.167 19.175 123.987 18.67 123.627 18.3C123.277 17.93 122.847 17.745 122.337 17.745C121.827 17.745 121.392 17.93 121.032 18.3C120.682 18.66 120.507 19.16 120.507 19.8C120.507 20.44 120.682 20.95 121.032 21.33C121.392 21.7 121.827 21.885 122.337 21.885C122.847 21.885 123.277 21.7 123.627 21.33C123.987 20.96 124.167 20.455 124.167 19.815Z" fill="white"/>
<path d="M116.978 21.825V24H115.673C114.743 24 114.018 23.775 113.498 23.325C112.978 22.865 112.718 22.12 112.718 21.09V17.76H111.698V15.63H112.718V13.59H115.283V15.63H116.963V17.76H115.283V21.12C115.283 21.37 115.343 21.55 115.463 21.66C115.583 21.77 115.783 21.825 116.063 21.825H116.978Z" fill="white"/>
<path d="M110.96 19.68C110.96 19.92 110.945 20.17 110.915 20.43H105.11C105.15 20.95 105.315 21.35 105.605 21.63C105.905 21.9 106.27 22.035 106.7 22.035C107.34 22.035 107.785 21.765 108.035 21.225H110.765C110.625 21.775 110.37 22.27 110 22.71C109.64 23.15 109.185 23.495 108.635 23.745C108.085 23.995 107.47 24.12 106.79 24.12C105.97 24.12 105.24 23.945 104.6 23.595C103.96 23.245 103.46 22.745 103.1 22.095C102.74 21.445 102.56 20.685 102.56 19.815C102.56 18.945 102.735 18.185 103.085 17.535C103.445 16.885 103.945 16.385 104.585 16.035C105.225 15.685 105.96 15.51 106.79 15.51C107.6 15.51 108.32 15.68 108.95 16.02C109.58 16.36 110.07 16.845 110.42 17.475C110.78 18.105 110.96 18.84 110.96 19.68ZM108.335 19.005C108.335 18.565 108.185 18.215 107.885 17.955C107.585 17.695 107.21 17.565 106.76 17.565C106.33 17.565 105.965 17.69 105.665 17.94C105.375 18.19 105.195 18.545 105.125 19.005H108.335Z" fill="white"/>
<path d="M98.6545 24L96.4645 20.025H95.8495V24H93.2845V13.47H97.5895C98.4195 13.47 99.1245 13.615 99.7045 13.905C100.294 14.195 100.735 14.595 101.025 15.105C101.315 15.605 101.459 16.165 101.459 16.785C101.459 17.485 101.26 18.11 100.86 18.66C100.47 19.21 99.8895 19.6 99.1195 19.83L101.549 24H98.6545ZM95.8495 18.21H97.4395C97.9095 18.21 98.2595 18.095 98.4895 17.865C98.7295 17.635 98.8495 17.31 98.8495 16.89C98.8495 16.49 98.7295 16.175 98.4895 15.945C98.2595 15.715 97.9095 15.6 97.4395 15.6H95.8495V18.21Z" fill="white"/>
<path d="M86.2548 17.025C86.5548 16.565 86.9298 16.205 87.3798 15.945C87.8298 15.675 88.3298 15.54 88.8798 15.54V18.255H88.1748C87.5348 18.255 87.0548 18.395 86.7348 18.675C86.4148 18.945 86.2548 19.425 86.2548 20.115V24H83.6898V15.63H86.2548V17.025Z" fill="white"/>
<path d="M82.3366 19.68C82.3366 19.92 82.3216 20.17 82.2916 20.43H76.4866C76.5266 20.95 76.6916 21.35 76.9816 21.63C77.2816 21.9 77.6466 22.035 78.0766 22.035C78.7166 22.035 79.1616 21.765 79.4116 21.225H82.1416C82.0016 21.775 81.7466 22.27 81.3766 22.71C81.0166 23.15 80.5616 23.495 80.0116 23.745C79.4616 23.995 78.8466 24.12 78.1666 24.12C77.3466 24.12 76.6166 23.945 75.9766 23.595C75.3366 23.245 74.8366 22.745 74.4766 22.095C74.1166 21.445 73.9366 20.685 73.9366 19.815C73.9366 18.945 74.1116 18.185 74.4616 17.535C74.8216 16.885 75.3216 16.385 75.9616 16.035C76.6016 15.685 77.3366 15.51 78.1666 15.51C78.9766 15.51 79.6966 15.68 80.3266 16.02C80.9566 16.36 81.4466 16.845 81.7966 17.475C82.1566 18.105 82.3366 18.84 82.3366 19.68ZM79.7116 19.005C79.7116 18.565 79.5616 18.215 79.2616 17.955C78.9616 17.695 78.5866 17.565 78.1366 17.565C77.7066 17.565 77.3416 17.69 77.0416 17.94C76.7516 18.19 76.5716 18.545 76.5016 19.005H79.7116Z" fill="white"/>
<path d="M66.8309 16.815C67.0809 16.425 67.4259 16.11 67.8659 15.87C68.3059 15.63 68.8209 15.51 69.4109 15.51C70.1009 15.51 70.7259 15.685 71.2859 16.035C71.8459 16.385 72.2859 16.885 72.6059 17.535C72.9359 18.185 73.1009 18.94 73.1009 19.8C73.1009 20.66 72.9359 21.42 72.6059 22.08C72.2859 22.73 71.8459 23.235 71.2859 23.595C70.7259 23.945 70.1009 24.12 69.4109 24.12C68.8309 24.12 68.3159 24 67.8659 23.76C67.4259 23.52 67.0809 23.21 66.8309 22.83V27.99H64.2659V15.63H66.8309V16.815ZM70.4909 19.8C70.4909 19.16 70.3109 18.66 69.9509 18.3C69.6009 17.93 69.1659 17.745 68.6459 17.745C68.1359 17.745 67.7009 17.93 67.3409 18.3C66.9909 18.67 66.8159 19.175 66.8159 19.815C66.8159 20.455 66.9909 20.96 67.3409 21.33C67.7009 21.7 68.1359 21.885 68.6459 21.885C69.1559 21.885 69.5909 21.7 69.9509 21.33C70.3109 20.95 70.4909 20.44 70.4909 19.8Z" fill="white"/>
<path d="M62.4235 15.63V24H59.8585V22.86C59.5985 23.23 59.2435 23.53 58.7935 23.76C58.3535 23.98 57.8635 24.09 57.3235 24.09C56.6835 24.09 56.1185 23.95 55.6285 23.67C55.1385 23.38 54.7585 22.965 54.4885 22.425C54.2185 21.885 54.0835 21.25 54.0835 20.52V15.63H56.6335V20.175C56.6335 20.735 56.7785 21.17 57.0685 21.48C57.3585 21.79 57.7485 21.945 58.2385 21.945C58.7385 21.945 59.1335 21.79 59.4235 21.48C59.7135 21.17 59.8585 20.735 59.8585 20.175V15.63H62.4235Z" fill="white"/>
<path d="M48.74 24.105C47.97 24.105 47.28 23.98 46.67 23.73C46.06 23.48 45.57 23.11 45.2 22.62C44.84 22.13 44.65 21.54 44.63 20.85H47.36C47.4 21.24 47.535 21.54 47.765 21.75C47.995 21.95 48.295 22.05 48.665 22.05C49.045 22.05 49.345 21.965 49.565 21.795C49.785 21.615 49.895 21.37 49.895 21.06C49.895 20.8 49.805 20.585 49.625 20.415C49.455 20.245 49.24 20.105 48.98 19.995C48.73 19.885 48.37 19.76 47.9 19.62C47.22 19.41 46.665 19.2 46.235 18.99C45.805 18.78 45.435 18.47 45.125 18.06C44.815 17.65 44.66 17.115 44.66 16.455C44.66 15.475 45.015 14.71 45.725 14.16C46.435 13.6 47.36 13.32 48.5 13.32C49.66 13.32 50.595 13.6 51.305 14.16C52.015 14.71 52.395 15.48 52.445 16.47H49.67C49.65 16.13 49.525 15.865 49.295 15.675C49.065 15.475 48.77 15.375 48.41 15.375C48.1 15.375 47.85 15.46 47.66 15.63C47.47 15.79 47.375 16.025 47.375 16.335C47.375 16.675 47.535 16.94 47.855 17.13C48.175 17.32 48.675 17.525 49.355 17.745C50.035 17.975 50.585 18.195 51.005 18.405C51.435 18.615 51.805 18.92 52.115 19.32C52.425 19.72 52.58 20.235 52.58 20.865C52.58 21.465 52.425 22.01 52.115 22.5C51.815 22.99 51.375 23.38 50.795 23.67C50.215 23.96 49.53 24.105 48.74 24.105Z" fill="white"/>
</svg>
