<svg width="37" height="37" viewBox="0 0 37 37" fill="none" xmlns="http://www.w3.org/2000/svg">
<circle cx="18.5" cy="18.5" r="18.5" fill="#CA0603"/>
<path d="M24 19.18V16C23.9986 14.5831 23.4958 13.2125 22.5806 12.1308C21.6655 11.0491 20.3971 10.3261 19 10.09V9C19 8.73478 18.8946 8.48043 18.7071 8.29289C18.5196 8.10536 18.2652 8 18 8C17.7348 8 17.4804 8.10536 17.2929 8.29289C17.1054 8.48043 17 8.73478 17 9V10.09C15.6029 10.3261 14.3345 11.0491 13.4194 12.1308C12.5042 13.2125 12.0014 14.5831 12 16V19.18C11.4165 19.3863 10.911 19.7681 10.5529 20.2729C10.1949 20.7778 10.0017 21.3811 10 22V24C10 24.2652 10.1054 24.5196 10.2929 24.7071C10.4804 24.8946 10.7348 25 11 25H14.14C14.3703 25.8474 14.873 26.5954 15.5706 27.1287C16.2682 27.6621 17.1219 27.951 18 27.951C18.8781 27.951 19.7318 27.6621 20.4294 27.1287C21.127 26.5954 21.6297 25.8474 21.86 25H25C25.2652 25 25.5196 24.8946 25.7071 24.7071C25.8946 24.5196 26 24.2652 26 24V22C25.9983 21.3811 25.8051 20.7778 25.4471 20.2729C25.089 19.7681 24.5835 19.3863 24 19.18ZM14 16C14 14.9391 14.4214 13.9217 15.1716 13.1716C15.9217 12.4214 16.9391 12 18 12C19.0609 12 20.0783 12.4214 20.8284 13.1716C21.5786 13.9217 22 14.9391 22 16V19H14V16ZM18 26C17.651 25.9979 17.3086 25.9045 17.0068 25.7291C16.7051 25.5536 16.4545 25.3023 16.28 25H19.72C19.5455 25.3023 19.2949 25.5536 18.9932 25.7291C18.6914 25.9045 18.349 25.9979 18 26ZM24 23H12V22C12 21.7348 12.1054 21.4804 12.2929 21.2929C12.4804 21.1054 12.7348 21 13 21H23C23.2652 21 23.5196 21.1054 23.7071 21.2929C23.8946 21.4804 24 21.7348 24 22V23Z" fill="white"/>
</svg>
