<svg width="42" height="31" viewBox="0 0 42 31" fill="none" xmlns="http://www.w3.org/2000/svg">
<circle cx="11" cy="20" r="9.5" stroke="#FB1909" stroke-width="3"/>
<circle cx="26.5" cy="15.5" r="15" fill="#FB1909" stroke="white"/>
<path fill-rule="evenodd" clip-rule="evenodd" d="M21.418 9.0004C20.2022 9.0004 19.1647 9.4431 18.3157 10.1894C17.4702 10.9305 17.036 11.8403 17.036 12.9291C17.036 14.0178 17.4292 15.0889 18.2842 15.8558C19.1305 16.6146 20.0794 16.8475 21.2925 16.8475H22.2318C22.5782 16.8475 22.8802 16.9662 23.132 17.1909C23.3777 17.4115 23.5091 17.6831 23.5091 18.0071C23.5091 18.3311 23.3897 18.5953 23.1422 18.8126C22.9093 19.0174 22.5843 19.1435 22.2318 19.1435H18.8011L17 22H22.1159C23.376 22 24.4357 21.5973 25.3042 20.8246C26.1865 20.0383 26.6242 19.0882 26.6302 17.9679C26.6428 15.8198 25.0655 13.9558 22.5152 13.9265C22.1809 13.9223 22.523 13.9355 21.5367 13.9355C21.2255 13.9355 20.9635 13.8345 20.7526 13.6407C20.5384 13.4444 20.4242 13.2062 20.4215 12.9289C20.4197 12.6507 20.5357 12.4191 20.7424 12.2262C20.9625 12.0198 21.2261 11.9346 21.5367 11.9346H30.4841C30.7954 11.9346 31.0582 12.0206 31.2777 12.2262C31.4841 12.4183 31.5985 12.6533 31.5985 12.9289C31.5985 13.2044 31.4784 13.4486 31.2683 13.6407C31.0608 13.8313 30.7905 13.9355 30.4841 13.9355L26.4033 13.9379L31.0447 22H35L31.7101 16.8073C33.6477 16.5457 34.983 15.0185 34.983 12.9287C34.983 11.8399 34.5477 10.9301 33.7033 10.189C32.8535 9.4429 31.8151 9 30.601 9H25.3539" fill="white"/>
</svg>
