<svg width="16" height="16" viewBox="0 0 16 16" fill="none" xmlns="http://www.w3.org/2000/svg">
<path d="M14.4735 13.5266L12.0001 11.0733C12.9602 9.87621 13.4251 8.3568 13.2993 6.82747C13.1735 5.29814 12.4666 3.87512 11.3238 2.85103C10.181 1.82694 8.68926 1.27961 7.15531 1.32158C5.62136 1.36356 4.1618 1.99164 3.07672 3.0767C1.99165 4.16175 1.36356 5.62129 1.32158 7.15522C1.27961 8.68914 1.82695 10.1808 2.85106 11.3236C3.87516 12.4664 5.2982 13.1733 6.82756 13.2991C8.35691 13.4249 9.87634 12.96 11.0734 11.9999L13.5268 14.4533C13.5888 14.5158 13.6625 14.5654 13.7437 14.5992C13.825 14.633 13.9121 14.6505 14.0001 14.6505C14.0881 14.6505 14.1753 14.633 14.2565 14.5992C14.3378 14.5654 14.4115 14.5158 14.4735 14.4533C14.5936 14.329 14.6608 14.1628 14.6608 13.9899C14.6608 13.817 14.5936 13.6509 14.4735 13.5266ZM7.33336 11.9999C6.41037 11.9999 5.5081 11.7262 4.74066 11.2135C3.97322 10.7007 3.37507 9.97185 3.02186 9.11913C2.66864 8.2664 2.57623 7.32809 2.75629 6.42285C2.93636 5.5176 3.38083 4.68608 4.03348 4.03344C4.68614 3.38079 5.51767 2.93634 6.42293 2.75627C7.32819 2.57621 8.26651 2.66862 9.11925 3.02183C9.97198 3.37504 10.7008 3.97318 11.2136 4.74061C11.7264 5.50804 12.0001 6.41029 12.0001 7.33327C12.0001 8.57095 11.5084 9.75793 10.6332 10.6331C9.75806 11.5083 8.57106 11.9999 7.33336 11.9999Z" fill="#030302"/>
</svg>
