<svg xmlns="http://www.w3.org/2000/svg" width="18.062" height="16" viewBox="0 0 18.062 16">
  <path id="favorite_FILL0_wght500_GRAD0_opsz24" d="M79.539,209.085,78,207.676a57.9,57.9,0,0,1-4.231-4.261,6.953,6.953,0,0,1-1.9-4.733,4.934,4.934,0,0,1,5.041-5.052,5.211,5.211,0,0,1,2.2.474,5.358,5.358,0,0,1,1.786,1.315,5.358,5.358,0,0,1,1.786-1.315,5.211,5.211,0,0,1,2.2-.474,4.946,4.946,0,0,1,5.057,5.052,7,7,0,0,1-1.893,4.744,52.5,52.5,0,0,1-4.272,4.277l-1.515,1.382a1.959,1.959,0,0,1-2.712,0Zm.476-11.616a4.916,4.916,0,0,0-1.348-1.351,3.169,3.169,0,0,0-1.755-.476,2.96,2.96,0,0,0-3.03,3.039,4.576,4.576,0,0,0,.811,2.423,16.74,16.74,0,0,0,1.939,2.489q1.128,1.206,2.322,2.258t1.939,1.732q.747-.686,1.943-1.738t2.326-2.257A16.911,16.911,0,0,0,87.1,201.1a4.55,4.55,0,0,0,.813-2.423,2.966,2.966,0,0,0-3.041-3.039,3.163,3.163,0,0,0-1.756.476,4.933,4.933,0,0,0-1.345,1.351,1.048,1.048,0,0,1-.883.474,1.036,1.036,0,0,1-.878-.474ZM80.9,201.613Z" transform="translate(-71.869 -193.63)" fill="#fff"/>
</svg>
