<svg xmlns="http://www.w3.org/2000/svg" width="12.5" height="15.5" viewBox="0 0 12.5 15.5">
  <path id="kitchen_FILL0_wght400_GRAD0_opsz48" d="M163.353,180.313a.538.538,0,0,1-.4-.162.548.548,0,0,1-.159-.4v-1.087a.543.543,0,0,1,.163-.4.549.549,0,0,1,.4-.162.538.538,0,0,1,.4.162.548.548,0,0,1,.159.4v1.087a.543.543,0,0,1-.163.4A.549.549,0,0,1,163.353,180.313Zm0,6.769a.538.538,0,0,1-.4-.162.548.548,0,0,1-.159-.4v-2.55a.543.543,0,0,1,.163-.4.549.549,0,0,1,.4-.162.538.538,0,0,1,.4.162.548.548,0,0,1,.159.4v2.55a.543.543,0,0,1-.163.4A.549.549,0,0,1,163.353,187.081ZM161.125,191A1.128,1.128,0,0,1,160,189.875v-12.75A1.128,1.128,0,0,1,161.125,176h9.75A1.128,1.128,0,0,1,172,177.125v12.75A1.128,1.128,0,0,1,170.875,191Zm0-1.125h9.75v-7.462h-9.75Zm0-8.588h9.75v-4.162h-9.75Z" transform="translate(-159.75 -175.75)" fill="#fff" stroke="#fff" stroke-width="0.5"/>
</svg>
