<svg width="39" height="42" viewBox="0 0 39 42" fill="none" xmlns="http://www.w3.org/2000/svg">
<path d="M35 20.2222C35.0053 22.2754 34.5256 24.3007 33.6 26.1333C32.5024 28.3294 30.8151 30.1765 28.7271 31.4678C26.6391 32.7591 24.2328 33.4435 21.7778 33.4444C19.7246 33.4498 17.6993 32.9701 15.8667 32.0444L7 35L9.95555 26.1333C9.02989 24.3007 8.5502 22.2754 8.55555 20.2222C8.5565 17.7672 9.24095 15.3609 10.5322 13.2729C11.8235 11.1849 13.6706 9.49759 15.8667 8.40004C17.6993 7.47438 19.7246 6.99469 21.7778 7.00004H22.5555C25.7978 7.17892 28.8603 8.54745 31.1564 10.8436C33.4526 13.1397 34.8211 16.2022 35 19.4445V20.2222Z" stroke="black" stroke-width="2" stroke-linecap="round" stroke-linejoin="round"/>
</svg>
