<svg width="29" height="29" viewBox="0 0 29 29" fill="none" xmlns="http://www.w3.org/2000/svg">
<circle cx="14.5" cy="14.5" r="14.5" fill="white" fill-opacity="0.41"/>
<path d="M17.8297 14.2899L13.5897 10.0499C13.4967 9.95622 13.3861 9.88183 13.2643 9.83106C13.1424 9.78029 13.0117 9.75415 12.8797 9.75415C12.7477 9.75415 12.617 9.78029 12.4951 9.83106C12.3733 9.88183 12.2627 9.95622 12.1697 10.0499C11.9834 10.2373 11.8789 10.4908 11.8789 10.7549C11.8789 11.0191 11.9834 11.2726 12.1697 11.4599L15.7097 14.9999L12.1697 18.5399C11.9834 18.7273 11.8789 18.9808 11.8789 19.2449C11.8789 19.5091 11.9834 19.7626 12.1697 19.9499C12.2631 20.0426 12.374 20.116 12.4958 20.1657C12.6176 20.2155 12.7481 20.2407 12.8797 20.2399C13.0113 20.2407 13.1418 20.2155 13.2636 20.1657C13.3854 20.116 13.4963 20.0426 13.5897 19.9499L17.8297 15.7099C17.9234 15.617 17.9978 15.5064 18.0486 15.3845C18.0994 15.2627 18.1255 15.132 18.1255 14.9999C18.1255 14.8679 18.0994 14.7372 18.0486 14.6154C17.9978 14.4935 17.9234 14.3829 17.8297 14.2899Z" fill="white"/>
</svg>
