<svg xmlns="http://www.w3.org/2000/svg" width="11.867" height="15.2" viewBox="0 0 11.867 15.2">
  <path id="medication_FILL0_wght400_GRAD0_opsz48" d="M205.838,227.9a.761.761,0,0,0,.578-.243.829.829,0,0,0,.229-.59v-1.479h1.542a.8.8,0,0,0,.59-.244.811.811,0,0,0,.243-.594.8.8,0,0,0-.243-.589.81.81,0,0,0-.59-.24h-1.542v-1.5a.784.784,0,0,0-.808-.813.837.837,0,0,0-.594.229.765.765,0,0,0-.244.583v1.5h-1.521a.8.8,0,0,0-.59.244.811.811,0,0,0-.243.594.8.8,0,0,0,.243.589.809.809,0,0,0,.59.24H205v1.5a.765.765,0,0,0,.244.583A.837.837,0,0,0,205.838,227.9ZM201.25,231a1.254,1.254,0,0,1-1.25-1.25v-9.979a1.254,1.254,0,0,1,1.25-1.25h9.167a1.254,1.254,0,0,1,1.25,1.25v10.083a1.039,1.039,0,0,1-.367.833,1.317,1.317,0,0,1-.883.313Zm0-1.146h9.167V219.771H201.25Zm.208-12.6a.6.6,0,0,1-.445-.181.61.61,0,0,1-.18-.448.6.6,0,0,1,.18-.444.609.609,0,0,1,.445-.177h8.771a.6.6,0,0,1,.445.181.61.61,0,0,1,.18.448.6.6,0,0,1-.18.444.609.609,0,0,1-.445.177Zm-.208,2.521v0Z" transform="translate(-199.9 -215.9)" fill="#fff" stroke="#fff" stroke-width="0.2"/>
</svg>
