<svg xmlns="http://www.w3.org/2000/svg" width="18.6" height="12.803" viewBox="0 0 18.6 12.803">
  <path id="menu_FILL0_wght500_GRAD0_opsz48" d="M116.777,341.268a.812.812,0,0,1-.6-.244.821.821,0,0,1-.243-.6.806.806,0,0,1,.243-.6.82.82,0,0,1,.6-.24h16.316a.812.812,0,0,1,.6.244.821.821,0,0,1,.243.6.806.806,0,0,1-.243.6.82.82,0,0,1-.6.24Zm0-5.257a.812.812,0,0,1-.6-.244.821.821,0,0,1-.243-.6.806.806,0,0,1,.243-.6.82.82,0,0,1,.6-.24h16.316a.812.812,0,0,1,.6.244.821.821,0,0,1,.243.6.806.806,0,0,1-.243.6.819.819,0,0,1-.6.24Zm0-5.256a.812.812,0,0,1-.6-.244.845.845,0,0,1,.6-1.446h16.316a.807.807,0,0,1,.6.247.83.83,0,0,1,.243.605.806.806,0,0,1-.243.6.82.82,0,0,1-.6.24Z" transform="translate(-115.635 -328.765)" fill="#fff" stroke="#fff" stroke-width="0.6"/>
</svg>
