<svg width="19" height="17" viewBox="0 0 19 17" fill="none" xmlns="http://www.w3.org/2000/svg">
<path d="M1.77394 4.864C2.0726 4.34133 2.50994 3.91467 3.08594 3.584C3.66194 3.25333 4.31794 3.088 5.05394 3.088C5.84327 3.088 6.5526 3.27467 7.18194 3.648C7.81127 4.02133 8.30727 4.54933 8.66994 5.232C9.0326 5.904 9.21394 6.688 9.21394 7.584C9.21394 8.46933 9.0326 9.25867 8.66994 9.952C8.30727 10.6453 7.80594 11.184 7.16594 11.568C6.5366 11.952 5.8326 12.144 5.05394 12.144C4.2966 12.144 3.62994 11.9787 3.05394 11.648C2.4886 11.3173 2.06194 10.896 1.77394 10.384V12H0.317938V0.16H1.77394V4.864ZM7.72594 7.584C7.72594 6.92267 7.5926 6.34667 7.32594 5.856C7.05927 5.36533 6.6966 4.992 6.23794 4.736C5.78994 4.48 5.29394 4.352 4.74994 4.352C4.2166 4.352 3.7206 4.48533 3.26194 4.752C2.81394 5.008 2.45127 5.38667 2.17394 5.888C1.90727 6.37867 1.77394 6.94933 1.77394 7.6C1.77394 8.26133 1.90727 8.84267 2.17394 9.344C2.45127 9.83467 2.81394 10.2133 3.26194 10.48C3.7206 10.736 4.2166 10.864 4.74994 10.864C5.29394 10.864 5.78994 10.736 6.23794 10.48C6.6966 10.2133 7.05927 9.83467 7.32594 9.344C7.5926 8.84267 7.72594 8.256 7.72594 7.584ZM18.6824 3.232L13.4024 16.128H11.8984L13.6264 11.904L10.0904 3.232H11.7064L14.4584 10.336L17.1784 3.232H18.6824Z" fill="white"/>
</svg>
