<svg width="284" height="304" viewBox="0 0 284 304" fill="none" xmlns="http://www.w3.org/2000/svg">
<path d="M17.4499 247.042L14.4166 250.075C13.7222 250.769 13.7222 251.895 14.4166 252.59L17.4499 255.622C18.1443 256.317 19.2703 256.317 19.9648 255.622L22.998 252.59C23.6925 251.895 23.6925 250.769 22.998 250.075L19.9648 247.042C19.2703 246.348 18.1443 246.348 17.4499 247.042Z" fill="#F04572"/>
<path d="M241.985 53.5086L238.951 56.5413C238.257 57.2357 238.257 58.3614 238.951 59.0557L241.985 62.0884C242.679 62.7827 243.805 62.7827 244.5 62.0884L247.533 59.0557C248.227 58.3614 248.227 57.2357 247.533 56.5413L244.5 53.5086C243.805 52.8143 242.679 52.8143 241.985 53.5086Z" fill="#F2D34E"/>
<path d="M225.514 69.1216C226.719 69.1216 227.696 68.1448 227.696 66.9399C227.696 65.7349 226.719 64.7581 225.514 64.7581C224.309 64.7581 223.332 65.7349 223.332 66.9399C223.332 68.1448 224.309 69.1216 225.514 69.1216Z" fill="white"/>
<path d="M30.7973 267.162C32.0025 267.162 32.9795 266.185 32.9795 264.98C32.9795 263.775 32.0025 262.798 30.7973 262.798C29.5922 262.798 28.6152 263.775 28.6152 264.98C28.6152 266.185 29.5922 267.162 30.7973 267.162Z" fill="white"/>
<path d="M199.697 3.53754C187.195 7.34456 175.938 15.8713 170.046 27.5367C163.021 41.4415 164.212 58.5494 170.725 72.6985C177.238 86.8476 188.556 98.3195 201.105 107.549C209.108 113.432 217.87 118.603 227.553 120.822C237.235 123.041 247.993 122.017 256.151 116.35C264.31 110.684 269.142 99.8871 266.271 90.3797C263.594 81.5103 254.872 74.0455 256.45 64.9148C257.18 60.6836 260.057 57.1989 262.104 53.4258C275.434 28.8329 250.833 4.57243 227.105 1.60688C217.948 0.46342 208.555 0.843444 199.694 3.54093L199.697 3.53754Z" stroke="white" stroke-width="2" stroke-miterlimit="10"/>
<path d="M210.876 148.757L77.7307 93.4839L110.555 31.5502L243.893 86.9047L210.876 148.757Z" fill="#50C7B3"/>
<path d="M201.397 137.618L93.4876 92.8222C92.6765 90.5557 92.2218 89.2833 91.4141 87.0167L113.677 45.0309C116.171 44.1317 117.566 43.6261 120.06 42.7236L228.099 87.5732C228.907 89.8431 229.358 91.1155 230.162 93.3855L207.784 135.324C205.29 136.22 203.892 136.722 201.401 137.618H201.397Z" stroke="#68E0C9" stroke-width="3" stroke-miterlimit="10"/>
<path d="M179.671 98.051C185.009 88.0244 180.865 76.376 170.413 72.0397C159.96 67.6999 147.162 72.3179 141.834 82.3444C136.506 92.3676 140.657 104.006 151.103 108.342C161.545 112.678 174.336 108.074 179.671 98.051Z" fill="#68E0C9"/>
<path d="M182.983 99.4252C189.258 87.6444 184.388 73.9568 172.103 68.857C159.818 63.7572 144.783 69.1827 138.522 80.9703C132.264 92.751 137.141 106.422 149.412 111.518C161.684 116.611 176.711 111.203 182.983 99.4285V99.4252Z" stroke="white" stroke-width="3" stroke-miterlimit="10"/>
<path d="M168.913 84.8757C168.814 83.0705 167.742 81.4079 165.913 80.5699C165.088 80.1898 164.165 80.0813 163.232 80.1864C159.349 80.614 158.402 85.0725 159.963 87.641C160.629 88.737 161.569 89.6565 162.393 90.6507C163.554 92.0486 164.915 94.1896 163.656 96.0185C162.814 97.24 161.419 98.1629 159.906 98.4242C155.328 99.2114 152.321 94.417 154.452 90.7355" stroke="#2C2C7C" stroke-width="3" stroke-miterlimit="10"/>
<path d="M167.165 78.1404L154.703 101.566" stroke="#2C2C7C" stroke-width="3" stroke-miterlimit="10"/>
<path d="M124.601 55.2202C124.157 53.975 122.69 53.3676 121.323 53.8596L118.676 54.8165C117.311 55.3085 116.561 56.7166 117.006 57.9618L117.868 60.3743C118.313 61.6196 119.779 62.2269 121.143 61.7349L123.79 60.7781C125.154 60.2861 125.904 58.878 125.46 57.6327L124.601 55.2202Z" stroke="#2C2C7C" stroke-width="2" stroke-miterlimit="10"/>
<path d="M139.337 63.3907L138.478 60.9783C138.033 59.733 136.567 59.1256 135.2 59.6176L132.553 60.5745C131.188 61.0665 130.438 62.4746 130.883 63.7199L131.741 66.1323C132.186 67.3776 133.652 67.9849 135.016 67.493L137.663 66.5361C139.031 66.0441 139.778 64.636 139.333 63.3907H139.337Z" fill="#68E0C9"/>
<path d="M189.563 114.596C189.122 113.354 187.656 112.743 186.288 113.235L183.641 114.188C182.274 114.68 181.527 116.085 181.968 117.327L182.827 119.736C183.268 120.978 184.734 121.585 186.102 121.097L188.749 120.143C190.117 119.651 190.863 118.247 190.422 117.005L189.563 114.596Z" stroke="#2C2C7C" stroke-width="2" stroke-miterlimit="10"/>
<path d="M204.285 122.759L203.43 120.35C202.989 119.108 201.523 118.498 200.155 118.99L197.508 119.943C196.14 120.435 195.394 121.84 195.835 123.082L196.69 125.487C197.131 126.729 198.597 127.337 199.965 126.848L202.612 125.894C203.98 125.402 204.73 123.998 204.285 122.756V122.759Z" fill="#68E0C9"/>
<path d="M186.747 106.808L207.808 115.552" stroke="white" stroke-width="5" stroke-miterlimit="10"/>
<path d="M49.583 36.4024L42.8295 46.0014" stroke="#2C2C7C" stroke-width="2" stroke-miterlimit="10"/>
<path d="M43.8951 36.5551L42.0524 39.1745L45.8363 33.7965L46.9766 32.178" stroke="#2C2C7C" stroke-width="2" stroke-miterlimit="10"/>
<path d="M53.1905 43.0935L46.4337 52.6891" stroke="#2C2C7C" stroke-width="2" stroke-miterlimit="10"/>
<path d="M57.3274 49.0246L50.5706 58.6236" stroke="#2C2C7C" stroke-width="2" stroke-miterlimit="10"/>
<path d="M62.3772 53.6629L55.6204 63.2619" stroke="#2C2C7C" stroke-width="2" stroke-miterlimit="10"/>
<path d="M67.9362 57.5751L61.1793 67.1741" stroke="#2C2C7C" stroke-width="2" stroke-miterlimit="10"/>
<path d="M79.0472 64.307L72.2903 73.9026" stroke="#2C2C7C" stroke-width="2" stroke-miterlimit="10"/>
<path d="M85.1151 67.0621L78.3582 76.6611" stroke="#2C2C7C" stroke-width="2" stroke-miterlimit="10"/>
<path d="M91.1796 69.8207L84.83 78.8429" stroke="#2C2C7C" stroke-width="2" stroke-miterlimit="10"/>
<path d="M97.2476 72.5793L92.4557 79.3858" stroke="#2C2C7C" stroke-width="2" stroke-miterlimit="10"/>
<path d="M73.495 61.4873L66.7416 71.0863" stroke="#2C2C7C" stroke-width="2" stroke-miterlimit="10"/>
<path d="M45.8363 33.7965L42.0489 39.1745C40.705 47.328 50.2889 60.5407 64.9089 70.0684C79.3186 79.457 93.7894 82.0663 99.1446 76.7086L102.661 71.714" stroke="#2C2C7C" stroke-width="2" stroke-miterlimit="10"/>
<path d="M69.728 63.9134C53.8387 53.4084 43.2096 39.5715 45.9891 33.0093C48.7651 26.4471 63.8976 29.64 79.787 40.1449C95.6763 50.6499 106.305 64.4868 103.526 71.049C100.75 77.6112 85.6174 74.4183 69.728 63.9134Z" fill="#F4B04D"/>
<mask id="mask0_5_10331" style="mask-type:luminance" maskUnits="userSpaceOnUse" x="53" y="34" width="45" height="35">
<path d="M71.6013 60.1098C59.5265 52.1259 51.4495 41.6141 53.5604 36.6263C55.6713 31.6385 67.1692 34.0679 79.244 42.0484C91.3188 50.0323 99.3958 60.5441 97.2849 65.5319C95.174 70.5197 83.6761 68.0903 71.6013 60.1098Z" fill="white"/>
</mask>
<g mask="url(#mask0_5_10331)">
<path d="M71.6013 60.1098C59.5265 52.1259 51.4495 41.6141 53.5604 36.6263C55.6713 31.6385 67.1692 34.0679 79.244 42.0484C91.3188 50.0323 99.3958 60.5441 97.2849 65.5319C95.174 70.5197 83.6761 68.0903 71.6013 60.1098Z" fill="#F2D34E"/>
<path d="M52.6135 38.3059C54.3715 33.9017 65.6929 36.779 77.8966 44.7324C90.1004 52.6857 98.5677 62.7021 96.8097 67.1063" stroke="#2C2C7C" stroke-width="2" stroke-miterlimit="10"/>
</g>
<path d="M55.5286 275.607L65.6622 281.532" stroke="#2C2C7C" stroke-width="2" stroke-miterlimit="10"/>
<path d="M56.1599 281.264L58.9258 282.879L53.2481 279.56L51.5377 278.563" stroke="#2C2C7C" stroke-width="2" stroke-miterlimit="10"/>
<path d="M61.8918 271.454L72.0288 277.375" stroke="#2C2C7C" stroke-width="2" stroke-miterlimit="10"/>
<path d="M67.4575 266.833L77.5945 272.754" stroke="#2C2C7C" stroke-width="2" stroke-miterlimit="10"/>
<path d="M71.6555 261.411L81.7925 267.335" stroke="#2C2C7C" stroke-width="2" stroke-miterlimit="10"/>
<path d="M75.0865 255.544L85.2235 261.465" stroke="#2C2C7C" stroke-width="2" stroke-miterlimit="10"/>
<path d="M80.8593 243.909L90.9929 249.83" stroke="#2C2C7C" stroke-width="2" stroke-miterlimit="10"/>
<path d="M83.0991 237.632L93.2327 243.553" stroke="#2C2C7C" stroke-width="2" stroke-miterlimit="10"/>
<path d="M85.3356 231.355L94.8617 236.919" stroke="#2C2C7C" stroke-width="2" stroke-miterlimit="10"/>
<path d="M87.5754 225.078L94.7633 229.278" stroke="#2C2C7C" stroke-width="2" stroke-miterlimit="10"/>
<path d="M78.5176 249.674L88.6546 255.598" stroke="#2C2C7C" stroke-width="2" stroke-miterlimit="10"/>
<path d="M53.2481 279.56L58.9292 282.879C67.1691 283.53 79.529 272.872 87.796 257.505C95.9409 242.359 97.3255 227.721 91.5325 222.838L86.2587 219.757" stroke="#2C2C7C" stroke-width="2" stroke-miterlimit="10"/>
<path d="M81.253 253.227C72.1205 269.941 59.2244 281.694 52.4506 279.479C45.6768 277.263 47.5874 261.92 56.7199 245.209C65.8523 228.494 78.7484 216.741 85.5223 218.957C92.2961 221.172 90.3854 236.516 81.253 253.227Z" fill="#F4B04D"/>
<mask id="mask1_5_10331" style="mask-type:luminance" maskUnits="userSpaceOnUse" x="52" y="225" width="32" height="47">
<path d="M77.306 251.676C70.3659 264.376 60.5683 273.307 55.42 271.624C50.2718 269.941 51.7243 258.282 58.6644 245.582C65.6045 232.882 75.4022 223.951 80.5504 225.634C85.6987 227.317 84.2461 238.976 77.306 251.676Z" fill="white"/>
</mask>
<g mask="url(#mask1_5_10331)">
<path d="M77.306 251.676C70.3659 264.376 60.5683 273.307 55.42 271.624C50.2718 269.941 51.7243 258.282 58.6644 245.582C65.6045 232.882 75.4022 223.951 80.5504 225.634C85.6987 227.317 84.2461 238.976 77.306 251.676Z" fill="#F2D34E"/>
<path d="M57.1712 272.431C52.6338 271.05 54.5479 259.531 61.4473 246.702C68.3467 233.873 77.6183 224.596 82.1523 225.977" stroke="#2C2C7C" stroke-width="2" stroke-miterlimit="10"/>
</g>
<path d="M238.057 304L119.091 222.59L163.925 168.708L283.068 250.237L238.057 304Z" fill="#50C7B3"/>
<path d="M231.069 291.154L134.647 225.172C134.318 222.787 134.135 221.45 133.809 219.061L164.213 182.535C166.837 182.165 168.31 181.958 170.933 181.588L267.467 247.648C267.789 250.037 267.973 251.373 268.295 253.762L237.786 290.217C235.162 290.584 233.689 290.787 231.066 291.154H231.069Z" stroke="#68E0C9" stroke-width="3" stroke-miterlimit="10"/>
<path d="M217.922 247.97C225.205 239.253 223.539 227.001 214.199 220.612C204.86 214.219 191.39 216.113 184.114 224.836C176.845 233.553 178.518 245.795 187.851 252.181C197.183 258.567 210.646 256.684 217.922 247.97Z" fill="#68E0C9"/>
<path d="M220.881 249.996C229.44 239.752 227.482 225.355 216.507 217.847C205.532 210.334 189.7 212.56 181.155 222.811C172.613 233.054 174.581 247.438 185.546 254.943C196.511 262.445 212.329 260.233 220.885 249.996H220.881Z" stroke="white" stroke-width="3" stroke-miterlimit="10"/>
<path d="M210.096 232.868C210.368 231.08 209.662 229.234 208.043 228.036C207.313 227.496 206.431 227.201 205.498 227.11C201.612 226.733 199.769 230.9 200.77 233.736C201.198 234.948 201.928 236.037 202.532 237.18C203.38 238.785 204.273 241.16 202.667 242.694C201.592 243.719 200.037 244.333 198.503 244.279C193.861 244.112 191.903 238.799 194.743 235.633" stroke="#2C2C7C" stroke-width="3" stroke-miterlimit="10"/>
<path d="M209.77 225.919L192.765 246.291" stroke="#2C2C7C" stroke-width="3" stroke-miterlimit="10"/>
<path d="M172.816 194.753C172.637 193.444 171.327 192.548 169.888 192.751L167.101 193.145C165.663 193.349 164.644 194.573 164.821 195.883L165.167 198.421C165.347 199.731 166.657 200.627 168.096 200.423L170.882 200.03C172.321 199.826 173.339 198.601 173.163 197.295L172.816 194.757V194.753Z" stroke="#2C2C7C" stroke-width="2" stroke-miterlimit="10"/>
<path d="M185.56 205.774L185.214 203.236C185.034 201.926 183.724 201.031 182.285 201.234L179.499 201.628C178.06 201.831 177.038 203.056 177.218 204.362L177.564 206.897C177.744 208.207 179.054 209.103 180.493 208.899L183.279 208.509C184.718 208.305 185.74 207.08 185.56 205.774Z" fill="#68E0C9"/>
<path d="M224.211 266.194C224.034 264.888 222.724 263.992 221.285 264.192L218.499 264.583C217.06 264.783 216.039 266.004 216.218 267.314L216.565 269.845C216.741 271.152 218.051 272.047 219.49 271.847L222.276 271.457C223.715 271.257 224.737 270.035 224.557 268.729L224.211 266.198V266.194Z" stroke="#2C2C7C" stroke-width="2" stroke-miterlimit="10"/>
<path d="M236.944 277.205L236.601 274.674C236.425 273.367 235.115 272.472 233.676 272.672L230.89 273.062C229.451 273.262 228.429 274.484 228.606 275.79L228.948 278.321C229.125 279.628 230.435 280.523 231.874 280.323L234.66 279.933C236.099 279.733 237.12 278.511 236.944 277.205Z" fill="#68E0C9"/>
<path d="M223.05 257.993L241.872 270.873" stroke="white" stroke-width="5" stroke-miterlimit="10"/>
<path d="M154.21 163.547L27.8589 232.953L0 168.634L126.534 99.1266L154.21 163.547Z" fill="#50C7B3"/>
<path d="M139.59 163.989L37.1848 220.242C34.9076 219.458 33.6316 219.017 31.3544 218.234L12.4752 174.622C13.3304 172.115 13.8089 170.707 14.6608 168.199L117.188 111.881C119.465 112.672 120.741 113.113 123.018 113.903L141.789 157.576C140.93 160.083 140.448 161.488 139.593 163.995L139.59 163.989Z" stroke="#68E0C9" stroke-width="3" stroke-miterlimit="10"/>
<path d="M95.1154 156.229C90.6221 145.798 78.9342 141.757 69.0144 147.203C59.0946 152.652 54.7065 165.526 59.2066 175.952C63.7066 186.373 75.3878 190.404 85.3008 184.961C95.2104 179.515 99.6052 166.655 95.1154 156.229Z" fill="#68E0C9"/>
<path d="M98.2579 154.502C92.9773 142.242 79.2464 137.492 67.589 143.895C55.9316 150.297 50.7732 165.427 56.0674 177.676C61.3548 189.922 75.0823 194.655 86.7261 188.259C98.3699 181.863 103.535 166.75 98.2579 154.498V154.502Z" stroke="white" stroke-width="3" stroke-miterlimit="10"/>
<path d="M78.1027 156.395C76.6299 155.346 74.6649 155.143 72.8662 156.049C72.0551 156.456 71.3934 157.107 70.8911 157.901C68.8006 161.199 71.6886 164.721 74.6717 165.108C75.9443 165.275 77.2475 165.115 78.5371 165.091C80.3527 165.057 82.8743 165.332 83.5191 167.46C83.9467 168.881 83.7974 170.544 83.0541 171.888C80.8075 175.956 75.1841 175.304 73.6434 171.341" stroke="#2C2C7C" stroke-width="3" stroke-miterlimit="10"/>
<path d="M71.7531 153.551L82.2634 177.917" stroke="#2C2C7C" stroke-width="3" stroke-miterlimit="10"/>
<path d="M27.2617 172.458C26.0128 172.027 24.6213 172.79 24.153 174.164L23.2469 176.828C22.7786 178.202 23.4132 179.665 24.6621 180.095L27.0818 180.93C28.3307 181.361 29.7221 180.598 30.1904 179.223L31.0965 176.56C31.5649 175.186 30.9302 173.723 29.6814 173.292L27.2617 172.458Z" stroke="#2C2C7C" stroke-width="2" stroke-miterlimit="10"/>
<path d="M42.8489 166.062L40.4292 165.227C39.1803 164.796 37.7889 165.56 37.3206 166.934L36.4144 169.597C35.9461 170.971 36.5773 172.434 37.8262 172.865L40.2459 173.699C41.4948 174.13 42.8862 173.367 43.3546 171.993L44.2641 169.329C44.7324 167.955 44.1012 166.493 42.8523 166.062H42.8489Z" fill="#68E0C9"/>
<path d="M114.215 158.841C112.97 158.41 111.578 159.174 111.107 160.548L110.197 163.212C109.729 164.586 110.356 166.048 111.605 166.479L114.022 167.314C115.267 167.745 116.659 166.981 117.13 165.607L118.04 162.943C118.508 161.569 117.88 160.107 116.635 159.676L114.219 158.841H114.215Z" stroke="#2C2C7C" stroke-width="2" stroke-miterlimit="10"/>
<path d="M129.792 152.449L127.376 151.614C126.13 151.183 124.739 151.947 124.267 153.321L123.358 155.984C122.889 157.358 123.517 158.821 124.763 159.252L127.179 160.086C128.425 160.517 129.816 159.754 130.288 158.38L131.197 155.716C131.666 154.342 131.038 152.88 129.792 152.449Z" fill="#68E0C9"/>
<path d="M106.376 156.178L126.365 145.198" stroke="white" stroke-width="5" stroke-miterlimit="10"/>
<path d="M229.896 197.017L239.055 204.36" stroke="#2C2C7C" stroke-width="2" stroke-miterlimit="10"/>
<path d="M229.692 202.704L232.193 204.709L227.062 200.593L225.514 199.355" stroke="#2C2C7C" stroke-width="2" stroke-miterlimit="10"/>
<path d="M236.802 193.841L245.958 201.184" stroke="#2C2C7C" stroke-width="2" stroke-miterlimit="10"/>
<path d="M242.982 190.085L252.141 197.428" stroke="#2C2C7C" stroke-width="2" stroke-miterlimit="10"/>
<path d="M247.93 185.338L257.089 192.681" stroke="#2C2C7C" stroke-width="2" stroke-miterlimit="10"/>
<path d="M252.185 180.035L261.342 187.377" stroke="#2C2C7C" stroke-width="2" stroke-miterlimit="10"/>
<path d="M259.601 169.37L268.757 176.713" stroke="#2C2C7C" stroke-width="2" stroke-miterlimit="10"/>
<path d="M262.733 163.49L271.889 170.833" stroke="#2C2C7C" stroke-width="2" stroke-miterlimit="10"/>
<path d="M265.865 157.607L274.475 164.508" stroke="#2C2C7C" stroke-width="2" stroke-miterlimit="10"/>
<path d="M269.001 151.726L275.493 156.935" stroke="#2C2C7C" stroke-width="2" stroke-miterlimit="10"/>
<path d="M256.438 174.731L265.597 182.074" stroke="#2C2C7C" stroke-width="2" stroke-miterlimit="10"/>
<path d="M227.062 200.593L232.193 204.709C240.246 206.562 254.038 197.828 264.467 183.838C274.743 170.049 278.256 155.771 273.243 150.091L268.479 146.274" stroke="#2C2C7C" stroke-width="2" stroke-miterlimit="10"/>
<path d="M258.623 178.644C247.139 193.838 232.661 203.576 226.285 200.393C219.908 197.21 224.045 182.311 235.529 167.117C247.013 151.923 261.491 142.185 267.868 145.368C274.244 148.55 270.108 163.449 258.623 178.644Z" fill="#F4B04D"/>
<mask id="mask2_5_10331" style="mask-type:luminance" maskUnits="userSpaceOnUse" x="228" y="150" width="37" height="44">
<path d="M254.945 176.536C246.219 188.083 235.217 195.483 230.371 193.064C225.524 190.645 228.67 179.326 237.396 167.776C246.121 156.229 257.123 148.829 261.969 151.248C266.816 153.667 263.67 164.986 254.945 176.533V176.536Z" fill="white"/>
</mask>
<g mask="url(#mask2_5_10331)">
<path d="M254.945 176.536C246.219 188.083 235.217 195.483 230.371 193.064C225.524 190.645 228.67 179.326 237.396 167.776C246.121 156.229 257.123 148.829 261.969 151.248C266.816 153.667 263.67 164.986 254.945 176.533V176.536Z" fill="#F2D34E"/>
<path d="M231.986 194.116C227.7 192.083 231.284 180.971 239.988 169.292C248.693 157.613 259.224 149.792 263.51 151.825" stroke="#2C2C7C" stroke-width="2" stroke-miterlimit="10"/>
</g>
</svg>
