<svg width="125" height="119" viewBox="0 0 125 119" fill="none" xmlns="http://www.w3.org/2000/svg">
<path d="M89.3241 127.912C79.6374 147.021 66.464 149.051 62.5796 149.244V149.259C62.5796 149.259 62.6933 149.269 62.4029 149.262C62.1136 149.269 62.2262 149.259 62.2262 149.259V149.244C58.6952 149.085 49.5262 147.672 40.8335 136.427C38.9993 134.054 37.1796 131.243 35.491 127.912C24.2377 105.715 32.4199 94.2839 32.4199 94.2839L62.2262 94.2127V94.2096L62.4029 94.2127L62.5796 94.2096V94.2127L75.2797 94.2436L92.4366 94.2839C92.4366 94.2839 100.578 105.715 89.3251 127.912H89.3241Z" fill="url(#paint0_linear_15_1229)"/>
<path d="M62.4458 98.5783C79.1596 98.5783 92.7089 96.8632 92.7089 94.7476C92.7089 92.632 79.1596 90.9169 62.4458 90.9169C45.732 90.9169 32.1827 92.632 32.1827 94.7476C32.1827 96.8632 45.732 98.5783 62.4458 98.5783Z" fill="url(#paint1_linear_15_1229)"/>
<path style="mix-blend-mode:multiply" opacity="0.3" d="M89.3253 127.912C79.6386 147.021 66.4653 149.051 62.5809 149.244V149.259C62.5809 149.259 62.6945 149.269 62.4042 149.262C62.1148 149.269 62.2275 149.259 62.2275 149.259V149.244C58.6965 149.085 49.5274 147.672 40.8348 136.427C40.8844 126.073 64.9214 119.036 72.4309 114.236C81.9306 108.165 74.2868 94.7477 74.2868 94.7477C74.6547 94.5731 75.0122 94.4048 75.3708 94.2437L92.4823 94.284C92.4823 94.284 100.579 105.715 89.3253 127.912Z" fill="url(#paint2_linear_15_1229)"/>
<path d="M16.4055 61.094C25.1208 61.094 32.186 52.0582 32.186 40.9119C32.186 29.7657 25.1208 20.7299 16.4055 20.7299C7.69016 20.7299 0.625 29.7657 0.625 40.9119C0.625 52.0582 7.69016 61.094 16.4055 61.094Z" fill="url(#paint3_linear_15_1229)"/>
<path d="M116.067 45.458C116.067 70.5655 91.214 90.916 60.5582 90.916C55.8492 90.916 51.2797 90.4367 46.9127 89.531C22.8539 84.5528 5.04907 66.709 5.04907 45.458C5.04907 20.3535 29.9025 0 60.5582 0C69.1713 0 77.3256 1.60602 84.6015 4.47309C103.219 11.8112 116.067 27.4076 116.067 45.458Z" fill="url(#paint4_linear_15_1229)"/>
<path d="M23.4921 66.209L66.2919 69.9426C75.7534 70.7678 83.9149 63.3708 84.2466 53.3154L84.6 42.5866C84.7519 37.971 81.2168 34.1217 76.763 34.0071L15.7502 32.4341C12.2068 32.3432 9.3681 35.5615 9.3681 39.609V49.0272C9.3681 57.8629 15.6003 65.5201 23.4931 66.208L23.4921 66.209Z" fill="#F4F7FA"/>
<path d="M22.4632 60.0736L68.2598 63.4426C75.0231 63.9404 80.8017 58.5967 81.0259 51.4579L81.1747 46.7194C81.3184 42.141 77.8215 38.3051 73.4225 38.1709L18.8268 36.5029C15.2472 36.3934 12.3755 39.6085 12.3693 43.6706L12.3641 47.8761C12.3559 54.2165 16.8303 59.6595 22.4622 60.0736H22.4632Z" fill="url(#paint5_linear_15_1229)"/>
<path style="mix-blend-mode:multiply" opacity="0.3" d="M116.069 45.4578C116.069 70.5653 91.2151 90.9158 60.5594 90.9158C55.8504 90.9158 51.2808 90.4365 46.9139 89.5308C42.5965 75.9111 66.9952 60.9737 81.0272 51.4574C98.2183 39.799 84.6027 4.47394 84.6027 4.47394C103.22 11.812 116.069 27.4085 116.069 45.4588V45.4578Z" fill="url(#paint6_linear_15_1229)"/>
<path d="M108.491 69.0076C117.207 69.0076 124.272 59.9718 124.272 48.8255C124.272 37.6793 117.207 28.6434 108.491 28.6434C99.7762 28.6434 92.711 37.6793 92.711 48.8255C92.711 59.9718 99.7762 69.0076 108.491 69.0076Z" fill="url(#paint7_linear_15_1229)"/>
<path d="M29.5799 53.2709C28.5253 53.2307 27.7078 52.4953 27.7547 51.6291L28.3198 41.1913C28.3667 40.325 29.2603 39.6548 30.3149 39.695C31.3694 39.7351 32.1869 40.4705 32.14 41.3368L31.575 51.7736C31.5281 52.6398 30.6345 53.31 29.5799 53.2699L29.5799 53.2709Z" fill="white"/>
<path d="M60.2795 54.4405C59.2922 54.4029 58.5268 53.7144 58.5707 52.9033L59.1466 42.2656C59.1905 41.4545 60.0272 40.827 61.0145 40.8646C62.0019 40.9022 62.7673 41.5907 62.7234 42.4018L62.1475 53.0395C62.1036 53.8506 61.2669 54.4781 60.2795 54.4405Z" fill="white"/>
<path d="M45.228 59.4587C40.6636 59.2514 38.6231 55.5455 38.1818 53.6139C38.0306 52.949 38.4562 52.2915 39.1348 52.1446C39.8134 51.9958 40.4855 52.4158 40.6368 53.0806C40.6726 53.2279 41.5788 56.8274 45.3417 56.9983C49.1046 57.1692 50.3332 53.6666 50.3825 53.5175C50.5989 52.8751 51.3081 52.5216 51.9665 52.733C52.625 52.9444 52.9876 53.6321 52.7768 54.2767C52.1623 56.1603 49.7944 59.666 45.2299 59.4588L45.228 59.4587Z" fill="white"/>
<defs>
<linearGradient id="paint0_linear_15_1229" x1="61.6362" y1="-75.8463" x2="63.1278" y2="273.261" gradientUnits="userSpaceOnUse">
<stop stop-color="#6429CD"/>
<stop offset="1" stop-color="#6429CD"/>
</linearGradient>
<linearGradient id="paint1_linear_15_1229" x1="62.328" y1="67.2646" x2="62.5355" y2="115.83" gradientUnits="userSpaceOnUse">
<stop stop-color="#6429CD"/>
<stop offset="1" stop-color="#6429CD"/>
</linearGradient>
<linearGradient id="paint2_linear_15_1229" x1="67.2269" y1="-75.2854" x2="68.7143" y2="272.915" gradientUnits="userSpaceOnUse">
<stop stop-color="#6429CD"/>
<stop offset="1" stop-color="#6429CD"/>
</linearGradient>
<linearGradient id="paint3_linear_15_1229" x1="0.623967" y1="40.9119" x2="32.186" y2="40.9119" gradientUnits="userSpaceOnUse">
<stop stop-color="#6429cd"/>
<stop offset="1" stop-color="#6429cd"/>
</linearGradient>
<linearGradient id="paint4_linear_15_1229" x1="60.5582" y1="0" x2="60.5582" y2="90.916" gradientUnits="userSpaceOnUse">
<stop stop-color="#6429CD"/>
<stop offset="1" stop-color="#6429CD"/>
</linearGradient>
<linearGradient id="paint5_linear_15_1229" x1="22.4622" y1="36.5029" x2="81.0259" y2="60.0736" gradientUnits="userSpaceOnUse">
<stop stop-color="#6429CD"/>
<stop offset="1" stop-color=""/>
</linearGradient>
<linearGradient id="paint6_linear_15_1229" x1="60.5594" y1="4.47394" x2="116.069" y2="45.4588" gradientUnits="userSpaceOnUse">
<stop stop-color="#6429CD"/>
<stop offset="1" stop-color="#6429CD"/>
</linearGradient>
<linearGradient id="paint7_linear_15_1229" x1="92.711" y1="28.6434" x2="108.491" y2="69.0076" gradientUnits="userSpaceOnUse">
<stop stop-color="#6429cd"/>
<stop offset="1" stop-color="#6429CD"/>
</linearGradient>
</defs>
</svg>