<svg width="126" height="36" viewBox="0 0 126 36" fill="none" xmlns="http://www.w3.org/2000/svg">
<path d="M0 28.6875V4.27278H3.07189V6.74167C4.33679 5.03479 6.68588 3.9375 9.00484 3.9375C13.7331 3.9375 17.4375 7.86948 17.4375 12.8987C17.4375 17.928 13.7331 21.8599 9.00484 21.8599C6.68588 21.8599 4.33679 20.7322 3.07189 19.0557V28.6875H0ZM8.55314 6.77219C5.24029 6.77219 2.83096 9.3325 2.83096 12.8987C2.83096 16.4649 5.24029 19.0253 8.55314 19.0253C11.8659 19.0253 14.2753 16.4649 14.2753 12.8987C14.2753 9.3325 11.8659 6.77219 8.55314 6.77219Z" fill="white"/>
<path d="M21.375 21.3446V4.12009H24.5729V7.072C25.4508 5.00261 27.6455 3.9375 29.4639 3.9375C29.9656 3.9375 30.4045 3.96793 30.8748 4.08966H30.9375V7.31544L30.8434 7.28502C30.3104 7.10241 29.8401 7.01111 29.2131 7.01111C26.2033 7.01111 24.6043 9.93257 24.6043 12.8236V21.375H21.375V21.3446Z" fill="white"/>
<path d="M41.8921 21.9375C37.0113 21.9375 33.1875 17.9885 33.1875 12.9375C33.1875 7.88649 37.0113 3.9375 41.8921 3.9375C44.2859 3.9375 46.7108 5.07015 48.0165 6.75386V4.27424H51.1875V21.6008H47.9854V19.1212C46.6797 20.8355 44.2548 21.9375 41.8921 21.9375ZM42.3274 6.78445C38.9388 6.78445 36.3896 9.41709 36.3896 12.9375C36.3896 16.4579 38.9388 19.0906 42.3274 19.0906C45.7471 19.0906 48.2341 16.5191 48.2341 12.9375C48.2341 9.3559 45.7781 6.78445 42.3274 6.78445Z" fill="white"/>
<path d="M100.887 21.3449V11.3289C100.887 8.46282 99.6097 6.77336 97.4616 6.77336C94.5657 6.77336 92.6976 9.18688 92.6976 12.8976V21.375H89.5211V11.3289C89.5211 8.46282 88.2448 6.77336 86.1587 6.77336C83.2941 6.77336 81.3633 9.24719 81.3633 12.8976V21.375H78.1875V4.26936H81.3633V6.68284C82.453 4.96324 84.3838 3.9375 86.5946 3.9375C89.1166 3.9375 91.078 5.20459 92.0124 7.43706C93.0088 5.26492 95.2196 3.9375 97.8035 3.9375C101.603 3.9375 104.062 6.65269 104.062 10.8763V21.3449H100.887Z" fill="white"/>
<path d="M116.705 21.9375C111.824 21.9375 108 17.9885 108 12.9375C108 7.88649 111.824 3.9375 116.705 3.9375C119.098 3.9375 121.523 5.07015 122.829 6.75386V4.27424H126V21.6008H122.829V19.1212C121.523 20.8355 119.098 21.9375 116.705 21.9375ZM117.171 6.78445C113.783 6.78445 111.233 9.41709 111.233 12.9375C111.233 16.4579 113.783 19.0906 117.171 19.0906C120.591 19.0906 123.077 16.5191 123.077 12.9375C123.077 9.3559 120.591 6.78445 117.171 6.78445Z" fill="white"/>
<path d="M67.8546 21.866C71.5702 20.567 74.25 16.9794 74.25 12.8041C74.25 9.61858 72.7272 6.80412 70.3518 5.07216C70.535 5.10309 70.7482 5.13402 70.9307 5.13402C72.3316 5.13402 73.4886 3.98969 73.4886 2.56701C73.4886 1.14433 72.3316 0 70.9307 0C69.5298 0 68.3728 1.14433 68.3728 2.56701C68.3728 3.18557 68.5859 3.7732 68.9816 4.23711C67.7027 3.58763 66.2405 3.21649 64.6878 3.21649C59.419 3.21649 55.125 7.51543 55.125 12.8351C55.125 18.0619 59.2973 22.3299 64.444 22.4536C61.9467 23.5361 60.1804 26.0412 60.1804 28.9485C60.1804 32.8453 63.3169 36 67.1851 36C71.0526 36 74.1894 32.8453 74.1894 28.9485C74.25 25.2062 71.4483 22.1753 67.8546 21.866ZM58.1095 12.7732C58.1095 9.09279 61.0635 6.12371 64.7178 6.12371C68.3728 6.12371 71.3264 9.1237 71.3264 12.7732C71.3264 16.4227 68.3728 19.4536 64.7178 19.4536C61.0635 19.4536 58.1095 16.4536 58.1095 12.7732ZM67.2457 33C64.9922 33 63.165 31.1443 63.165 28.8866C63.165 26.6289 64.9922 24.7732 67.2457 24.7732C69.4992 24.7732 71.3264 26.6289 71.3264 28.8866C71.3264 31.1753 69.4992 33 67.2457 33Z" fill="white"/>
</svg>
