<svg width="57" height="57" viewBox="0 0 57 57" fill="none" xmlns="http://www.w3.org/2000/svg">
<path fill-rule="evenodd" clip-rule="evenodd" d="M12.7507 0H44.2469C51.2609 0 56.9993 5.73892 56.9993 12.7526V44.2472C56.9993 51.2631 51.2605 56.9998 44.2469 56.9998H12.7507C5.73711 56.9998 0 51.2631 0 44.2472V12.7526C0 5.73892 5.73711 0 12.7507 0Z" fill="white"/>
<path fill-rule="evenodd" clip-rule="evenodd" d="M18.5687 14.1404C15.9393 14.1404 13.6953 15.1181 11.8592 16.7663C10.0307 18.4031 9.09146 20.4124 9.09146 22.8169C9.09146 25.2213 9.94186 27.5869 11.7912 29.2807C13.6215 30.9563 15.6737 31.4708 18.2973 31.4708H20.3288C21.0779 31.4708 21.7312 31.7329 22.2758 32.2292C22.807 32.7163 23.0912 33.3161 23.0912 34.0317C23.0912 34.7473 22.8331 35.3307 22.2979 35.8107C21.794 36.2629 21.0912 36.5414 20.3288 36.5414H12.909L9.01367 42.85H20.0782C22.8035 42.85 25.0952 41.9607 26.9737 40.2542C28.8818 38.5175 29.8286 36.4194 29.8414 33.9451C29.8688 29.2011 26.4575 25.0843 20.9418 25.0198C20.2187 25.0105 20.9586 25.0397 18.8255 25.0397C18.1524 25.0397 17.5857 24.8165 17.1296 24.3886C16.6664 23.955 16.4193 23.429 16.4136 22.8164C16.4096 22.202 16.6606 21.6906 17.1075 21.2646C17.5835 20.8089 18.1537 20.6206 18.8255 20.6206H38.1765C38.8497 20.6206 39.4181 20.8106 39.8928 21.2646C40.3392 21.6889 40.5868 22.2078 40.5868 22.8164C40.5868 23.425 40.3269 23.9643 39.8725 24.3886C39.4239 24.8094 38.8391 25.0397 38.1765 25.0397L29.3508 25.045L39.3889 42.85H47.9433L40.8281 31.3819C45.0186 30.8042 47.9066 27.4313 47.9066 22.816C47.9066 20.4115 46.9652 18.4022 45.1389 16.7654C43.3011 15.1177 41.0553 14.1395 38.4294 14.1395H27.0811" fill="#FB1909"/>
</svg>
