<svg xmlns="http://www.w3.org/2000/svg" width="113.575" height="29.652" viewBox="0 0 113.575 29.652">
  <g id="Grupo_16743" data-name="Grupo 16743" transform="translate(0 -10.358)">
    <g id="Grupo_17109" data-name="Grupo 17109">
      <path id="Trazado_15607" data-name="Trazado 15607" d="M36.958,74.7a3.966,3.966,0,0,0,1.172-2.384,5.062,5.062,0,0,0-.276-2.93H28.277l.936-4.943H38.4a3.085,3.085,0,0,0,2.088-.742,4.074,4.074,0,0,0,1.177-2.4,5.69,5.69,0,0,0,.083-1.705,4.521,4.521,0,0,0-.306-1.269H26.871a4.782,4.782,0,0,0-3.181,1.093,4.944,4.944,0,0,0-1.655,2.973l-.19,1L7.412,64.524l13.983,1.251-.644,3.4L0,71.592l19.8,2.592-.52,2.747-9.33.689,8.963,1.248-.507,2.68q-.39,2.056.359,2.841t3.066.788a16.493,16.493,0,0,0,2.079-.132,13.418,13.418,0,0,0,1.537-.262l1.772-9.359h7.653a3.133,3.133,0,0,0,2.083-.722" transform="translate(0 -45.56)" fill="#fff"/>
      <path id="Trazado_15608" data-name="Trazado 15608" d="M162.437,48.056a4.679,4.679,0,0,0-3.014-.722,14.009,14.009,0,0,0-1.97.13,13.3,13.3,0,0,0-1.428.263l-4.711,24.9-7.34.685,7.137,1.211a1.865,1.865,0,0,0,.552,1.349,4.676,4.676,0,0,0,3.011.722,14.066,14.066,0,0,0,1.972-.132,13.8,13.8,0,0,0,1.426-.262l4.8-25.367q.39-2.056-.435-2.776" transform="translate(-112.469 -36.976)" fill="#fff"/>
      <path id="Trazado_15609" data-name="Trazado 15609" d="M244.827,83.749a5.076,5.076,0,0,0-1.648-2.492,7.8,7.8,0,0,0-3.049-1.466,16.852,16.852,0,0,0-4.215-.481,27.271,27.271,0,0,0-3.3.217,15.108,15.108,0,0,0-3.13.7,5.5,5.5,0,0,0-1.9,1.16,3.388,3.388,0,0,0-.89,1.815,3.544,3.544,0,0,0,.073,1.685,2.336,2.336,0,0,0,.736,1.2,19.973,19.973,0,0,1,3.03-.874,15.89,15.89,0,0,1,3.281-.351,6.814,6.814,0,0,1,3.111.546,1.538,1.538,0,0,1,.772,1.816l-.059.306-5.844.612a11.55,11.55,0,0,0-5.936,2.011,7.313,7.313,0,0,0-2.67,4.635,6.134,6.134,0,0,0,.125,3.15,4.586,4.586,0,0,0,1.634,2.23,8.053,8.053,0,0,0,2.943,1.312,17.309,17.309,0,0,0,4.1.438,17.569,17.569,0,0,0,8.326-1.705,8.352,8.352,0,0,0,1.743-1.247,3.322,3.322,0,0,0,.987-1.861l1.853-9.8a7.478,7.478,0,0,0-.068-3.564M236.092,95.93a4.692,4.692,0,0,1-1.412.414,10.227,10.227,0,0,1-1.671.154,3.241,3.241,0,0,1-2.192-.547,1.463,1.463,0,0,1-.409-1.421,1.8,1.8,0,0,1,1.037-1.312,5.538,5.538,0,0,1,2.11-.525l3.2-.262Z" transform="translate(-174.237 -61.955)" fill="#fff"/>
      <path id="Trazado_15610" data-name="Trazado 15610" d="M339.571,80.068a8.62,8.62,0,0,0-2.335-.722,17.581,17.581,0,0,0-2.993-.24,15.91,15.91,0,0,0-4.006.482,12.018,12.018,0,0,0-3.295,1.356,8.074,8.074,0,0,0-2.383,2.186,7.23,7.23,0,0,0-1.255,2.93q-.562,2.974.995,4.57a9.993,9.993,0,0,0,5.221,2.34l1.263.262a4.1,4.1,0,0,1,1.642.569.907.907,0,0,1,.343.961,1.511,1.511,0,0,1-.92,1.05,4.922,4.922,0,0,1-2.153.393,11,11,0,0,1-3.68-.546,14.136,14.136,0,0,1-2.671-1.247,5.889,5.889,0,0,0-1.279,1.2,3.989,3.989,0,0,0-.771,1.772,2.805,2.805,0,0,0,.26,1.969,3.685,3.685,0,0,0,1.49,1.377,8.387,8.387,0,0,0,2.537.809,19.926,19.926,0,0,0,3.361.262,13.824,13.824,0,0,0,7.7-1.881,7.73,7.73,0,0,0,3.477-5.2,4.928,4.928,0,0,0-.949-4.351q-1.454-1.68-5.47-2.645l-1.3-.308a4.175,4.175,0,0,1-1.556-.568.763.763,0,0,1-.289-.787,1.394,1.394,0,0,1,.983-1.028,6.515,6.515,0,0,1,2.292-.328,9.863,9.863,0,0,1,1.528.132q.828.131,1.621.327a14.436,14.436,0,0,1,1.448.438,4.389,4.389,0,0,1,.963.46,5.179,5.179,0,0,0,1.168-1.2,4.368,4.368,0,0,0,.7-1.728A2.5,2.5,0,0,0,341,81.315a3.446,3.446,0,0,0-1.428-1.247" transform="translate(-250.934 -61.796)" fill="#fff"/>
      <path id="Trazado_15611" data-name="Trazado 15611" d="M377.658,56.494q-2-2.163-6.326-2.164a11.654,11.654,0,0,0-2.408.241,14.814,14.814,0,0,0-2.078.588l.819-4.329q.39-2.056-.438-2.776a4.28,4.28,0,0,0-2.66-.714l0-.008-.107.005c-.082,0-.16-.005-.246-.005a14.312,14.312,0,0,0-1.677.1l-22.665,1.115,20.391,2.1-4.247,22.445q-.39,2.054.435,2.776a4.684,4.684,0,0,0,3.012.722,14.045,14.045,0,0,0,1.972-.132,13.862,13.862,0,0,0,1.428-.262l2.889-15.263a7.81,7.81,0,0,1,1.442-.57,5.967,5.967,0,0,1,1.637-.217,2.889,2.889,0,0,1,2.072.72,2.668,2.668,0,0,1,.42,2.516l-1.838,9.71q-.388,2.054.438,2.776a4.686,4.686,0,0,0,3.013.722,14.046,14.046,0,0,0,1.972-.132,13.818,13.818,0,0,0,1.426-.262l2.508-13.252q.811-4.285-1.183-6.452" transform="translate(-265.501 -36.975)" fill="#fff"/>
    </g>
  </g>
</svg>
